<svg xmlns="http://www.w3.org/2000/svg" width="810" viewBox="0 0 810 810" height="810" version="1.0"><defs><clipPath id="a"><path d="M 219.46875 208 L 590.71875 208 L 590.71875 469 L 219.46875 469 Z M 219.46875 208"/></clipPath><clipPath id="b"><path d="M 280.386719 273 L 368.136719 273 L 368.136719 297 L 280.386719 297 Z M 280.386719 273"/></clipPath><clipPath id="c"><path d="M 348 234.816406 L 361 234.816406 L 361 248 L 348 248 Z M 348 234.816406"/></clipPath><clipPath id="d"><path d="M 286 321 L 302 321 L 302 337.566406 L 286 337.566406 Z M 286 321"/></clipPath><clipPath id="e"><path d="M 417.15625 276.484375 L 435.90625 276.484375 L 435.90625 295.234375 L 417.15625 295.234375 Z M 417.15625 276.484375"/></clipPath><clipPath id="f"><path d="M 464.785156 415 L 527.785156 415 L 527.785156 419 L 464.785156 419 Z M 464.785156 415"/></clipPath></defs><path fill="#1F274C" d="M 646.058594 729 L 163.941406 729 C 118.132812 729 81 691.863281 81 646.058594 L 81 163.941406 C 81 118.132812 118.132812 81 163.941406 81 L 646.058594 81 C 691.863281 81 729 118.132812 729 163.941406 L 729 646.058594 C 729 691.863281 691.863281 729 646.058594 729"/><path fill="#FFFBF2" d="M 588.917969 281.53125 L 588.917969 392.0625 L 575.636719 392.0625 L 575.636719 281.53125 L 588.917969 281.53125"/><path fill="#FFFBF2" d="M 545.097656 297.921875 L 545.097656 392.0625 L 531.816406 392.0625 L 531.816406 297.921875 L 545.097656 297.921875"/><path fill="#FFFBF2" d="M 501.28125 318.84375 L 501.28125 392.0625 L 487.996094 392.0625 L 487.996094 318.84375 L 501.28125 318.84375"/><path fill="#FFFBF2" d="M 457.464844 262.3125 L 457.464844 392.0625 L 444.179688 392.0625 L 444.179688 262.3125 L 457.464844 262.3125"/><path fill="#FFFBF2" d="M 413.648438 308.101562 L 413.648438 392.0625 L 400.363281 392.0625 L 400.363281 308.101562 L 413.648438 308.101562"/><path fill="#FFFBF2" d="M 349.496094 336.265625 C 349.496094 343.078125 348.582031 349.777344 346.738281 356.273438 L 289.660156 323.328125 L 317.335938 275.402344 C 337.292969 289.046875 349.496094 311.925781 349.496094 336.265625"/><path fill="#FFFBF2" d="M 280.425781 329.421875 L 343.414062 365.78125 C 334.796875 386.765625 316.140625 409.925781 275.835938 409.925781 C 241.066406 409.925781 202.179688 378.421875 202.179688 336.265625 C 202.179688 295.640625 235.226562 262.59375 275.835938 262.59375 C 287.316406 262.59375 298.617188 265.273438 308.808594 270.375 L 278.621094 322.660156 C 277.257812 325.027344 278.066406 328.058594 280.425781 329.421875"/><path fill="#FFFBF2" d="M 354.339844 364.878906 C 357.6875 355.730469 359.394531 346.09375 359.394531 336.265625 C 359.394531 306.769531 343.582031 279.164062 318.136719 264.1875 C 305.355469 256.679688 290.734375 252.699219 275.835938 252.699219 C 229.765625 252.699219 192.285156 290.1875 192.285156 336.265625 C 192.285156 384.078125 236.398438 419.816406 275.835938 419.816406 C 313.703125 419.816406 341.535156 400.453125 354.210938 365.292969 C 354.238281 365.210938 354.261719 365.121094 354.289062 365.046875 C 354.316406 364.996094 354.324219 364.929688 354.339844 364.878906 Z M 423.539062 397.011719 L 423.539062 303.152344 C 423.539062 300.421875 421.324219 298.203125 418.589844 298.203125 L 395.414062 298.203125 C 392.683594 298.203125 390.464844 300.421875 390.464844 303.152344 L 390.464844 397.011719 C 390.464844 399.746094 392.683594 401.960938 395.414062 401.960938 L 418.589844 401.960938 C 421.324219 401.960938 423.539062 399.746094 423.539062 397.011719 Z M 467.355469 397.011719 L 467.355469 257.363281 C 467.355469 254.632812 465.140625 252.414062 462.40625 252.414062 L 439.230469 252.414062 C 436.503906 252.414062 434.289062 254.632812 434.289062 257.363281 L 434.289062 397.011719 C 434.289062 399.746094 436.503906 401.960938 439.230469 401.960938 L 462.40625 401.960938 C 465.140625 401.960938 467.355469 399.746094 467.355469 397.011719 Z M 511.179688 397.011719 L 511.179688 313.898438 C 511.179688 311.164062 508.960938 308.949219 506.230469 308.949219 L 483.054688 308.949219 C 480.320312 308.949219 478.105469 311.164062 478.105469 313.898438 L 478.105469 397.011719 C 478.105469 399.746094 480.320312 401.960938 483.054688 401.960938 L 506.230469 401.960938 C 508.960938 401.960938 511.179688 399.746094 511.179688 397.011719 Z M 554.996094 397.011719 L 554.996094 292.972656 C 554.996094 290.242188 552.78125 288.027344 550.046875 288.027344 L 526.871094 288.027344 C 524.136719 288.027344 521.921875 290.242188 521.921875 292.972656 L 521.921875 397.011719 C 521.921875 399.746094 524.136719 401.960938 526.871094 401.960938 L 550.046875 401.960938 C 552.78125 401.960938 554.996094 399.746094 554.996094 397.011719 Z M 598.8125 397.011719 L 598.8125 276.582031 C 598.8125 273.855469 596.597656 271.640625 593.863281 271.640625 L 570.6875 271.640625 C 567.960938 271.640625 565.738281 273.855469 565.738281 276.582031 L 565.738281 397.011719 C 565.738281 399.746094 567.960938 401.960938 570.6875 401.960938 L 593.863281 401.960938 C 596.597656 401.960938 598.8125 399.746094 598.8125 397.011719 Z M 617.714844 414.867188 C 617.714844 412.140625 615.5 409.925781 612.765625 409.925781 L 376.511719 409.925781 C 373.785156 409.925781 371.566406 412.140625 371.566406 414.867188 C 371.566406 417.601562 373.785156 419.816406 376.511719 419.816406 L 612.765625 419.816406 C 615.5 419.816406 617.714844 417.601562 617.714844 414.867188 Z M 640.003906 180.40625 L 640.003906 491.8125 L 170 491.8125 L 170 180.40625 L 640.003906 180.40625"/><path fill="#FFFBF2" d="M 649.898438 496.757812 L 649.898438 175.457031 C 649.898438 172.726562 647.683594 170.511719 644.949219 170.511719 L 165.050781 170.511719 C 162.316406 170.511719 160.101562 172.726562 160.101562 175.457031 L 160.101562 496.757812 C 160.101562 499.492188 162.316406 501.707031 165.050781 501.707031 L 644.949219 501.707031 C 647.683594 501.707031 649.898438 499.492188 649.898438 496.757812 Z M 158.054688 528.917969 C 144.175781 528.917969 132.890625 517.628906 132.890625 503.753906 L 132.890625 168.476562 C 132.890625 154.597656 144.175781 143.300781 158.054688 143.300781 L 651.945312 143.300781 C 665.824219 143.300781 677.109375 154.597656 677.109375 168.476562 L 677.109375 503.753906 C 677.109375 517.628906 665.824219 528.917969 651.945312 528.917969 L 158.054688 528.917969"/><path fill="#FFFBF2" d="M 455.027344 620.769531 L 354.972656 620.769531 C 369.816406 582.914062 363.824219 554.15625 357.910156 538.816406 L 452.089844 538.816406 C 446.175781 554.15625 440.183594 582.914062 455.027344 620.769531"/><path fill="#FFFBF2" d="M 529.277344 630.660156 C 539.210938 630.660156 547.289062 638.738281 547.289062 648.671875 L 547.289062 666.699219 L 262.710938 666.699219 L 262.710938 648.671875 C 262.710938 638.738281 270.789062 630.660156 280.722656 630.660156 L 529.277344 630.660156"/><path fill="#FFFBF2" d="M 177.289062 190.058594 L 633.289062 190.058594 L 633.289062 486.308594 L 177.289062 486.308594 L 177.289062 190.058594"/><path fill="#8A8D9D" d="M 232.683594 228.765625 L 232.683594 447.511719 L 576.429688 447.511719 L 576.429688 228.765625 L 569.425781 228.765625 L 569.425781 434.042969 C 569.425781 435.121094 568.347656 435.875 567.375 435.550781 C 530.953125 425.960938 492.917969 424.023438 455.417969 427.363281 C 438.5 428.871094 421.367188 431.132812 404.984375 435.550781 C 404.769531 435.660156 404.554688 435.660156 404.339844 435.550781 C 404.125 435.550781 403.910156 435.550781 403.691406 435.550781 C 387.3125 431.132812 370.074219 428.871094 353.261719 427.363281 C 315.871094 424.023438 277.722656 425.960938 241.300781 435.550781 C 240.226562 435.875 239.148438 435.121094 239.148438 434.042969 L 239.148438 228.765625 Z M 232.683594 228.765625"/><path fill="#FFFBF2" d="M 566.082031 228.984375 C 563.929688 228.550781 560.910156 226.613281 559.078125 225.964844 C 553.261719 223.808594 547.332031 221.871094 541.40625 220.253906 L 541.300781 220.253906 C 540.976562 220.253906 540.652344 220.148438 540.4375 220.039062 C 496.148438 207.863281 448.195312 209.261719 406.171875 228.765625 L 406.171875 431.996094 C 422.226562 427.902344 438.929688 425.746094 455.417969 424.238281 C 492.484375 420.898438 530.09375 422.835938 566.191406 431.996094 L 566.191406 230.058594 C 566.191406 229.84375 566.082031 229.414062 566.082031 228.984375 Z M 379.339844 220.039062 C 339.792969 208.078125 296.691406 210.234375 257.25 223.164062 C 252.832031 224.671875 248.414062 226.179688 244.105469 228.011719 C 243.671875 228.226562 243.132812 228.550781 242.59375 228.765625 C 242.8125 230.058594 242.378906 232.214844 242.378906 233.183594 L 242.378906 431.996094 C 278.480469 422.835938 316.085938 420.898438 353.15625 424.238281 C 369.640625 425.746094 386.34375 427.902344 402.398438 431.996094 L 402.398438 228.765625 C 395.074219 225.320312 387.53125 222.515625 379.878906 220.148438 C 379.664062 220.148438 379.554688 220.039062 379.339844 220.039062 Z M 379.339844 220.039062"/><path fill="#FCC0A3" d="M 418.347656 220.148438 L 390.007812 220.148438 C 394.855469 221.871094 399.597656 223.808594 404.230469 226.074219 C 408.867188 223.917969 413.605469 221.976562 418.347656 220.148438 Z M 552.9375 220.148438 C 557.679688 221.761719 562.421875 223.488281 566.945312 225.535156 C 567.054688 225.535156 567.054688 225.535156 567.160156 225.535156 L 578.042969 225.535156 C 578.90625 225.535156 579.660156 226.289062 579.660156 227.152344 L 579.660156 449.128906 C 579.660156 449.992188 578.90625 450.746094 578.042969 450.746094 L 231.066406 450.746094 C 230.203125 450.746094 229.449219 449.992188 229.449219 449.128906 L 229.449219 227.152344 C 229.449219 226.289062 230.203125 225.535156 231.066406 225.535156 L 241.195312 225.535156 C 241.300781 225.535156 241.410156 225.535156 241.519531 225.535156 C 244.75 224.132812 248.089844 222.839844 251.324219 221.65625 C 252.832031 221.117188 254.339844 220.578125 255.847656 220.148438 L 222.984375 220.148438 L 222.984375 457.210938 L 385.050781 457.210938 C 385.160156 457.210938 385.265625 457.210938 385.480469 457.210938 C 386.019531 457.210938 386.558594 457.644531 386.773438 458.398438 C 388.714844 466.371094 397.765625 464.753906 404.125 464.753906 C 410.914062 464.753906 419.425781 466.480469 422.441406 458.398438 C 422.660156 457.859375 423.089844 457.535156 423.519531 457.425781 C 423.734375 457.320312 423.953125 457.210938 424.273438 457.210938 L 587.203125 457.210938 L 587.203125 220.148438 Z M 552.9375 220.148438"/><g clip-path="url(#a)"><path fill="#1F274C" d="M 588.820312 216.914062 L 542.054688 216.914062 C 539.789062 216.265625 537.527344 215.726562 535.15625 215.191406 C 509.726562 209.046875 483.109375 207 457.140625 210.554688 C 447.226562 211.847656 437.527344 214.003906 427.9375 217.023438 L 380.308594 217.023438 C 343.457031 205.921875 303.695312 206.675781 266.515625 217.023438 L 221.367188 217.023438 C 220.503906 216.914062 219.75 217.667969 219.75 218.53125 L 219.75 458.828125 C 219.75 459.691406 220.503906 460.445312 221.367188 460.445312 L 383.972656 460.445312 C 386.882812 469.171875 396.367188 467.988281 404.015625 467.988281 C 412.421875 467.988281 420.933594 469.171875 425.027344 460.445312 L 588.820312 460.445312 C 589.683594 460.445312 590.4375 459.691406 590.4375 458.828125 L 590.4375 218.53125 C 590.4375 217.667969 589.683594 216.914062 588.820312 216.914062 Z M 540.546875 219.929688 C 540.761719 220.039062 541.085938 220.148438 541.40625 220.148438 L 541.515625 220.148438 C 547.441406 221.761719 553.367188 223.703125 559.1875 225.859375 C 561.019531 226.503906 563.929688 228.445312 566.191406 228.875 C 566.191406 229.304688 566.300781 229.738281 566.300781 229.953125 L 566.300781 431.890625 C 530.199219 422.730469 492.59375 420.789062 455.523438 424.128906 C 439.039062 425.640625 422.335938 427.792969 406.277344 431.890625 L 406.277344 228.765625 C 448.195312 209.261719 496.148438 207.863281 540.546875 219.929688 Z M 241.195312 435.660156 C 277.617188 426.070312 315.65625 424.128906 353.15625 427.46875 C 370.074219 428.980469 387.207031 431.242188 403.585938 435.660156 C 403.800781 435.769531 404.015625 435.769531 404.230469 435.660156 C 404.449219 435.660156 404.664062 435.660156 404.878906 435.660156 C 421.257812 431.242188 438.5 428.980469 455.308594 427.46875 C 492.699219 424.128906 530.847656 426.070312 567.269531 435.660156 C 568.238281 435.875 569.316406 435.121094 569.316406 434.152344 L 569.316406 228.765625 L 576.320312 228.765625 L 576.320312 447.511719 L 232.683594 447.511719 L 232.683594 228.765625 L 239.148438 228.765625 L 239.148438 434.042969 C 239.148438 435.121094 240.226562 435.875 241.195312 435.660156 Z M 241.734375 229.089844 C 241.839844 229.089844 242.054688 229.089844 242.164062 228.984375 C 242.054688 228.984375 241.949219 229.089844 241.734375 229.089844 Z M 418.347656 220.148438 C 413.605469 221.871094 408.867188 223.917969 404.230469 226.074219 C 399.597656 223.917969 394.855469 221.976562 390.007812 220.148438 Z M 379.339844 220.039062 C 379.449219 220.148438 379.664062 220.148438 379.769531 220.148438 C 387.421875 222.515625 394.964844 225.320312 402.292969 228.765625 L 402.292969 431.996094 C 386.234375 427.902344 369.425781 425.746094 353.046875 424.238281 C 315.976562 420.898438 278.371094 422.835938 242.273438 431.996094 L 242.273438 233.183594 C 242.273438 232.324219 242.703125 230.058594 242.488281 228.765625 C 243.027344 228.550781 243.566406 228.121094 243.996094 228.011719 C 248.304688 226.179688 252.722656 224.566406 257.144531 223.164062 C 296.691406 210.234375 339.792969 208.078125 379.339844 220.039062 Z M 587.203125 457.210938 L 424.273438 457.210938 C 423.953125 457.210938 423.734375 457.320312 423.519531 457.425781 C 423.089844 457.535156 422.660156 457.859375 422.441406 458.398438 C 419.316406 466.371094 410.914062 464.753906 404.125 464.753906 C 397.875 464.753906 388.714844 466.371094 386.773438 458.398438 C 386.558594 457.644531 386.019531 457.320312 385.480469 457.210938 C 385.375 457.210938 385.265625 457.210938 385.050781 457.210938 L 222.984375 457.210938 L 222.984375 220.144531 L 255.957031 220.144531 C 254.449219 220.683594 252.941406 221.117188 251.429688 221.65625 C 248.089844 222.839844 244.75 224.132812 241.625 225.535156 C 241.519531 225.535156 241.410156 225.535156 241.300781 225.535156 L 231.171875 225.535156 C 230.203125 225.535156 229.449219 226.289062 229.449219 227.152344 L 229.449219 449.128906 C 229.449219 449.992188 230.203125 450.746094 231.066406 450.746094 L 578.042969 450.746094 C 578.90625 450.746094 579.660156 449.992188 579.660156 449.128906 L 579.660156 227.152344 C 579.660156 226.289062 578.90625 225.535156 578.042969 225.535156 L 567.160156 225.535156 C 567.054688 225.535156 567.054688 225.535156 566.945312 225.535156 C 562.421875 223.488281 557.679688 221.65625 552.9375 220.148438 L 587.203125 220.148438 Z M 587.203125 457.210938"/></g><g clip-path="url(#b)"><path fill="#4E4E4E" d="M 283.988281 288.488281 L 283.988281 277.273438 L 286.441406 277.273438 L 286.441406 289.34375 C 286.554688 290.316406 286.472656 291.304688 286.195312 292.246094 C 285.917969 293.183594 285.453125 294.0625 284.832031 294.816406 C 283.671875 295.8125 282.1875 296.351562 280.65625 296.332031 L 280.402344 294.503906 C 281.386719 294.507812 282.339844 294.144531 283.074219 293.484375 C 283.730469 292.71875 283.988281 291.679688 283.988281 288.488281 Z M 302.28125 287.050781 C 302.28125 288.417969 302.28125 289.640625 302.390625 290.699219 L 300.210938 290.699219 L 300.066406 288.527344 C 299.609375 289.296875 298.957031 289.929688 298.175781 290.367188 C 297.394531 290.800781 296.511719 291.023438 295.617188 291.007812 C 293.496094 291.007812 290.96875 289.859375 290.96875 285.171875 L 290.96875 277.382812 L 293.421875 277.382812 L 293.421875 284.679688 C 293.421875 287.214844 294.207031 288.910156 296.421875 288.910156 C 296.878906 288.917969 297.332031 288.828125 297.753906 288.65625 C 298.175781 288.484375 298.558594 288.234375 298.878906 287.910156 C 299.203125 287.59375 299.457031 287.207031 299.628906 286.789062 C 299.800781 286.371094 299.886719 285.917969 299.882812 285.464844 L 299.882812 277.296875 L 302.335938 277.296875 L 302.335938 286.980469 Z M 306.929688 281.722656 C 306.929688 280.027344 306.929688 278.640625 306.820312 277.382812 L 309.015625 277.382812 L 309.125 279.664062 C 309.617188 278.839844 310.320312 278.164062 311.164062 277.710938 C 312.007812 277.25 312.960938 277.03125 313.921875 277.074219 C 317.179688 277.074219 319.632812 279.792969 319.632812 283.839844 C 319.632812 288.617188 316.6875 290.988281 313.5 290.988281 C 312.6875 291.023438 311.875 290.851562 311.148438 290.480469 C 310.417969 290.117188 309.800781 289.566406 309.347656 288.890625 L 309.347656 296.1875 L 306.929688 296.1875 Z M 309.347656 285.28125 C 309.351562 285.609375 309.390625 285.941406 309.457031 286.261719 C 309.664062 287.074219 310.136719 287.789062 310.800781 288.304688 C 311.460938 288.816406 312.277344 289.09375 313.117188 289.09375 C 315.699219 289.09375 317.21875 286.992188 317.21875 283.949219 C 317.21875 281.289062 315.789062 279.007812 313.207031 279.007812 C 312.1875 279.089844 311.230469 279.542969 310.519531 280.277344 C 309.808594 281.015625 309.390625 281.980469 309.347656 283 Z M 324.003906 277.371094 L 326.949219 285.234375 C 327.261719 286.105469 327.589844 287.164062 327.808594 287.949219 C 328.066406 287.148438 328.34375 286.125 328.667969 285.179688 L 331.34375 277.371094 L 333.925781 277.371094 L 330.265625 286.855469 C 328.433594 291.414062 327.316406 293.765625 325.632812 295.1875 C 324.785156 295.960938 323.75 296.503906 322.628906 296.753906 L 322.027344 294.714844 C 322.808594 294.457031 323.539062 294.058594 324.167969 293.53125 C 325.0625 292.804688 325.769531 291.878906 326.234375 290.832031 C 326.335938 290.648438 326.40625 290.453125 326.4375 290.246094 C 326.417969 290.027344 326.363281 289.8125 326.273438 289.609375 L 321.292969 277.335938 L 323.96875 277.335938 Z M 340.433594 273.546875 L 340.433594 277.375 L 343.953125 277.375 L 343.953125 279.199219 L 340.433594 279.199219 L 340.433594 286.382812 C 340.433594 288.027344 340.914062 288.972656 342.265625 288.972656 C 342.75 288.980469 343.230469 288.925781 343.695312 288.8125 L 343.804688 290.632812 C 343.105469 290.875 342.367188 290.984375 341.628906 290.960938 C 341.136719 290.992188 340.644531 290.917969 340.1875 290.738281 C 339.726562 290.5625 339.316406 290.289062 338.972656 289.941406 C 338.226562 288.949219 337.882812 287.707031 338.019531 286.476562 L 338.019531 279.183594 L 335.933594 279.183594 L 335.933594 277.355469 L 338.054688 277.355469 L 338.054688 274.109375 Z M 348.46875 284.460938 C 348.417969 285.078125 348.503906 285.703125 348.722656 286.285156 C 348.933594 286.867188 349.273438 287.394531 349.714844 287.835938 C 350.15625 288.273438 350.6875 288.609375 351.273438 288.824219 C 351.855469 289.039062 352.480469 289.125 353.101562 289.074219 C 354.355469 289.101562 355.601562 288.867188 356.761719 288.382812 L 357.179688 290.203125 C 355.761719 290.789062 354.234375 291.066406 352.699219 291.027344 C 351.800781 291.089844 350.90625 290.953125 350.066406 290.636719 C 349.226562 290.320312 348.464844 289.824219 347.835938 289.1875 C 347.207031 288.550781 346.722656 287.789062 346.417969 286.945312 C 346.113281 286.101562 345.996094 285.207031 346.070312 284.316406 C 346.070312 280.304688 348.46875 277.132812 352.386719 277.132812 C 356.777344 277.132812 357.878906 280.960938 357.878906 283.402344 C 357.902344 283.78125 357.902344 284.15625 357.878906 284.535156 L 348.414062 284.535156 Z M 355.644531 282.636719 C 355.714844 282.152344 355.679688 281.65625 355.542969 281.183594 C 355.402344 280.707031 355.164062 280.269531 354.84375 279.898438 C 354.519531 279.523438 354.121094 279.222656 353.671875 279.019531 C 353.222656 278.808594 352.734375 278.703125 352.242188 278.699219 C 351.234375 278.769531 350.292969 279.214844 349.597656 279.945312 C 348.902344 280.671875 348.507812 281.632812 348.488281 282.636719 Z M 361.601562 281.515625 C 361.601562 279.949219 361.601562 278.601562 361.492188 277.359375 L 363.6875 277.359375 L 363.6875 279.96875 L 363.796875 279.96875 C 364.027344 279.164062 364.5 278.449219 365.160156 277.929688 C 365.816406 277.40625 366.617188 277.097656 367.457031 277.050781 C 367.6875 277.019531 367.921875 277.019531 368.152344 277.050781 L 368.152344 279.328125 C 367.875 279.296875 367.589844 279.296875 367.308594 279.328125 C 366.476562 279.363281 365.6875 279.695312 365.085938 280.265625 C 364.480469 280.835938 364.109375 281.605469 364.035156 282.433594 C 363.964844 282.804688 363.929688 283.183594 363.925781 283.5625 L 363.925781 290.652344 L 361.507812 290.652344 L 361.507812 281.539062 Z M 361.601562 281.515625"/></g><g clip-path="url(#c)"><path fill="#767677" d="M 360.523438 240.738281 C 360.601562 241.964844 360.308594 243.183594 359.683594 244.242188 C 359.0625 245.300781 358.136719 246.152344 357.027344 246.683594 C 355.914062 247.21875 354.671875 247.410156 353.453125 247.234375 C 352.230469 247.0625 351.09375 246.53125 350.175781 245.707031 C 349.261719 244.886719 348.613281 243.8125 348.3125 242.621094 C 348.015625 241.433594 348.074219 240.179688 348.492188 239.023438 C 348.90625 237.871094 349.660156 236.863281 350.652344 236.136719 C 351.644531 235.410156 352.832031 234.992188 354.0625 234.9375 C 354.871094 234.894531 355.679688 235.011719 356.4375 235.277344 C 357.203125 235.546875 357.902344 235.960938 358.503906 236.5 C 359.105469 237.039062 359.59375 237.691406 359.9375 238.417969 C 360.285156 239.144531 360.484375 239.933594 360.523438 240.738281 Z M 360.523438 240.738281"/></g><path fill="#F37726" d="M 324.328125 312.160156 C 307.855469 312.160156 293.375 306.273438 285.890625 297.574219 C 288.792969 305.398438 294.035156 312.148438 300.910156 316.917969 C 307.78125 321.683594 315.957031 324.242188 324.328125 324.242188 C 332.703125 324.242188 340.878906 321.683594 347.75 316.917969 C 354.625 312.148438 359.863281 305.398438 362.769531 297.574219 C 355.300781 306.273438 340.878906 312.160156 324.328125 312.160156 Z M 324.328125 312.160156"/><path fill="#F37726" d="M 324.328125 255.597656 C 340.804688 255.597656 355.285156 261.488281 362.769531 270.1875 C 359.863281 262.359375 354.625 255.609375 347.75 250.839844 C 340.878906 246.074219 332.703125 243.515625 324.328125 243.515625 C 315.957031 243.515625 307.78125 246.074219 300.910156 250.839844 C 294.035156 255.609375 288.792969 262.359375 285.890625 270.1875 C 293.375 261.46875 307.78125 255.597656 324.328125 255.597656 Z M 324.328125 255.597656"/><g clip-path="url(#d)"><path fill="#9E9E9E" d="M 301.652344 329.089844 C 301.746094 330.632812 301.382812 332.167969 300.597656 333.503906 C 299.8125 334.839844 298.648438 335.914062 297.253906 336.582031 C 295.855469 337.257812 294.289062 337.5 292.753906 337.285156 C 291.214844 337.066406 289.777344 336.398438 288.625 335.363281 C 287.472656 334.332031 286.652344 332.976562 286.273438 331.480469 C 285.890625 329.980469 285.96875 328.402344 286.492188 326.949219 C 287.015625 325.492188 287.960938 324.226562 289.210938 323.308594 C 290.460938 322.390625 291.953125 321.863281 293.503906 321.792969 C 294.519531 321.742188 295.539062 321.886719 296.496094 322.226562 C 297.457031 322.5625 298.339844 323.085938 299.09375 323.757812 C 299.851562 324.4375 300.464844 325.257812 300.90625 326.171875 C 301.34375 327.085938 301.597656 328.078125 301.652344 329.089844 Z M 301.652344 329.089844"/></g><path fill="#616262" d="M 287.761719 253.613281 C 286.875 253.640625 286 253.402344 285.246094 252.933594 C 284.496094 252.460938 283.898438 251.78125 283.535156 250.972656 C 283.167969 250.167969 283.050781 249.273438 283.195312 248.398438 C 283.339844 247.527344 283.742188 246.714844 284.347656 246.070312 C 284.953125 245.421875 285.738281 244.96875 286.601562 244.765625 C 287.464844 244.5625 288.371094 244.617188 289.203125 244.925781 C 290.035156 245.230469 290.757812 245.777344 291.28125 246.492188 C 291.800781 247.207031 292.101562 248.0625 292.136719 248.945312 C 292.171875 250.140625 291.730469 251.300781 290.914062 252.175781 C 290.09375 253.050781 288.960938 253.566406 287.761719 253.613281 Z M 287.761719 253.613281"/><path stroke-linecap="round" transform="matrix(3.0013 0 0 2.94253 256.626 354.226)" fill="none" d="M 0.499539 0.000241534 L 44.483048 0.000241534" stroke="#1F274C"/><path stroke-linecap="round" transform="matrix(3.0013 0 0 2.94253 256.626 368.342)" fill="none" d="M 0.499539 0.000526802 L 44.483048 0.000526802" stroke="#1F274C"/><path stroke-linecap="round" transform="matrix(3.0013 0 0 2.94253 256.626 382.637)" fill="none" d="M 0.499539 -0.000173048 L 44.483048 -0.000173048" stroke="#1F274C"/><path stroke-linecap="round" transform="matrix(3.0013 0 0 2.94253 256.626 399.613)" fill="none" d="M 0.499539 0.000242157 L 44.483048 0.000242157" stroke="#1F274C"/><path stroke-linecap="round" transform="matrix(3.0013 0 0 2.94253 417.156 236.288)" fill="none" d="M 0.499872 0.000398564 L 44.483381 0.000398564" stroke="#1F274C"/><path stroke-linecap="round" transform="matrix(3.0013 0 0 2.94253 417.156 250.404)" fill="none" d="M 0.499872 -0.000633079 L 44.483381 -0.000633079" stroke="#1F274C"/><path stroke-linecap="round" transform="matrix(3.0013 0 0 2.94253 417.156 264.7)" fill="none" d="M 0.499872 -0.0000152023 L 44.483381 -0.0000152023" stroke="#1F274C"/><path fill="#D2D2D4" d="M 547.636719 342.941406 L 444.585938 342.941406 C 442.195312 342.941406 440.246094 340.996094 440.246094 338.601562 L 440.246094 280.535156 C 440.246094 278.140625 442.195312 276.191406 444.585938 276.191406 L 547.636719 276.191406 C 550.03125 276.191406 551.980469 278.140625 551.980469 280.535156 L 551.980469 338.601562 C 551.980469 340.996094 550.03125 342.941406 547.636719 342.941406"/><g clip-path="url(#e)"><path fill="#1F274C" d="M 435.90625 285.859375 C 435.90625 286.472656 435.847656 287.082031 435.726562 287.6875 C 435.605469 288.289062 435.429688 288.875 435.191406 289.445312 C 434.957031 290.015625 434.667969 290.554688 434.324219 291.066406 C 433.984375 291.578125 433.59375 292.050781 433.160156 292.488281 C 432.726562 292.921875 432.25 293.3125 431.738281 293.652344 C 431.226562 293.996094 430.6875 294.285156 430.117188 294.519531 C 429.550781 294.753906 428.964844 294.933594 428.359375 295.050781 C 427.757812 295.171875 427.148438 295.234375 426.53125 295.234375 C 425.914062 295.234375 425.304688 295.171875 424.703125 295.050781 C 424.097656 294.933594 423.511719 294.753906 422.941406 294.519531 C 422.375 294.285156 421.835938 293.996094 421.324219 293.652344 C 420.8125 293.3125 420.335938 292.921875 419.902344 292.488281 C 419.464844 292.050781 419.078125 291.578125 418.734375 291.066406 C 418.394531 290.554688 418.105469 290.015625 417.871094 289.445312 C 417.632812 288.875 417.457031 288.289062 417.335938 287.6875 C 417.214844 287.082031 417.15625 286.472656 417.15625 285.859375 C 417.15625 285.242188 417.214844 284.632812 417.335938 284.027344 C 417.457031 283.425781 417.632812 282.839844 417.871094 282.269531 C 418.105469 281.703125 418.394531 281.160156 418.734375 280.648438 C 419.078125 280.136719 419.464844 279.664062 419.902344 279.226562 C 420.335938 278.792969 420.8125 278.40625 421.324219 278.0625 C 421.835938 277.71875 422.375 277.433594 422.941406 277.195312 C 423.511719 276.960938 424.097656 276.78125 424.703125 276.664062 C 425.304688 276.542969 425.914062 276.484375 426.53125 276.484375 C 427.148438 276.484375 427.757812 276.542969 428.359375 276.664062 C 428.964844 276.78125 429.550781 276.960938 430.117188 277.195312 C 430.6875 277.433594 431.226562 277.71875 431.738281 278.0625 C 432.25 278.40625 432.726562 278.792969 433.160156 279.226562 C 433.59375 279.664062 433.984375 280.136719 434.324219 280.648438 C 434.667969 281.160156 434.957031 281.703125 435.191406 282.269531 C 435.429688 282.839844 435.605469 283.425781 435.726562 284.027344 C 435.847656 284.632812 435.90625 285.242188 435.90625 285.859375 Z M 435.90625 285.859375"/></g><path fill="#FFF" d="M 423.859375 281.863281 L 430.796875 285.867188 C 431.039062 286.007812 431.039062 286.363281 430.796875 286.515625 L 423.859375 290.515625 C 423.617188 290.65625 423.304688 290.480469 423.304688 290.199219 L 423.304688 282.191406 C 423.296875 281.902344 423.605469 281.722656 423.859375 281.863281 Z M 423.859375 281.863281"/><g clip-path="url(#f)"><path fill="#8A8D9D" d="M 526.472656 418.328125 C 527.195312 418.328125 527.785156 417.742188 527.785156 417.019531 C 527.785156 416.296875 527.195312 415.707031 526.472656 415.707031 L 466.097656 415.707031 C 465.371094 415.707031 464.785156 416.296875 464.785156 417.019531 C 464.785156 417.742188 465.371094 418.328125 466.097656 418.328125 Z M 526.472656 418.328125"/></g><path fill="#1F274C" d="M 509.410156 380.347656 L 509.410156 409.160156 C 509.410156 409.882812 509.996094 410.46875 510.722656 410.46875 L 521.222656 410.46875 C 521.945312 410.46875 522.535156 409.882812 522.535156 409.160156 L 522.535156 380.347656 C 522.535156 379.625 521.945312 379.039062 521.222656 379.039062 L 510.722656 379.039062 C 509.996094 379.039062 509.410156 379.625 509.410156 380.347656 Z M 509.410156 380.347656" fill-rule="evenodd"/><path fill="#1F274C" d="M 491.035156 364.632812 L 491.035156 409.160156 C 491.035156 409.882812 491.621094 410.46875 492.347656 410.46875 L 502.847656 410.46875 C 503.570312 410.46875 504.160156 409.882812 504.160156 409.160156 L 504.160156 364.632812 C 504.160156 363.910156 503.570312 363.324219 502.847656 363.324219 L 492.347656 363.324219 C 491.621094 363.324219 491.035156 363.910156 491.035156 364.632812 Z M 491.035156 364.632812" fill-rule="evenodd"/><path fill="#FCC0A3" d="M 472.660156 351.539062 L 472.660156 409.160156 C 472.660156 409.882812 473.246094 410.46875 473.972656 410.46875 L 484.472656 410.46875 C 485.195312 410.46875 485.785156 409.882812 485.785156 409.160156 L 485.785156 351.539062 C 485.785156 350.816406 485.195312 350.230469 484.472656 350.230469 L 473.972656 350.230469 C 473.246094 350.230469 472.660156 350.816406 472.660156 351.539062 Z M 472.660156 351.539062" fill-rule="evenodd"/></svg>