<svg xmlns="http://www.w3.org/2000/svg" width="810" viewBox="0 0 810 810" height="810" version="1.0"><path fill="#1F274C" d="M 646.058594 729 L 163.941406 729 C 118.132812 729 81 691.863281 81 646.058594 L 81 163.941406 C 81 118.132812 118.132812 81 163.941406 81 L 646.058594 81 C 691.863281 81 729 118.132812 729 163.941406 L 729 646.058594 C 729 691.863281 691.863281 729 646.058594 729"/><path fill="#FFFBF2" d="M 588.917969 281.53125 L 588.917969 392.0625 L 575.636719 392.0625 L 575.636719 281.53125 L 588.917969 281.53125"/><path fill="#FFFBF2" d="M 545.097656 297.921875 L 545.097656 392.0625 L 531.816406 392.0625 L 531.816406 297.921875 L 545.097656 297.921875"/><path fill="#FFFBF2" d="M 501.28125 318.84375 L 501.28125 392.0625 L 487.996094 392.0625 L 487.996094 318.84375 L 501.28125 318.84375"/><path fill="#FFFBF2" d="M 457.464844 262.3125 L 457.464844 392.0625 L 444.179688 392.0625 L 444.179688 262.3125 L 457.464844 262.3125"/><path fill="#FFFBF2" d="M 413.648438 308.101562 L 413.648438 392.0625 L 400.363281 392.0625 L 400.363281 308.101562 L 413.648438 308.101562"/><path fill="#FFFBF2" d="M 349.496094 336.265625 C 349.496094 343.078125 348.582031 349.777344 346.738281 356.273438 L 289.660156 323.328125 L 317.335938 275.402344 C 337.292969 289.046875 349.496094 311.925781 349.496094 336.265625"/><path fill="#FFFBF2" d="M 280.425781 329.421875 L 343.414062 365.78125 C 334.796875 386.765625 316.140625 409.925781 275.835938 409.925781 C 241.066406 409.925781 202.179688 378.421875 202.179688 336.265625 C 202.179688 295.640625 235.226562 262.59375 275.835938 262.59375 C 287.316406 262.59375 298.617188 265.273438 308.808594 270.375 L 278.621094 322.660156 C 277.257812 325.027344 278.066406 328.058594 280.425781 329.421875"/><path fill="#FFFBF2" d="M 354.339844 364.878906 C 357.6875 355.730469 359.394531 346.09375 359.394531 336.265625 C 359.394531 306.769531 343.582031 279.164062 318.136719 264.1875 C 305.355469 256.679688 290.734375 252.699219 275.835938 252.699219 C 229.765625 252.699219 192.285156 290.1875 192.285156 336.265625 C 192.285156 384.078125 236.398438 419.816406 275.835938 419.816406 C 313.703125 419.816406 341.535156 400.453125 354.210938 365.292969 C 354.238281 365.210938 354.261719 365.121094 354.289062 365.046875 C 354.316406 364.996094 354.324219 364.929688 354.339844 364.878906 Z M 423.539062 397.011719 L 423.539062 303.152344 C 423.539062 300.421875 421.324219 298.203125 418.589844 298.203125 L 395.414062 298.203125 C 392.683594 298.203125 390.464844 300.421875 390.464844 303.152344 L 390.464844 397.011719 C 390.464844 399.746094 392.683594 401.960938 395.414062 401.960938 L 418.589844 401.960938 C 421.324219 401.960938 423.539062 399.746094 423.539062 397.011719 Z M 467.355469 397.011719 L 467.355469 257.363281 C 467.355469 254.632812 465.140625 252.414062 462.40625 252.414062 L 439.230469 252.414062 C 436.503906 252.414062 434.289062 254.632812 434.289062 257.363281 L 434.289062 397.011719 C 434.289062 399.746094 436.503906 401.960938 439.230469 401.960938 L 462.40625 401.960938 C 465.140625 401.960938 467.355469 399.746094 467.355469 397.011719 Z M 511.179688 397.011719 L 511.179688 313.898438 C 511.179688 311.164062 508.960938 308.949219 506.230469 308.949219 L 483.054688 308.949219 C 480.320312 308.949219 478.105469 311.164062 478.105469 313.898438 L 478.105469 397.011719 C 478.105469 399.746094 480.320312 401.960938 483.054688 401.960938 L 506.230469 401.960938 C 508.960938 401.960938 511.179688 399.746094 511.179688 397.011719 Z M 554.996094 397.011719 L 554.996094 292.972656 C 554.996094 290.242188 552.78125 288.027344 550.046875 288.027344 L 526.871094 288.027344 C 524.136719 288.027344 521.921875 290.242188 521.921875 292.972656 L 521.921875 397.011719 C 521.921875 399.746094 524.136719 401.960938 526.871094 401.960938 L 550.046875 401.960938 C 552.78125 401.960938 554.996094 399.746094 554.996094 397.011719 Z M 598.8125 397.011719 L 598.8125 276.582031 C 598.8125 273.855469 596.597656 271.640625 593.863281 271.640625 L 570.6875 271.640625 C 567.960938 271.640625 565.738281 273.855469 565.738281 276.582031 L 565.738281 397.011719 C 565.738281 399.746094 567.960938 401.960938 570.6875 401.960938 L 593.863281 401.960938 C 596.597656 401.960938 598.8125 399.746094 598.8125 397.011719 Z M 617.714844 414.867188 C 617.714844 412.140625 615.5 409.925781 612.765625 409.925781 L 376.511719 409.925781 C 373.785156 409.925781 371.566406 412.140625 371.566406 414.867188 C 371.566406 417.601562 373.785156 419.816406 376.511719 419.816406 L 612.765625 419.816406 C 615.5 419.816406 617.714844 417.601562 617.714844 414.867188 Z M 640.003906 180.40625 L 640.003906 491.8125 L 170 491.8125 L 170 180.40625 L 640.003906 180.40625"/><path fill="#FFFBF2" d="M 649.898438 496.757812 L 649.898438 175.457031 C 649.898438 172.726562 647.683594 170.511719 644.949219 170.511719 L 165.050781 170.511719 C 162.316406 170.511719 160.101562 172.726562 160.101562 175.457031 L 160.101562 496.757812 C 160.101562 499.492188 162.316406 501.707031 165.050781 501.707031 L 644.949219 501.707031 C 647.683594 501.707031 649.898438 499.492188 649.898438 496.757812 Z M 158.054688 528.917969 C 144.175781 528.917969 132.890625 517.628906 132.890625 503.753906 L 132.890625 168.476562 C 132.890625 154.597656 144.175781 143.300781 158.054688 143.300781 L 651.945312 143.300781 C 665.824219 143.300781 677.109375 154.597656 677.109375 168.476562 L 677.109375 503.753906 C 677.109375 517.628906 665.824219 528.917969 651.945312 528.917969 L 158.054688 528.917969"/><path fill="#FFFBF2" d="M 455.027344 620.769531 L 354.972656 620.769531 C 369.816406 582.914062 363.824219 554.15625 357.910156 538.816406 L 452.089844 538.816406 C 446.175781 554.15625 440.183594 582.914062 455.027344 620.769531"/><path fill="#FFFBF2" d="M 529.277344 630.660156 C 539.210938 630.660156 547.289062 638.738281 547.289062 648.671875 L 547.289062 666.699219 L 262.710938 666.699219 L 262.710938 648.671875 C 262.710938 638.738281 270.789062 630.660156 280.722656 630.660156 L 529.277344 630.660156"/></svg>