<svg xmlns="http://www.w3.org/2000/svg" width="810" viewBox="0 0 810 810" height="810" version="1.0"><defs><clipPath id="a"><path d="M 81 81 L 728.777344 81 L 728.777344 728.777344 L 81 728.777344 Z M 81 81"/></clipPath><clipPath id="b"><path d="M 272.832031 205.921875 L 537.417969 205.921875 L 537.417969 470.507812 L 272.832031 470.507812 Z M 272.832031 205.921875"/></clipPath></defs><g clip-path="url(#a)"><path fill="#1F274C" d="M 645.863281 728.777344 L 163.914062 728.777344 C 118.121094 728.777344 81 691.652344 81 645.863281 L 81 163.914062 C 81 118.121094 118.121094 81 163.914062 81 L 645.863281 81 C 691.652344 81 728.777344 118.121094 728.777344 163.914062 L 728.777344 645.863281 C 728.777344 691.652344 691.652344 728.777344 645.863281 728.777344"/></g><path fill="#FFFBF2" d="M 588.742188 281.464844 L 588.742188 391.957031 L 575.46875 391.957031 L 575.46875 281.464844 L 588.742188 281.464844"/><path fill="#FFFBF2" d="M 544.941406 297.847656 L 544.941406 391.957031 L 531.660156 391.957031 L 531.660156 297.847656 L 544.941406 297.847656"/><path fill="#FFFBF2" d="M 501.136719 318.761719 L 501.136719 391.957031 L 487.859375 391.957031 L 487.859375 318.761719 L 501.136719 318.761719"/><path fill="#FFFBF2" d="M 457.335938 262.25 L 457.335938 391.957031 L 444.054688 391.957031 L 444.054688 262.25 L 457.335938 262.25"/><path fill="#FFFBF2" d="M 413.535156 308.023438 L 413.535156 391.957031 L 400.253906 391.957031 L 400.253906 308.023438 L 413.535156 308.023438"/><path fill="#FFFBF2" d="M 349.402344 336.179688 C 349.402344 342.988281 348.488281 349.6875 346.644531 356.179688 L 289.589844 323.246094 L 317.253906 275.335938 C 337.207031 288.976562 349.402344 311.847656 349.402344 336.179688"/><path fill="#FFFBF2" d="M 280.355469 329.339844 L 343.324219 365.683594 C 334.710938 386.664062 316.058594 409.8125 275.769531 409.8125 C 241.011719 409.8125 202.136719 378.320312 202.136719 336.179688 C 202.136719 295.570312 235.175781 262.53125 275.769531 262.53125 C 287.246094 262.53125 298.542969 265.210938 308.730469 270.308594 L 278.554688 322.578125 C 277.1875 324.945312 278 327.976562 280.355469 329.339844"/><path fill="#FFFBF2" d="M 354.246094 364.785156 C 357.59375 355.636719 359.296875 346.003906 359.296875 336.179688 C 359.296875 306.695312 343.492188 279.097656 318.054688 264.125 C 305.28125 256.621094 290.660156 252.640625 275.769531 252.640625 C 229.714844 252.640625 192.25 290.117188 192.25 336.179688 C 192.25 383.972656 236.347656 419.703125 275.769531 419.703125 C 313.621094 419.703125 341.445312 400.34375 354.117188 365.195312 C 354.144531 365.113281 354.167969 365.027344 354.199219 364.953125 C 354.222656 364.898438 354.230469 364.832031 354.246094 364.785156 Z M 423.421875 396.902344 L 423.421875 303.074219 C 423.421875 300.347656 421.207031 298.128906 418.476562 298.128906 L 395.308594 298.128906 C 392.578125 298.128906 390.359375 300.347656 390.359375 303.074219 L 390.359375 396.902344 C 390.359375 399.636719 392.578125 401.851562 395.308594 401.851562 L 418.476562 401.851562 C 421.207031 401.851562 423.421875 399.636719 423.421875 396.902344 Z M 467.226562 396.902344 L 467.226562 257.300781 C 467.226562 254.574219 465.011719 252.355469 462.277344 252.355469 L 439.109375 252.355469 C 436.382812 252.355469 434.167969 254.574219 434.167969 257.300781 L 434.167969 396.902344 C 434.167969 399.636719 436.382812 401.851562 439.109375 401.851562 L 462.277344 401.851562 C 465.011719 401.851562 467.226562 399.636719 467.226562 396.902344 Z M 511.03125 396.902344 L 511.03125 313.820312 C 511.03125 311.085938 508.8125 308.875 506.085938 308.875 L 482.917969 308.875 C 480.183594 308.875 477.96875 311.085938 477.96875 313.820312 L 477.96875 396.902344 C 477.96875 399.636719 480.183594 401.851562 482.917969 401.851562 L 506.085938 401.851562 C 508.8125 401.851562 511.03125 399.636719 511.03125 396.902344 Z M 554.835938 396.902344 L 554.835938 292.898438 C 554.835938 290.171875 552.621094 287.957031 549.886719 287.957031 L 526.71875 287.957031 C 523.984375 287.957031 521.773438 290.171875 521.773438 292.898438 L 521.773438 396.902344 C 521.773438 399.636719 523.984375 401.851562 526.71875 401.851562 L 549.886719 401.851562 C 552.621094 401.851562 554.835938 399.636719 554.835938 396.902344 Z M 598.636719 396.902344 L 598.636719 276.515625 C 598.636719 273.789062 596.421875 271.574219 593.691406 271.574219 L 570.519531 271.574219 C 567.792969 271.574219 565.574219 273.789062 565.574219 276.515625 L 565.574219 396.902344 C 565.574219 399.636719 567.792969 401.851562 570.519531 401.851562 L 593.691406 401.851562 C 596.421875 401.851562 598.636719 399.636719 598.636719 396.902344 Z M 617.53125 414.753906 C 617.53125 412.027344 615.316406 409.8125 612.582031 409.8125 L 376.414062 409.8125 C 373.683594 409.8125 371.464844 412.027344 371.464844 414.753906 C 371.464844 417.488281 373.683594 419.703125 376.414062 419.703125 L 612.582031 419.703125 C 615.316406 419.703125 617.53125 417.488281 617.53125 414.753906 Z M 639.816406 180.371094 L 639.816406 491.675781 L 169.96875 491.675781 L 169.96875 180.371094 L 639.816406 180.371094"/><path fill="#FFFBF2" d="M 649.703125 496.617188 L 649.703125 175.425781 C 649.703125 172.695312 647.492188 170.484375 644.757812 170.484375 L 165.023438 170.484375 C 162.289062 170.484375 160.074219 172.695312 160.074219 175.425781 L 160.074219 496.617188 C 160.074219 499.347656 162.289062 501.5625 165.023438 501.5625 L 644.757812 501.5625 C 647.492188 501.5625 649.703125 499.347656 649.703125 496.617188 Z M 158.027344 528.765625 C 144.15625 528.765625 132.871094 517.480469 132.871094 503.609375 L 132.871094 168.445312 C 132.871094 154.574219 144.15625 143.28125 158.027344 143.28125 L 651.75 143.28125 C 665.625 143.28125 676.90625 154.574219 676.90625 168.445312 L 676.90625 503.609375 C 676.90625 517.480469 665.625 528.765625 651.75 528.765625 L 158.027344 528.765625"/><path fill="#FFFBF2" d="M 454.898438 620.585938 L 354.878906 620.585938 C 369.714844 582.742188 363.726562 553.996094 357.816406 538.660156 L 451.964844 538.660156 C 446.054688 553.996094 440.0625 582.742188 454.898438 620.585938"/><path fill="#FFFBF2" d="M 529.125 630.472656 C 539.054688 630.472656 547.128906 638.550781 547.128906 648.480469 L 547.128906 666.496094 L 262.648438 666.496094 L 262.648438 648.480469 C 262.648438 638.550781 270.726562 630.472656 280.652344 630.472656 L 529.125 630.472656"/><path fill="#FFFBF2" d="M 177.296875 190.058594 L 633.46875 190.058594 L 633.46875 485.925781 L 177.296875 485.925781 L 177.296875 190.058594"/><g clip-path="url(#b)"><path fill="#1F274C" d="M 378.351562 205.921875 C 365.671875 205.921875 354.609375 213.730469 350.285156 225.5 C 348.132812 225.058594 345.925781 224.820312 343.703125 224.820312 C 325.464844 224.820312 310.628906 239.65625 310.628906 257.894531 C 310.628906 259.496094 310.75 261.09375 310.96875 262.644531 C 293.304688 263.296875 279.132812 277.871094 279.132812 295.691406 C 279.132812 302.589844 281.289062 309.269531 285.253906 314.835938 C 277.4375 321.394531 272.832031 331.0625 272.832031 341.367188 C 272.832031 353.433594 279.21875 364.617188 289.355469 370.871094 C 286.816406 374.710938 285.429688 379.210938 285.429688 383.886719 C 285.429688 396.476562 295.335938 406.761719 307.75 407.445312 C 307.585938 409.035156 307.480469 410.636719 307.480469 412.238281 C 307.480469 437.417969 327.96875 457.910156 353.152344 457.910156 C 353.417969 457.910156 353.683594 457.90625 353.945312 457.902344 C 359.5625 465.828125 368.558594 470.507812 378.351562 470.507812 C 390.078125 470.507812 400.222656 463.714844 405.125 453.867188 C 410.03125 463.714844 420.171875 470.507812 431.898438 470.507812 C 441.691406 470.507812 450.6875 465.828125 456.304688 457.902344 C 456.570312 457.90625 456.832031 457.910156 457.097656 457.910156 C 482.28125 457.910156 502.769531 437.417969 502.769531 412.238281 C 502.769531 410.636719 502.664062 409.035156 502.5 407.445312 C 514.914062 406.761719 524.820312 396.476562 524.820312 383.886719 C 524.820312 379.210938 523.4375 374.710938 520.894531 370.871094 C 531.035156 364.617188 537.417969 353.433594 537.417969 341.367188 C 537.417969 331.0625 532.808594 321.394531 524.996094 314.835938 C 528.957031 309.265625 531.117188 302.585938 531.117188 295.691406 C 531.117188 277.871094 516.949219 263.296875 499.28125 262.644531 C 499.507812 261.074219 499.621094 259.484375 499.621094 257.894531 C 499.621094 239.65625 484.785156 224.820312 466.546875 224.820312 C 464.324219 224.820312 462.117188 225.058594 459.964844 225.5 C 455.644531 213.730469 444.578125 205.921875 431.898438 205.921875 C 420.171875 205.921875 410.03125 212.71875 405.125 222.5625 C 400.222656 212.71875 390.078125 205.921875 378.351562 205.921875 Z M 378.351562 212.222656 C 391.378906 212.222656 401.976562 222.816406 401.976562 235.847656 L 401.976562 376.746094 C 398.71875 368.40625 393.058594 361.078125 385.507812 355.824219 C 384.792969 355.324219 383.800781 355.5 383.308594 356.214844 C 382.8125 356.929688 382.988281 357.910156 383.703125 358.40625 C 395.144531 366.363281 401.976562 379.421875 401.976562 393.335938 L 401.976562 440.585938 C 401.976562 453.613281 391.378906 464.207031 378.351562 464.207031 C 370.277344 464.207031 362.890625 460.179688 358.511719 453.410156 C 357.996094 452.246094 356.765625 451.472656 355.453125 451.542969 C 354.695312 451.585938 353.925781 451.609375 353.152344 451.609375 C 331.441406 451.609375 313.78125 433.949219 313.78125 412.238281 C 313.78125 409.742188 314.011719 407.246094 314.476562 404.816406 C 317.082031 391.132812 326.878906 379.742188 340.042969 375.097656 C 340.253906 375.019531 340.410156 374.878906 340.597656 374.765625 C 343.136719 378.746094 346.574219 382.171875 350.785156 384.609375 C 351.304688 384.910156 351.636719 385.09375 352.175781 385.363281 C 352.402344 385.476562 352.640625 385.53125 352.875 385.53125 C 353.457031 385.53125 354.015625 385.214844 354.292969 384.664062 C 354.683594 383.886719 354.363281 382.9375 353.582031 382.546875 C 353.113281 382.3125 352.816406 382.148438 352.359375 381.882812 C 344.105469 377.101562 338.980469 368.21875 338.980469 358.6875 C 338.980469 352.746094 340.882812 347.121094 344.492188 342.417969 L 344.945312 341.832031 C 345.511719 341.175781 345.441406 340.179688 344.78125 339.613281 C 344.121094 339.046875 343.128906 339.117188 342.558594 339.777344 C 342.273438 340.113281 342.238281 340.15625 341.988281 340.503906 C 337.957031 345.761719 335.828125 352.046875 335.828125 358.6875 C 335.828125 362.339844 336.546875 365.890625 337.804688 369.214844 C 323.398438 374.355469 312.507812 386.464844 308.839844 401.199219 C 299.386719 401.082031 291.730469 393.367188 291.730469 383.886719 C 291.730469 379.476562 293.390625 375.269531 296.40625 372.046875 C 299.71875 368.511719 304.214844 366.5625 309.054688 366.5625 C 310.792969 366.5625 312.207031 365.152344 312.207031 363.414062 C 312.207031 361.675781 310.792969 360.265625 309.054688 360.265625 C 303.386719 360.265625 297.882812 362.335938 293.613281 366.011719 C 284.777344 361.019531 279.132812 351.605469 279.132812 341.367188 C 279.132812 332.019531 283.738281 323.273438 291.453125 317.976562 C 296.183594 314.726562 301.722656 313.015625 307.480469 313.015625 C 309.21875 313.015625 310.628906 311.605469 310.628906 309.867188 C 310.628906 308.128906 309.21875 306.71875 307.480469 306.71875 C 301.441406 306.71875 295.597656 308.273438 290.402344 311.21875 C 287.1875 306.707031 285.429688 301.285156 285.429688 295.691406 C 285.429688 280.929688 297.441406 268.917969 312.207031 268.917969 L 313.195312 268.902344 C 313.628906 268.886719 314.035156 268.867188 314.511719 268.90625 C 315.5 269 316.488281 268.617188 317.15625 267.867188 C 317.820312 267.121094 318.089844 266.101562 317.882812 265.125 L 317.761719 264.550781 C 317.210938 262.390625 316.929688 260.148438 316.929688 257.894531 C 316.929688 243.132812 328.941406 231.121094 343.703125 231.121094 C 351.183594 231.121094 358.117188 234.128906 363.234375 239.585938 C 364.425781 240.855469 366.421875 240.917969 367.691406 239.726562 C 368.960938 238.539062 369.023438 236.542969 367.832031 235.273438 C 364.597656 231.824219 360.671875 229.160156 356.371094 227.375 C 359.863281 218.273438 368.460938 212.222656 378.351562 212.222656 Z M 431.898438 212.222656 C 441.789062 212.222656 450.386719 218.273438 453.878906 227.378906 C 449.582031 229.167969 445.652344 231.832031 442.417969 235.28125 C 441.226562 236.550781 441.292969 238.542969 442.558594 239.734375 C 443.828125 240.925781 445.820312 240.863281 447.015625 239.59375 C 452.132812 234.128906 459.066406 231.121094 466.546875 231.121094 C 481.308594 231.121094 493.320312 243.132812 493.320312 257.894531 C 493.320312 260.148438 493.039062 262.390625 492.453125 264.6875 L 492.359375 265.128906 C 492.15625 266.109375 492.429688 267.125 493.09375 267.875 C 493.757812 268.621094 494.722656 269.003906 495.730469 268.914062 C 496.210938 268.867188 496.613281 268.886719 497.046875 268.90625 L 498.046875 268.917969 C 512.808594 268.917969 524.820312 280.929688 524.820312 295.691406 C 524.820312 301.285156 523.0625 306.707031 519.847656 311.21875 C 514.652344 308.273438 508.808594 306.71875 502.769531 306.71875 C 501.03125 306.71875 499.621094 308.128906 499.621094 309.867188 C 499.621094 311.605469 501.03125 313.015625 502.769531 313.015625 C 508.527344 313.015625 514.066406 314.726562 518.796875 317.976562 C 526.511719 323.273438 531.117188 332.019531 531.117188 341.367188 C 531.117188 351.605469 525.46875 361.023438 516.628906 366.015625 C 512.367188 362.335938 506.863281 360.265625 501.195312 360.265625 C 499.457031 360.265625 498.046875 361.675781 498.046875 363.414062 C 498.046875 365.152344 499.457031 366.5625 501.195312 366.5625 C 506.035156 366.5625 510.527344 368.511719 513.835938 372.046875 C 516.855469 375.269531 518.519531 379.476562 518.519531 383.886719 C 518.519531 393.367188 510.863281 401.082031 501.410156 401.199219 C 497.742188 386.464844 486.851562 374.355469 472.445312 369.214844 C 473.703125 365.890625 474.421875 362.339844 474.421875 358.6875 C 474.421875 352.046875 472.292969 345.761719 468.085938 340.265625 C 468.011719 340.15625 467.984375 340.113281 467.699219 339.777344 C 467.128906 339.121094 466.226562 339.160156 465.570312 339.730469 C 464.910156 340.296875 464.929688 341.40625 465.5 342.066406 L 465.765625 342.421875 C 469.367188 347.121094 471.273438 352.746094 471.273438 358.6875 C 471.273438 368.21875 466.140625 377.105469 457.878906 381.882812 C 457.425781 382.148438 457.132812 382.308594 456.660156 382.539062 C 455.882812 382.929688 455.570312 383.878906 455.960938 384.65625 C 456.238281 385.207031 456.789062 385.523438 457.367188 385.523438 C 457.605469 385.523438 457.84375 385.472656 458.070312 385.359375 C 458.609375 385.089844 458.945312 384.902344 459.460938 384.601562 C 463.671875 382.167969 467.105469 378.746094 469.648438 374.765625 C 469.832031 374.878906 469.988281 375.015625 470.203125 375.089844 C 483.363281 379.738281 493.160156 391.132812 495.769531 404.816406 C 496.234375 407.25 496.46875 409.742188 496.46875 412.238281 C 496.46875 433.949219 478.808594 451.609375 457.097656 451.609375 C 456.324219 451.609375 455.554688 451.585938 454.796875 451.542969 C 453.574219 451.464844 452.410156 452.1875 451.84375 453.246094 C 447.476562 460.113281 440.035156 464.207031 431.898438 464.207031 C 418.871094 464.207031 408.273438 453.613281 408.273438 440.585938 L 408.273438 393.335938 C 408.273438 379.421875 415.105469 366.363281 426.546875 358.40625 C 427.261719 357.910156 427.4375 356.929688 426.941406 356.214844 C 426.441406 355.5 425.457031 355.328125 424.742188 355.824219 C 417.191406 361.078125 411.53125 368.40625 408.273438 376.746094 L 408.273438 235.847656 C 408.273438 222.816406 418.871094 212.222656 431.898438 212.222656 Z M 354.726562 252.246094 C 354.523438 252.246094 354.3125 252.285156 354.113281 252.371094 C 343.007812 257.058594 335.828125 267.882812 335.828125 279.945312 C 335.828125 285.859375 337.546875 291.582031 340.8125 296.492188 C 341.113281 296.949219 341.617188 297.195312 342.128906 297.195312 C 342.429688 297.195312 342.726562 297.105469 342.996094 296.929688 C 343.71875 296.449219 343.917969 295.46875 343.4375 294.746094 C 340.523438 290.355469 338.980469 285.238281 338.980469 279.945312 C 338.980469 269.152344 345.398438 259.472656 355.335938 255.273438 C 356.140625 254.933594 356.519531 254.007812 356.179688 253.207031 C 355.925781 252.605469 355.339844 252.246094 354.726562 252.246094 Z M 455.523438 252.246094 C 454.910156 252.246094 454.324219 252.605469 454.070312 253.207031 C 453.730469 254.007812 454.105469 254.933594 454.90625 255.273438 C 464.847656 259.472656 471.273438 269.152344 471.273438 279.945312 C 471.273438 285.238281 469.726562 290.359375 466.8125 294.746094 C 466.328125 295.46875 466.53125 296.449219 467.253906 296.929688 C 467.523438 297.109375 467.824219 297.1875 468.121094 297.1875 C 468.632812 297.1875 469.136719 296.941406 469.4375 296.488281 C 472.703125 291.578125 474.421875 285.859375 474.421875 279.945312 C 474.421875 267.882812 467.242188 257.058594 456.132812 252.371094 C 455.933594 252.285156 455.726562 252.246094 455.523438 252.246094 Z M 378.359375 257.917969 C 378.15625 257.953125 377.960938 258.027344 377.78125 258.148438 C 377.046875 258.621094 376.839844 259.59375 377.3125 260.324219 C 381.085938 266.167969 383.078125 272.949219 383.078125 279.945312 C 383.078125 284.644531 382.1875 289.210938 380.441406 293.527344 C 380.117188 294.332031 380.511719 295.253906 381.316406 295.582031 C 381.511719 295.660156 381.710938 295.699219 381.90625 295.699219 C 382.53125 295.699219 383.121094 295.324219 383.367188 294.707031 C 385.261719 290.015625 386.226562 285.050781 386.226562 279.945312 C 386.226562 272.34375 384.0625 264.96875 379.957031 258.613281 C 379.601562 258.066406 378.960938 257.8125 378.359375 257.917969 Z M 431.894531 257.917969 C 431.289062 257.8125 430.644531 258.066406 430.292969 258.613281 C 426.1875 264.96875 424.023438 272.34375 424.023438 279.945312 C 424.023438 285.050781 424.984375 290.015625 426.886719 294.707031 C 427.132812 295.324219 427.722656 295.699219 428.34375 295.699219 C 428.542969 295.699219 428.746094 295.660156 428.941406 295.582031 C 429.746094 295.253906 430.132812 294.332031 429.808594 293.527344 C 428.058594 289.210938 427.175781 284.644531 427.175781 279.945312 C 427.175781 272.949219 429.164062 266.167969 432.9375 260.324219 C 433.410156 259.59375 433.203125 258.621094 432.472656 258.148438 C 432.289062 258.027344 432.09375 257.953125 431.894531 257.917969 Z M 373.535156 305.140625 C 373.132812 305.140625 372.730469 305.296875 372.421875 305.605469 C 369.777344 308.238281 366.757812 310.441406 363.453125 312.148438 C 362.679688 312.550781 362.378906 313.5 362.773438 314.273438 C 363.058594 314.808594 363.605469 315.121094 364.175781 315.121094 C 364.421875 315.121094 364.667969 315.0625 364.898438 314.941406 C 368.492188 313.085938 371.769531 310.695312 374.640625 307.832031 C 375.257812 307.214844 375.261719 306.222656 374.648438 305.605469 C 374.339844 305.296875 373.9375 305.144531 373.535156 305.140625 Z M 436.714844 305.140625 C 436.3125 305.144531 435.910156 305.296875 435.601562 305.605469 C 434.988281 306.222656 434.996094 307.214844 435.609375 307.832031 C 438.480469 310.695312 441.757812 313.085938 445.351562 314.941406 C 445.582031 315.0625 445.832031 315.121094 446.074219 315.121094 C 446.644531 315.121094 447.195312 314.808594 447.476562 314.265625 C 447.871094 313.492188 447.570312 312.542969 446.800781 312.144531 C 443.492188 310.4375 440.476562 308.234375 437.828125 305.597656 C 437.523438 305.292969 437.117188 305.140625 436.714844 305.140625 Z M 327.953125 317.753906 C 327.105469 317.652344 326.308594 318.269531 326.207031 319.132812 C 325.550781 324.730469 322.976562 330.015625 318.964844 334.011719 C 318.351562 334.628906 318.351562 335.625 318.964844 336.242188 C 319.273438 336.550781 319.675781 336.703125 320.078125 336.703125 C 320.480469 336.703125 320.882812 336.550781 321.191406 336.242188 C 325.707031 331.746094 328.59375 325.804688 329.332031 319.5 C 329.4375 318.636719 328.816406 317.859375 327.953125 317.753906 Z M 482.296875 317.753906 C 481.433594 317.855469 480.8125 318.636719 480.917969 319.5 C 481.660156 325.804688 484.546875 331.753906 489.058594 336.246094 C 489.367188 336.554688 489.769531 336.707031 490.171875 336.707031 C 490.574219 336.707031 490.976562 336.550781 491.285156 336.242188 C 491.898438 335.625 491.898438 334.632812 491.285156 334.019531 C 487.273438 330.019531 484.699219 324.730469 484.042969 319.132812 C 483.941406 318.269531 483.179688 317.660156 482.296875 317.753906 Z M 307.734375 340.640625 C 307.53125 340.605469 307.320312 340.613281 307.109375 340.664062 C 304.214844 341.363281 301.132812 341.535156 298.214844 341.191406 C 297.347656 341.082031 296.570312 341.707031 296.46875 342.570312 C 296.367188 343.433594 296.984375 344.21875 297.847656 344.316406 C 298.9375 344.449219 300.054688 344.515625 301.179688 344.515625 C 303.4375 344.515625 305.679688 344.246094 307.847656 343.722656 C 308.695312 343.519531 309.21875 342.671875 309.011719 341.828125 C 308.859375 341.191406 308.335938 340.738281 307.734375 340.640625 Z M 502.523438 340.640625 C 501.921875 340.738281 501.390625 341.191406 501.238281 341.828125 C 501.035156 342.671875 501.554688 343.519531 502.402344 343.722656 C 504.570312 344.246094 506.8125 344.515625 509.070312 344.515625 C 510.195312 344.515625 511.308594 344.449219 512.402344 344.316406 C 513.265625 344.21875 513.882812 343.433594 513.78125 342.570312 C 513.679688 341.707031 512.902344 341.078125 512.035156 341.191406 C 509.125 341.535156 506.035156 341.363281 503.140625 340.664062 C 502.933594 340.613281 502.726562 340.605469 502.523438 340.640625 Z M 359.453125 347.664062 C 358.582031 347.664062 357.878906 348.371094 357.878906 349.238281 C 357.878906 350.109375 358.582031 350.816406 359.453125 350.816406 C 364.132812 350.816406 368.734375 351.574219 373.121094 353.058594 C 373.289062 353.117188 373.457031 353.140625 373.625 353.140625 C 374.28125 353.140625 374.898438 352.726562 375.121094 352.070312 C 375.398438 351.246094 374.957031 350.355469 374.132812 350.078125 C 369.417969 348.476562 364.480469 347.664062 359.453125 347.664062 Z M 450.796875 347.664062 C 445.769531 347.664062 440.835938 348.476562 436.117188 350.078125 C 435.292969 350.355469 434.851562 351.246094 435.128906 352.070312 C 435.351562 352.726562 435.96875 353.140625 436.625 353.140625 C 436.789062 353.140625 436.957031 353.117188 437.128906 353.058594 C 441.515625 351.570312 446.117188 350.816406 450.796875 350.816406 C 451.667969 350.816406 452.371094 350.109375 452.371094 349.238281 C 452.371094 348.371094 451.667969 347.664062 450.796875 347.664062 Z M 374.457031 396.503906 C 374.253906 396.539062 374.058594 396.613281 373.871094 396.726562 C 373.140625 397.191406 372.917969 398.171875 373.378906 398.90625 C 375.601562 402.421875 376.777344 406.484375 376.777344 410.660156 C 376.777344 422.820312 366.886719 432.710938 354.726562 432.710938 C 353.859375 432.710938 353.152344 433.414062 353.152344 434.285156 C 353.152344 435.15625 353.859375 435.859375 354.726562 435.859375 C 368.621094 435.859375 379.925781 424.554688 379.925781 410.660156 C 379.925781 405.886719 378.582031 401.242188 376.042969 397.21875 C 375.699219 396.671875 375.0625 396.40625 374.457031 396.503906 Z M 435.792969 396.503906 C 435.1875 396.40625 434.554688 396.667969 434.207031 397.21875 C 431.667969 401.238281 430.324219 405.886719 430.324219 410.660156 C 430.324219 424.554688 441.628906 435.859375 455.523438 435.859375 C 456.390625 435.859375 457.097656 435.15625 457.097656 434.285156 C 457.097656 433.414062 456.390625 432.710938 455.523438 432.710938 C 443.363281 432.710938 433.472656 422.820312 433.472656 410.660156 C 433.472656 406.484375 434.648438 402.421875 436.871094 398.90625 C 437.332031 398.171875 437.113281 397.195312 436.378906 396.726562 C 436.195312 396.613281 435.996094 396.539062 435.792969 396.503906 Z M 435.792969 396.503906"/></g></svg>