<svg xmlns="http://www.w3.org/2000/svg" width="810" viewBox="0 0 810 810" height="810" version="1.0"><defs><clipPath id="a"><path d="M 87.582031 0 L 722 0 L 722 810 L 87.582031 810 Z M 87.582031 0"/></clipPath></defs><g clip-path="url(#a)"><path fill="#FFFBF2" d="M 648.542969 609.066406 L 660.257812 605.019531 L 660.4375 600.757812 L 654.675781 600.644531 Z M 694.316406 565.996094 L 694.21875 571.566406 L 687.355469 579.582031 L 680.683594 585.410156 L 673.160156 589.832031 L 663.71875 593.605469 L 658.144531 594.066406 L 653.566406 593.3125 L 650.167969 594.355469 L 648.132812 600.21875 L 644.066406 597.976562 L 643.175781 597.640625 L 644.84375 605.949219 L 644.226562 612.964844 L 641.597656 619.367188 L 637.238281 625.847656 L 629.164062 633.695312 L 621.628906 636.539062 L 613.429688 637.75 L 603.359375 640.691406 L 594.910156 645.933594 L 590.703125 652.164062 L 588.839844 659.695312 L 587.417969 668.84375 L 585.09375 678.894531 L 582.1875 686.640625 L 566.089844 715.554688 L 545.96875 764.519531 L 535.148438 786.230469 L 529.214844 794.527344 L 522.960938 799.816406 L 516.699219 804.25 L 510.773438 810 L 477.957031 786.898438 L 429.210938 751.6875 L 404.464844 735.300781 L 391.726562 725.304688 L 384.738281 716.078125 L 385.289062 705.953125 L 388.09375 693.585938 L 387.394531 682.035156 L 377.441406 674.367188 L 360.523438 664.902344 L 343.601562 655.441406 L 326.679688 645.984375 L 292.839844 627.058594 L 258.996094 608.144531 L 242.074219 598.683594 L 225.152344 589.226562 L 208.238281 579.769531 L 194.445312 572.058594 L 190.4375 569.820312 L 140.554688 541.945312 L 115.441406 526.222656 L 101.777344 519.386719 L 88.578125 516.484375 L 87.710938 488.085938 L 88.839844 459.667969 L 93.355469 432.167969 L 102.65625 406.515625 L 108.734375 396.046875 L 128.878906 368.007812 L 134.714844 356.339844 L 137.890625 351.085938 L 142.726562 346.125 L 146.503906 344.167969 L 155.78125 341.078125 L 158.78125 339.136719 L 160.144531 335.714844 L 160.359375 327.109375 L 161.347656 322.925781 L 163.78125 319.058594 L 169.777344 311.886719 L 171.933594 308.105469 L 174.265625 297.117188 L 173.929688 285.621094 L 166.207031 241.722656 L 163.457031 232.328125 L 158.472656 222.5625 L 136.828125 194.050781 L 131.5625 184.304688 L 129.25 172.617188 L 129.25 151.722656 L 124.863281 142.632812 L 122.644531 141.148438 L 116.121094 138.589844 L 113.417969 137 L 111.371094 134.476562 L 111.21875 132.605469 L 111.5625 131.003906 L 111.011719 129.304688 L 102.21875 116.347656 L 94.367188 101.40625 L 118.375 77.53125 L 156.523438 39.859375 L 182.347656 14.398438 L 196.945312 0 L 199.351562 7.429688 L 207.140625 8.660156 L 217.367188 7.992188 L 227.066406 9.71875 L 236.917969 18.960938 L 237.449219 29.542969 L 235.285156 41.695312 L 237.066406 55.652344 L 244.273438 68.695312 L 253.53125 77.109375 L 265.023438 81.789062 L 314.3125 85.875 L 329.894531 90.0625 L 346.675781 98.664062 L 408.285156 138.363281 L 423.921875 145.496094 L 439.859375 149.328125 L 473.542969 154.039062 L 505.800781 160.929688 L 522.964844 162.648438 L 537.164062 160.066406 L 544.074219 154.71875 L 549.257812 147.339844 L 553.855469 139.484375 L 558.996094 132.699219 L 566.058594 127.15625 L 619.890625 100.875 L 629.015625 98.929688 L 636.90625 100.773438 L 643.199219 105.445312 L 649.199219 111.371094 L 656.222656 116.96875 L 671.589844 122.488281 L 688.101562 123.007812 L 721.949219 120.71875 L 717.21875 127.71875 L 706.480469 143.128906 L 679.058594 182.472656 L 670.851562 190.605469 L 653.332031 207.980469 L 652.039062 209.117188 L 650.902344 210.375 L 649.921875 211.757812 L 649.105469 213.25 L 649.191406 235.957031 L 649.289062 260.453125 L 649.625 345.414062 L 649.738281 376.375 L 650.070312 461.304688 L 650.136719 478.039062 L 650.167969 485.777344 L 650.222656 500.398438 L 650.285156 504.046875 L 651.238281 507.378906 L 653.046875 510.382812 L 655.6875 513.054688 L 666.441406 526.964844 L 685.820312 552.027344 L 689.878906 556.085938 L 692.789062 560.789062 L 694.316406 565.996094"/></g><g fill="#1F274C"><g><g><path d="M 36.90625 -4.859375 C 37.34375 -4.296875 37.5625 -3.632812 37.5625 -2.875 C 37.5625 -2 37.226562 -1.28125 36.5625 -0.71875 C 35.90625 -0.15625 35.15625 0.125 34.3125 0.125 C 33.519531 0.125 32.820312 -0.234375 32.21875 -0.953125 L 17.640625 -19.734375 L 10.921875 -13.375 L 10.921875 -2.9375 C 10.921875 -2.101562 10.640625 -1.40625 10.078125 -0.84375 C 9.515625 -0.28125 8.796875 0 7.921875 0 C 7.035156 0 6.320312 -0.28125 5.78125 -0.84375 C 5.25 -1.40625 4.984375 -2.101562 4.984375 -2.9375 L 4.984375 -39.125 C 4.984375 -39.914062 5.257812 -40.59375 5.8125 -41.15625 C 6.375 -41.71875 7.097656 -42 7.984375 -42 C 8.859375 -42 9.566406 -41.726562 10.109375 -41.1875 C 10.648438 -40.644531 10.921875 -39.957031 10.921875 -39.125 L 10.921875 -20.453125 L 32.21875 -41.09375 C 32.976562 -41.78125 33.738281 -42.125 34.5 -42.125 C 35.21875 -42.125 35.835938 -41.820312 36.359375 -41.21875 C 36.878906 -40.613281 37.140625 -39.972656 37.140625 -39.296875 C 37.140625 -38.703125 36.859375 -38.082031 36.296875 -37.4375 L 22.078125 -24 Z M 36.90625 -4.859375" transform="translate(314.565 385.5)"/></g></g></g><g fill="#1F274C"><g><g><path d="M 31.859375 -16.921875 C 31.816406 -16.203125 31.515625 -15.59375 30.953125 -15.09375 C 30.398438 -14.59375 29.742188 -14.34375 28.984375 -14.34375 L 7.859375 -14.34375 C 8.140625 -11.414062 9.25 -9.070312 11.1875 -7.3125 C 13.125 -5.5625 15.492188 -4.6875 18.296875 -4.6875 C 20.222656 -4.6875 21.785156 -4.960938 22.984375 -5.515625 C 24.179688 -6.078125 25.238281 -6.800781 26.15625 -7.6875 C 26.757812 -8.039062 27.34375 -8.21875 27.90625 -8.21875 C 28.582031 -8.21875 29.148438 -7.976562 29.609375 -7.5 C 30.066406 -7.019531 30.296875 -6.457031 30.296875 -5.8125 C 30.296875 -4.976562 29.894531 -4.222656 29.09375 -3.546875 C 27.9375 -2.378906 26.394531 -1.394531 24.46875 -0.59375 C 22.550781 0.195312 20.59375 0.59375 18.59375 0.59375 C 15.351562 0.59375 12.503906 -0.0820312 10.046875 -1.4375 C 7.585938 -2.800781 5.6875 -4.703125 4.34375 -7.140625 C 3.007812 -9.578125 2.34375 -12.335938 2.34375 -15.421875 C 2.34375 -18.773438 3.03125 -21.722656 4.40625 -24.265625 C 5.789062 -26.804688 7.613281 -28.753906 9.875 -30.109375 C 12.132812 -31.472656 14.5625 -32.15625 17.15625 -32.15625 C 19.71875 -32.15625 22.117188 -31.492188 24.359375 -30.171875 C 26.597656 -28.859375 28.394531 -27.039062 29.75 -24.71875 C 31.113281 -22.394531 31.816406 -19.796875 31.859375 -16.921875 Z M 17.15625 -26.875 C 14.914062 -26.875 12.972656 -26.242188 11.328125 -24.984375 C 9.691406 -23.722656 8.613281 -21.773438 8.09375 -19.140625 L 25.796875 -19.140625 L 25.796875 -19.625 C 25.597656 -21.738281 24.648438 -23.472656 22.953125 -24.828125 C 21.253906 -26.191406 19.320312 -26.875 17.15625 -26.875 Z M 17.15625 -26.875" transform="translate(354.337 385.5)"/></g></g></g><g fill="#1F274C"><g><g><path d="M 20.28125 -32.15625 C 27.476562 -32.15625 31.078125 -27.835938 31.078125 -19.203125 L 31.078125 -2.875 C 31.078125 -2.082031 30.804688 -1.40625 30.265625 -0.84375 C 29.722656 -0.28125 29.035156 0 28.203125 0 C 27.398438 0 26.726562 -0.28125 26.1875 -0.84375 C 25.644531 -1.40625 25.375 -2.082031 25.375 -2.875 L 25.375 -19.140625 C 25.375 -21.503906 24.832031 -23.382812 23.75 -24.78125 C 22.675781 -26.175781 20.921875 -26.875 18.484375 -26.875 C 16.878906 -26.875 15.425781 -26.523438 14.125 -25.828125 C 12.832031 -25.128906 11.8125 -24.1875 11.0625 -23 C 10.320312 -21.820312 9.953125 -20.535156 9.953125 -19.140625 L 9.953125 -2.875 C 9.953125 -2.082031 9.679688 -1.40625 9.140625 -0.84375 C 8.609375 -0.28125 7.921875 0 7.078125 0 C 6.234375 0 5.550781 -0.269531 5.03125 -0.8125 C 4.519531 -1.351562 4.265625 -2.039062 4.265625 -2.875 L 4.265625 -28.5625 C 4.265625 -29.363281 4.53125 -30.039062 5.0625 -30.59375 C 5.601562 -31.15625 6.273438 -31.4375 7.078125 -31.4375 C 7.921875 -31.4375 8.609375 -31.15625 9.140625 -30.59375 C 9.679688 -30.039062 9.953125 -29.363281 9.953125 -28.5625 L 9.953125 -26.453125 C 10.992188 -28.054688 12.441406 -29.40625 14.296875 -30.5 C 16.160156 -31.601562 18.15625 -32.15625 20.28125 -32.15625 Z M 20.28125 -32.15625" transform="translate(388.53 385.5)"/></g></g></g><g fill="#1F274C"><g><g><path d="M 27.65625 -31.734375 C 28.5 -31.734375 29.191406 -31.453125 29.734375 -30.890625 C 30.273438 -30.335938 30.546875 -29.660156 30.546875 -28.859375 L 30.546875 -2.9375 C 30.546875 2.0625 29.164062 5.800781 26.40625 8.28125 C 23.644531 10.757812 20.003906 12 15.484375 12 C 14.003906 12 12.539062 11.859375 11.09375 11.578125 C 9.65625 11.296875 8.476562 10.914062 7.5625 10.4375 C 6.082031 9.757812 5.34375 8.84375 5.34375 7.6875 C 5.34375 7.476562 5.378906 7.21875 5.453125 6.90625 C 5.691406 6.21875 6.03125 5.691406 6.46875 5.328125 C 6.914062 4.972656 7.421875 4.796875 7.984375 4.796875 C 8.296875 4.796875 8.59375 4.859375 8.875 4.984375 C 10.113281 5.535156 11.210938 5.972656 12.171875 6.296875 C 13.140625 6.617188 14.265625 6.78125 15.546875 6.78125 C 21.742188 6.78125 24.84375 3.597656 24.84375 -2.765625 L 24.84375 -3.953125 C 23.757812 -2.515625 22.367188 -1.394531 20.671875 -0.59375 C 18.972656 0.195312 17.019531 0.59375 14.8125 0.59375 C 11.5 0.59375 8.910156 -0.460938 7.046875 -2.578125 C 5.191406 -4.703125 4.265625 -7.484375 4.265625 -10.921875 L 4.265625 -28.859375 C 4.265625 -29.703125 4.519531 -30.390625 5.03125 -30.921875 C 5.550781 -31.460938 6.234375 -31.734375 7.078125 -31.734375 C 7.921875 -31.734375 8.609375 -31.453125 9.140625 -30.890625 C 9.679688 -30.335938 9.953125 -29.660156 9.953125 -28.859375 L 9.953125 -12.421875 C 9.953125 -9.773438 10.53125 -7.820312 11.6875 -6.5625 C 12.851562 -5.3125 14.617188 -4.6875 16.984375 -4.6875 C 19.265625 -4.6875 21.144531 -5.40625 22.625 -6.84375 C 24.101562 -8.28125 24.84375 -10.140625 24.84375 -12.421875 L 24.84375 -28.859375 C 24.84375 -29.703125 25.101562 -30.390625 25.625 -30.921875 C 26.144531 -31.460938 26.820312 -31.734375 27.65625 -31.734375 Z M 27.65625 -31.734375" transform="translate(423.864 385.5)"/></g></g></g><g fill="#1F274C"><g><g><path d="M 29.765625 -31.859375 C 30.597656 -31.859375 31.285156 -31.585938 31.828125 -31.046875 C 32.367188 -30.503906 32.640625 -29.796875 32.640625 -28.921875 L 32.640625 -2.875 C 32.640625 -2.082031 32.367188 -1.40625 31.828125 -0.84375 C 31.285156 -0.28125 30.597656 0 29.765625 0 C 28.921875 0 28.238281 -0.269531 27.71875 -0.8125 C 27.195312 -1.351562 26.9375 -2.039062 26.9375 -2.875 L 26.9375 -4.4375 C 25.894531 -3.039062 24.472656 -1.851562 22.671875 -0.875 C 20.878906 0.101562 18.941406 0.59375 16.859375 0.59375 C 14.140625 0.59375 11.671875 -0.101562 9.453125 -1.5 C 7.234375 -2.894531 5.492188 -4.84375 4.234375 -7.34375 C 2.972656 -9.84375 2.34375 -12.65625 2.34375 -15.78125 C 2.34375 -18.894531 2.972656 -21.703125 4.234375 -24.203125 C 5.492188 -26.703125 7.222656 -28.648438 9.421875 -30.046875 C 11.617188 -31.453125 14.039062 -32.15625 16.6875 -32.15625 C 18.800781 -32.15625 20.765625 -31.710938 22.578125 -30.828125 C 24.398438 -29.953125 25.851562 -28.835938 26.9375 -27.484375 L 26.9375 -28.921875 C 26.9375 -29.765625 27.195312 -30.460938 27.71875 -31.015625 C 28.238281 -31.578125 28.921875 -31.859375 29.765625 -31.859375 Z M 17.515625 -4.6875 C 19.398438 -4.6875 21.070312 -5.164062 22.53125 -6.125 C 23.988281 -7.082031 25.128906 -8.398438 25.953125 -10.078125 C 26.773438 -11.753906 27.1875 -13.65625 27.1875 -15.78125 C 27.1875 -17.863281 26.773438 -19.742188 25.953125 -21.421875 C 25.128906 -23.097656 23.988281 -24.425781 22.53125 -25.40625 C 21.070312 -26.382812 19.398438 -26.875 17.515625 -26.875 C 15.640625 -26.875 13.96875 -26.394531 12.5 -25.4375 C 11.039062 -24.476562 9.898438 -23.15625 9.078125 -21.46875 C 8.265625 -19.789062 7.859375 -17.894531 7.859375 -15.78125 C 7.859375 -13.65625 8.265625 -11.753906 9.078125 -10.078125 C 9.898438 -8.398438 11.039062 -7.082031 12.5 -6.125 C 13.96875 -5.164062 15.640625 -4.6875 17.515625 -4.6875 Z M 17.515625 -4.6875" transform="translate(458.597 385.5)"/></g></g></g><g fill="#1F274C"><g><g><path d="M 31.859375 -16.921875 C 31.816406 -16.203125 31.515625 -15.59375 30.953125 -15.09375 C 30.398438 -14.59375 29.742188 -14.34375 28.984375 -14.34375 L 7.859375 -14.34375 C 8.140625 -11.414062 9.25 -9.070312 11.1875 -7.3125 C 13.125 -5.5625 15.492188 -4.6875 18.296875 -4.6875 C 20.222656 -4.6875 21.785156 -4.960938 22.984375 -5.515625 C 24.179688 -6.078125 25.238281 -6.800781 26.15625 -7.6875 C 26.757812 -8.039062 27.34375 -8.21875 27.90625 -8.21875 C 28.582031 -8.21875 29.148438 -7.976562 29.609375 -7.5 C 30.066406 -7.019531 30.296875 -6.457031 30.296875 -5.8125 C 30.296875 -4.976562 29.894531 -4.222656 29.09375 -3.546875 C 27.9375 -2.378906 26.394531 -1.394531 24.46875 -0.59375 C 22.550781 0.195312 20.59375 0.59375 18.59375 0.59375 C 15.351562 0.59375 12.503906 -0.0820312 10.046875 -1.4375 C 7.585938 -2.800781 5.6875 -4.703125 4.34375 -7.140625 C 3.007812 -9.578125 2.34375 -12.335938 2.34375 -15.421875 C 2.34375 -18.773438 3.03125 -21.722656 4.40625 -24.265625 C 5.789062 -26.804688 7.613281 -28.753906 9.875 -30.109375 C 12.132812 -31.472656 14.5625 -32.15625 17.15625 -32.15625 C 19.71875 -32.15625 22.117188 -31.492188 24.359375 -30.171875 C 26.597656 -28.859375 28.394531 -27.039062 29.75 -24.71875 C 31.113281 -22.394531 31.816406 -19.796875 31.859375 -16.921875 Z M 17.15625 -26.875 C 14.914062 -26.875 12.972656 -26.242188 11.328125 -24.984375 C 9.691406 -23.722656 8.613281 -21.773438 8.09375 -19.140625 L 25.796875 -19.140625 L 25.796875 -19.625 C 25.597656 -21.738281 24.648438 -23.472656 22.953125 -24.828125 C 21.253906 -26.191406 19.320312 -26.875 17.15625 -26.875 Z M 17.15625 -26.875" transform="translate(281.237 468.75)"/></g></g></g><g fill="#1F274C"><g><g><path d="M 27.125 -4.4375 C 27.5625 -3.957031 27.78125 -3.398438 27.78125 -2.765625 C 27.78125 -1.960938 27.476562 -1.269531 26.875 -0.6875 C 26.28125 -0.101562 25.625 0.1875 24.90625 0.1875 C 23.976562 0.1875 23.195312 -0.234375 22.5625 -1.078125 L 14.515625 -11.21875 L 6.59375 -1.078125 C 6.320312 -0.679688 5.984375 -0.378906 5.578125 -0.171875 C 5.179688 0.0234375 4.757812 0.125 4.3125 0.125 C 3.632812 0.125 3.003906 -0.125 2.421875 -0.625 C 1.847656 -1.125 1.5625 -1.71875 1.5625 -2.40625 C 1.5625 -3.125 1.78125 -3.722656 2.21875 -4.203125 L 11.21875 -15.421875 L 1.984375 -27.0625 C 1.578125 -27.582031 1.375 -28.140625 1.375 -28.734375 C 1.375 -29.535156 1.664062 -30.21875 2.25 -30.78125 C 2.832031 -31.34375 3.503906 -31.625 4.265625 -31.625 C 5.222656 -31.625 6 -31.222656 6.59375 -30.421875 L 14.8125 -20.046875 L 22.5625 -30.359375 C 23.15625 -31.203125 23.914062 -31.625 24.84375 -31.625 C 25.601562 -31.625 26.242188 -31.375 26.765625 -30.875 C 27.285156 -30.375 27.546875 -29.78125 27.546875 -29.09375 C 27.546875 -28.332031 27.320312 -27.710938 26.875 -27.234375 L 18 -16.015625 Z M 27.125 -4.4375" transform="translate(315.43 468.75)"/></g></g></g><g fill="#1F274C"><g><g><path d="M 20.046875 -31.984375 C 22.765625 -31.984375 25.222656 -31.289062 27.421875 -29.90625 C 29.617188 -28.53125 31.347656 -26.601562 32.609375 -24.125 C 33.867188 -21.644531 34.5 -18.84375 34.5 -15.71875 C 34.5 -12.601562 33.867188 -9.8125 32.609375 -7.34375 C 31.347656 -4.882812 29.617188 -2.953125 27.421875 -1.546875 C 25.222656 -0.148438 22.800781 0.546875 20.15625 0.546875 C 18.082031 0.546875 16.144531 0.0859375 14.34375 -0.828125 C 12.539062 -1.753906 11.078125 -2.878906 9.953125 -4.203125 L 9.953125 9.125 C 9.953125 9.914062 9.679688 10.59375 9.140625 11.15625 C 8.609375 11.71875 7.921875 12 7.078125 12 C 6.273438 12 5.601562 11.726562 5.0625 11.1875 C 4.53125 10.644531 4.265625 9.957031 4.265625 9.125 L 4.265625 -28.625 C 4.265625 -29.457031 4.519531 -30.15625 5.03125 -30.71875 C 5.550781 -31.28125 6.234375 -31.5625 7.078125 -31.5625 C 7.921875 -31.5625 8.609375 -31.28125 9.140625 -30.71875 C 9.679688 -30.15625 9.953125 -29.457031 9.953125 -28.625 L 9.953125 -26.875 C 10.921875 -28.28125 12.320312 -29.484375 14.15625 -30.484375 C 16 -31.484375 17.960938 -31.984375 20.046875 -31.984375 Z M 19.375 -4.734375 C 21.21875 -4.734375 22.878906 -5.210938 24.359375 -6.171875 C 25.835938 -7.140625 26.988281 -8.453125 27.8125 -10.109375 C 28.632812 -11.765625 29.046875 -13.632812 29.046875 -15.71875 C 29.046875 -17.800781 28.632812 -19.671875 27.8125 -21.328125 C 26.988281 -22.984375 25.835938 -24.289062 24.359375 -25.25 C 22.878906 -26.21875 21.21875 -26.703125 19.375 -26.703125 C 17.5 -26.703125 15.820312 -26.226562 14.34375 -25.28125 C 12.863281 -24.34375 11.710938 -23.035156 10.890625 -21.359375 C 10.066406 -19.679688 9.65625 -17.800781 9.65625 -15.71875 C 9.65625 -13.632812 10.066406 -11.753906 10.890625 -10.078125 C 11.710938 -8.398438 12.863281 -7.085938 14.34375 -6.140625 C 15.820312 -5.203125 17.5 -4.734375 19.375 -4.734375 Z M 19.375 -4.734375" transform="translate(344.584 468.75)"/></g></g></g><g fill="#1F274C"><g><g><path d="M 10.4375 -2.875 C 10.4375 -2.082031 10.15625 -1.40625 9.59375 -0.84375 C 9.039062 -0.28125 8.363281 0 7.5625 0 C 6.757812 0 6.085938 -0.28125 5.546875 -0.84375 C 5.003906 -1.40625 4.734375 -2.082031 4.734375 -2.875 L 4.734375 -41.515625 C 4.734375 -42.316406 5.015625 -43 5.578125 -43.5625 C 6.140625 -44.125 6.820312 -44.40625 7.625 -44.40625 C 8.414062 -44.40625 9.082031 -44.125 9.625 -43.5625 C 10.164062 -43 10.4375 -42.316406 10.4375 -41.515625 Z M 10.4375 -2.875" transform="translate(381.417 468.75)"/></g></g></g><g fill="#1F274C"><g><g><path d="M 34.015625 -15.71875 C 34.015625 -12.601562 33.3125 -9.800781 31.90625 -7.3125 C 30.507812 -4.832031 28.601562 -2.894531 26.1875 -1.5 C 23.769531 -0.101562 21.101562 0.59375 18.1875 0.59375 C 15.257812 0.59375 12.585938 -0.101562 10.171875 -1.5 C 7.753906 -2.894531 5.84375 -4.832031 4.4375 -7.3125 C 3.039062 -9.800781 2.34375 -12.601562 2.34375 -15.71875 C 2.34375 -18.84375 3.039062 -21.660156 4.4375 -24.171875 C 5.84375 -26.691406 7.753906 -28.648438 10.171875 -30.046875 C 12.585938 -31.453125 15.257812 -32.15625 18.1875 -32.15625 C 21.101562 -32.15625 23.769531 -31.453125 26.1875 -30.046875 C 28.601562 -28.648438 30.507812 -26.691406 31.90625 -24.171875 C 33.3125 -21.660156 34.015625 -18.84375 34.015625 -15.71875 Z M 28.3125 -15.71875 C 28.3125 -17.875 27.863281 -19.800781 26.96875 -21.5 C 26.070312 -23.207031 24.851562 -24.53125 23.3125 -25.46875 C 21.769531 -26.40625 20.0625 -26.875 18.1875 -26.875 C 16.300781 -26.875 14.585938 -26.40625 13.046875 -25.46875 C 11.503906 -24.53125 10.285156 -23.207031 9.390625 -21.5 C 8.492188 -19.800781 8.046875 -17.875 8.046875 -15.71875 C 8.046875 -13.601562 8.492188 -11.703125 9.390625 -10.015625 C 10.285156 -8.335938 11.503906 -7.03125 13.046875 -6.09375 C 14.585938 -5.15625 16.300781 -4.6875 18.1875 -4.6875 C 20.0625 -4.6875 21.769531 -5.15625 23.3125 -6.09375 C 24.851562 -7.03125 26.070312 -8.335938 26.96875 -10.015625 C 27.863281 -11.703125 28.3125 -13.601562 28.3125 -15.71875 Z M 28.3125 -15.71875" transform="translate(396.594 468.75)"/></g></g></g><g fill="#1F274C"><g><g><path d="M 19.921875 -32.15625 C 20.960938 -32.15625 21.863281 -31.882812 22.625 -31.34375 C 23.382812 -30.8125 23.765625 -30.144531 23.765625 -29.34375 C 23.765625 -28.382812 23.515625 -27.65625 23.015625 -27.15625 C 22.515625 -26.65625 21.90625 -26.40625 21.1875 -26.40625 C 20.820312 -26.40625 20.28125 -26.523438 19.5625 -26.765625 C 18.71875 -27.046875 18.054688 -27.1875 17.578125 -27.1875 C 16.335938 -27.1875 15.128906 -26.753906 13.953125 -25.890625 C 12.773438 -25.023438 11.8125 -23.84375 11.0625 -22.34375 C 10.320312 -20.84375 9.953125 -19.175781 9.953125 -17.34375 L 9.953125 -2.875 C 9.953125 -2.082031 9.679688 -1.40625 9.140625 -0.84375 C 8.609375 -0.28125 7.921875 0 7.078125 0 C 6.234375 0 5.550781 -0.269531 5.03125 -0.8125 C 4.519531 -1.351562 4.265625 -2.039062 4.265625 -2.875 L 4.265625 -28.5625 C 4.265625 -29.363281 4.53125 -30.039062 5.0625 -30.59375 C 5.601562 -31.15625 6.273438 -31.4375 7.078125 -31.4375 C 7.921875 -31.4375 8.609375 -31.15625 9.140625 -30.59375 C 9.679688 -30.039062 9.953125 -29.363281 9.953125 -28.5625 L 9.953125 -25.5 C 10.835938 -27.457031 12.160156 -29.046875 13.921875 -30.265625 C 15.679688 -31.484375 17.679688 -32.113281 19.921875 -32.15625 Z M 19.921875 -32.15625" transform="translate(432.947 468.75)"/></g></g></g><g fill="#1F274C"><g><g><path d="M 31.859375 -16.921875 C 31.816406 -16.203125 31.515625 -15.59375 30.953125 -15.09375 C 30.398438 -14.59375 29.742188 -14.34375 28.984375 -14.34375 L 7.859375 -14.34375 C 8.140625 -11.414062 9.25 -9.070312 11.1875 -7.3125 C 13.125 -5.5625 15.492188 -4.6875 18.296875 -4.6875 C 20.222656 -4.6875 21.785156 -4.960938 22.984375 -5.515625 C 24.179688 -6.078125 25.238281 -6.800781 26.15625 -7.6875 C 26.757812 -8.039062 27.34375 -8.21875 27.90625 -8.21875 C 28.582031 -8.21875 29.148438 -7.976562 29.609375 -7.5 C 30.066406 -7.019531 30.296875 -6.457031 30.296875 -5.8125 C 30.296875 -4.976562 29.894531 -4.222656 29.09375 -3.546875 C 27.9375 -2.378906 26.394531 -1.394531 24.46875 -0.59375 C 22.550781 0.195312 20.59375 0.59375 18.59375 0.59375 C 15.351562 0.59375 12.503906 -0.0820312 10.046875 -1.4375 C 7.585938 -2.800781 5.6875 -4.703125 4.34375 -7.140625 C 3.007812 -9.578125 2.34375 -12.335938 2.34375 -15.421875 C 2.34375 -18.773438 3.03125 -21.722656 4.40625 -24.265625 C 5.789062 -26.804688 7.613281 -28.753906 9.875 -30.109375 C 12.132812 -31.472656 14.5625 -32.15625 17.15625 -32.15625 C 19.71875 -32.15625 22.117188 -31.492188 24.359375 -30.171875 C 26.597656 -28.859375 28.394531 -27.039062 29.75 -24.71875 C 31.113281 -22.394531 31.816406 -19.796875 31.859375 -16.921875 Z M 17.15625 -26.875 C 14.914062 -26.875 12.972656 -26.242188 11.328125 -24.984375 C 9.691406 -23.722656 8.613281 -21.773438 8.09375 -19.140625 L 25.796875 -19.140625 L 25.796875 -19.625 C 25.597656 -21.738281 24.648438 -23.472656 22.953125 -24.828125 C 21.253906 -26.191406 19.320312 -26.875 17.15625 -26.875 Z M 17.15625 -26.875" transform="translate(457.722 468.75)"/></g></g></g><g fill="#1F274C"><g><g><path d="M 29.765625 -44.40625 C 30.597656 -44.40625 31.285156 -44.132812 31.828125 -43.59375 C 32.367188 -43.050781 32.640625 -42.359375 32.640625 -41.515625 L 32.640625 -2.875 C 32.640625 -2.082031 32.367188 -1.40625 31.828125 -0.84375 C 31.285156 -0.28125 30.597656 0 29.765625 0 C 28.921875 0 28.238281 -0.269531 27.71875 -0.8125 C 27.195312 -1.351562 26.9375 -2.039062 26.9375 -2.875 L 26.9375 -4.5625 C 25.9375 -3.125 24.523438 -1.90625 22.703125 -0.90625 C 20.890625 0.09375 18.941406 0.59375 16.859375 0.59375 C 14.140625 0.59375 11.679688 -0.101562 9.484375 -1.5 C 7.285156 -2.894531 5.546875 -4.84375 4.265625 -7.34375 C 2.984375 -9.84375 2.34375 -12.65625 2.34375 -15.78125 C 2.34375 -18.894531 2.972656 -21.703125 4.234375 -24.203125 C 5.492188 -26.703125 7.222656 -28.648438 9.421875 -30.046875 C 11.617188 -31.453125 14.039062 -32.15625 16.6875 -32.15625 C 18.800781 -32.15625 20.757812 -31.710938 22.5625 -30.828125 C 24.363281 -29.953125 25.820312 -28.816406 26.9375 -27.421875 L 26.9375 -41.515625 C 26.9375 -42.359375 27.195312 -43.050781 27.71875 -43.59375 C 28.238281 -44.132812 28.921875 -44.40625 29.765625 -44.40625 Z M 17.515625 -4.6875 C 19.398438 -4.6875 21.070312 -5.164062 22.53125 -6.125 C 23.988281 -7.082031 25.128906 -8.398438 25.953125 -10.078125 C 26.773438 -11.753906 27.1875 -13.65625 27.1875 -15.78125 C 27.1875 -17.863281 26.773438 -19.753906 25.953125 -21.453125 C 25.128906 -23.148438 23.988281 -24.476562 22.53125 -25.4375 C 21.070312 -26.394531 19.398438 -26.875 17.515625 -26.875 C 15.640625 -26.875 13.96875 -26.394531 12.5 -25.4375 C 11.039062 -24.476562 9.898438 -23.148438 9.078125 -21.453125 C 8.265625 -19.753906 7.859375 -17.863281 7.859375 -15.78125 C 7.859375 -13.65625 8.265625 -11.753906 9.078125 -10.078125 C 9.898438 -8.398438 11.039062 -7.082031 12.5 -6.125 C 13.96875 -5.164062 15.640625 -4.6875 17.515625 -4.6875 Z M 17.515625 -4.6875" transform="translate(491.916 468.75)"/></g></g></g></svg>