<svg xmlns="http://www.w3.org/2000/svg" xmlns:xlink="http://www.w3.org/1999/xlink" width="1080" zoomAndPan="magnify" viewBox="0 0 810 809.999993" height="1080" preserveAspectRatio="xMidYMid meet" version="1.0"><defs><g/></defs><rect x="-81" width="972" fill="rgb(100%, 100%, 100%)" y="-80.999999" height="971.999992" fill-opacity="1"/><rect x="-81" width="972" fill="rgb(79.60968%, 79.998779%, 90.589905%)" y="-80.999999" height="971.999992" fill-opacity="1"/><rect x="-81" width="972" fill="rgb(100%, 100%, 100%)" y="-80.999999" height="971.999992" fill-opacity="1"/><rect x="-81" width="972" fill="rgb(79.60968%, 79.998779%, 90.589905%)" y="-80.999999" height="971.999992" fill-opacity="1"/><path fill="rgb(100%, 98.429871%, 94.898987%)" d="M 405 182.25 C 281.980469 182.25 182.25 281.980469 182.25 405 C 182.25 528.019531 281.980469 627.75 405 627.75 C 528.019531 627.75 627.75 528.019531 627.75 405 C 627.75 281.980469 528.019531 182.25 405 182.25 " fill-opacity="1" fill-rule="nonzero"/><g fill="rgb(0%, 0%, 0%)" fill-opacity="1"><g transform="translate(185.694134, 594.976862)"><g><path d="M 52.5 -53.851562 C 52.949219 -53.851562 53.398438 -54 53.851562 -54.300781 C 54.898438 -54.75 55.5 -55.800781 56.398438 -56.398438 C 57.601562 -57 58.351562 -57.898438 59.398438 -58.648438 C 60.300781 -59.550781 60.601562 -60.75 61.949219 -61.050781 C 62.25 -61.949219 62.550781 -62.699219 63.601562 -62.699219 C 63.898438 -62.699219 64.199219 -63 64.199219 -63.300781 C 64.648438 -64.351562 65.851562 -64.800781 66.148438 -65.699219 C 66.300781 -66.898438 67.050781 -67.648438 67.5 -68.550781 C 67.800781 -69.148438 67.949219 -69.75 67.5 -70.351562 C 67.351562 -70.5 67.5 -70.949219 67.800781 -70.949219 C 67.949219 -70.800781 68.101562 -70.800781 68.25 -70.800781 C 68.550781 -70.800781 68.851562 -71.101562 69 -71.398438 C 69.898438 -73.199219 70.648438 -75 71.398438 -76.800781 C 72.449219 -78.75 72.898438 -80.699219 73.648438 -82.648438 C 74.398438 -84.449219 74.398438 -86.398438 75.148438 -88.199219 C 75.898438 -90.148438 75 -92.25 75.898438 -94.050781 C 76.050781 -94.199219 75.898438 -94.5 75.898438 -94.648438 C 75.449219 -95.25 75.601562 -96 75.449219 -96.601562 C 75.148438 -98.699219 75 -100.949219 73.351562 -102.601562 C 73.199219 -102.75 73.199219 -102.898438 73.050781 -103.199219 C 71.25 -107.25 65.101562 -109.351562 61.050781 -109.800781 C 60.601562 -109.800781 60.300781 -109.800781 59.851562 -109.800781 C 57.449219 -109.800781 54.898438 -109.199219 52.5 -109.199219 C 52.351562 -109.199219 52.351562 -109.050781 52.199219 -109.050781 C 45.449219 -107.398438 36.300781 -102.75 31.5 -97.949219 C 31.050781 -97.351562 30.148438 -96.898438 29.550781 -96.300781 C 28.199219 -94.949219 26.550781 -93.898438 25.351562 -92.25 C 24.449219 -90.898438 23.25 -89.851562 22.5 -88.648438 C 21.75 -87.148438 20.25 -86.398438 19.351562 -85.050781 C 18.300781 -83.699219 17.25 -82.5 16.648438 -80.851562 C 16.199219 -79.648438 15.449219 -78.601562 14.699219 -77.699219 C 13.5 -76.5 12.75 -75.300781 12.148438 -73.949219 C 10.199219 -70.199219 9 -66 7.648438 -61.949219 C 7.5 -61.800781 7.5 -61.5 7.648438 -61.351562 C 7.648438 -61.199219 7.949219 -61.050781 8.101562 -60.75 C 8.101562 -61.050781 8.101562 -61.351562 8.25 -61.5 C 8.25 -61.648438 8.25 -61.648438 8.398438 -61.800781 C 8.398438 -61.648438 8.550781 -61.5 8.550781 -61.351562 C 8.550781 -61.050781 8.398438 -60.898438 8.101562 -60.75 C 8.101562 -60.300781 8.101562 -59.851562 8.101562 -59.25 C 8.101562 -58.949219 7.800781 -58.648438 7.5 -58.5 C 7.5 -57.601562 7.351562 -56.699219 7.050781 -55.800781 C 6.148438 -53.398438 5.851562 -50.851562 5.25 -48.300781 C 5.101562 -48 5.101562 -47.550781 5.398438 -47.25 C 6 -47.550781 5.699219 -48.300781 6 -48.75 C 6.300781 -49.050781 6.300781 -49.351562 6.300781 -49.800781 C 7.351562 -55.199219 10.648438 -63.300781 14.101562 -67.648438 C 14.25 -67.949219 14.398438 -68.398438 14.699219 -68.699219 C 17.101562 -72.601562 19.648438 -76.5 22.351562 -80.398438 C 23.101562 -81.601562 24.148438 -82.800781 24.898438 -84 C 25.199219 -84.601562 25.648438 -85.050781 26.101562 -85.351562 C 27.75 -86.699219 28.648438 -88.949219 30.601562 -90 C 30.898438 -90.148438 31.050781 -90.601562 31.199219 -91.050781 C 31.949219 -91.949219 32.851562 -92.851562 33.898438 -93.601562 C 34.351562 -93.898438 34.800781 -94.199219 35.25 -94.648438 C 36.449219 -95.550781 37.5 -96.75 38.851562 -97.5 C 40.199219 -98.25 41.25 -99.148438 42.449219 -100.050781 C 43.351562 -100.800781 44.25 -101.25 45.148438 -101.699219 C 50.550781 -104.851562 55.648438 -106.351562 61.949219 -106.351562 C 63 -106.199219 66.148438 -105.601562 66.75 -104.699219 C 68.398438 -102.601562 69.300781 -100.050781 69.75 -97.5 C 70.199219 -94.351562 69.75 -91.351562 69 -88.351562 C 67.351562 -81.148438 64.949219 -76.050781 61.648438 -69.300781 C 60.601562 -67.199219 59.699219 -65.101562 57.898438 -63.601562 C 57.75 -63.449219 57.75 -63.148438 57.601562 -63.148438 C 56.25 -61.5 55.050781 -59.699219 53.550781 -58.199219 C 47.699219 -52.351562 39.75 -48.300781 32.25 -45.148438 C 31.648438 -45 31.050781 -44.851562 30.75 -44.398438 C 30.300781 -44.101562 29.398438 -44.398438 29.25 -43.5 C 29.550781 -43.5 30 -43.5 30.300781 -43.5 C 30.75 -43.5 31.199219 -43.5 31.800781 -43.800781 C 32.699219 -44.25 33.898438 -44.699219 34.949219 -45.148438 C 38.699219 -46.648438 42.449219 -48.300781 45.898438 -50.550781 C 46.648438 -51.148438 47.398438 -51.601562 48.300781 -52.050781 C 48.601562 -52.351562 49.050781 -52.648438 49.351562 -52.949219 C 51.300781 -54.898438 53.699219 -56.25 55.351562 -58.199219 C 55.5 -58.351562 55.800781 -58.351562 55.949219 -58.5 C 55.949219 -58.800781 56.101562 -59.101562 56.550781 -59.101562 C 56.550781 -59.25 56.699219 -59.398438 56.699219 -59.550781 C 57 -59.101562 56.550781 -59.25 56.398438 -59.101562 C 56.398438 -58.800781 56.25 -58.5 55.949219 -58.5 C 55.949219 -58.050781 55.800781 -57.601562 55.5 -57.300781 C 54.449219 -56.101562 53.25 -55.199219 52.5 -53.851562 Z M 9.300781 -63.75 C 9.148438 -63.449219 9 -63 9 -62.699219 C 8.851562 -62.851562 8.699219 -63 8.699219 -63.148438 C 8.851562 -63.449219 9 -63.601562 9.300781 -63.601562 C 9.300781 -64.050781 9.300781 -64.5 9.300781 -64.800781 C 9.300781 -64.949219 9.449219 -64.949219 9.601562 -65.101562 C 9.601562 -64.949219 9.75 -64.800781 9.75 -64.648438 C 9.75 -64.199219 9.601562 -63.898438 9.300781 -63.75 Z M 62.25 -64.800781 C 61.199219 -65.101562 60.898438 -65.550781 61.199219 -66.300781 C 61.5 -66.601562 61.800781 -67.050781 62.25 -67.199219 C 62.25 -68.101562 62.699219 -69 63.449219 -69.601562 C 63.449219 -69.75 63.601562 -69.75 63.75 -69.75 C 64.050781 -69.75 64.199219 -69.601562 64.351562 -69.75 C 64.648438 -70.050781 64.648438 -70.5 64.949219 -70.648438 C 65.851562 -71.25 65.699219 -72.300781 66 -73.050781 C 66.300781 -73.5 64.949219 -73.351562 65.550781 -74.101562 C 66.601562 -75.449219 66.898438 -77.398438 67.351562 -79.050781 C 68.101562 -81.148438 68.550781 -83.398438 69.300781 -85.5 C 69.449219 -86.25 69.601562 -87.300781 70.648438 -87.601562 C 71.101562 -87 70.800781 -86.398438 70.648438 -85.800781 C 70.050781 -83.101562 69.449219 -80.398438 68.398438 -77.851562 C 68.101562 -77.101562 68.699219 -76.949219 69 -76.5 C 68.699219 -76.199219 68.398438 -75.898438 67.949219 -75.449219 C 67.648438 -75.148438 67.5 -74.699219 67.351562 -74.25 C 67.351562 -73.351562 67.648438 -72.449219 66.449219 -72.148438 C 66.898438 -71.25 66 -70.648438 66 -70.050781 C 66 -69.148438 65.699219 -68.699219 65.25 -68.101562 C 64.800781 -67.199219 64.351562 -66.898438 63.75 -66.898438 C 63.300781 -66.898438 63 -67.050781 62.550781 -67.199219 C 62.398438 -67.199219 62.25 -67.199219 62.25 -67.199219 C 62.25 -66.449219 62.25 -65.550781 62.25 -64.800781 C 63.300781 -64.648438 63.300781 -64.648438 63 -64.050781 C 62.851562 -63.75 62.851562 -63.601562 62.699219 -63.449219 C 62.25 -63.300781 62.101562 -63.300781 61.949219 -63.300781 C 61.949219 -63.300781 61.800781 -63.449219 61.800781 -63.601562 C 61.648438 -64.050781 62.25 -64.351562 62.25 -64.800781 Z M 70.351562 -77.398438 C 70.351562 -77.550781 70.5 -77.699219 70.648438 -77.851562 C 70.949219 -77.699219 70.800781 -77.101562 70.648438 -77.101562 C 70.5 -77.101562 70.351562 -77.25 70.351562 -77.398438 Z M 9.898438 -66.449219 C 9.898438 -66.601562 10.050781 -66.75 10.199219 -66.898438 C 10.199219 -66.75 10.351562 -66.449219 10.199219 -66.449219 C 10.199219 -66.148438 10.050781 -66.148438 9.898438 -66.449219 Z M 63.148438 -65.699219 L 63 -65.699219 L 63.148438 -65.851562 Z M 10.648438 -68.101562 L 10.800781 -68.101562 L 10.648438 -67.949219 Z M 57.449219 -60.449219 L 57.300781 -60.449219 L 57.300781 -60.601562 Z M 1.800781 -27.449219 C 1.800781 -28.648438 1.648438 -30 2.101562 -31.800781 C 2.398438 -30 2.398438 -28.800781 2.101562 -27.75 C 2.101562 -27.601562 1.949219 -27.449219 1.800781 -27.449219 C 1.800781 -27.148438 1.800781 -27 1.800781 -26.851562 C 2.398438 -26.25 2.398438 -26.25 1.800781 -25.648438 C 1.800781 -21.449219 1.648438 -17.101562 1.648438 -12.75 C 1.199219 -12.75 1.199219 -13.050781 1.199219 -13.351562 C 1.199219 -17.101562 1.199219 -20.699219 1.199219 -24.449219 C 1.199219 -25.050781 1.199219 -25.5 1.800781 -25.648438 C 1.800781 -26.101562 1.800781 -26.398438 1.800781 -26.851562 C 1.5 -26.851562 1.199219 -26.851562 0.898438 -26.699219 C 0.75 -26.550781 0.601562 -26.25 0.601562 -25.949219 C 0.601562 -23.699219 0.601562 -21.449219 0.601562 -19.351562 C 0.601562 -18.75 0.75 -18.148438 0.449219 -17.550781 C 0.148438 -16.800781 -0.148438 -16.050781 0.300781 -15.148438 C 0 -14.25 0.148438 -13.5 0 -12.601562 C 0 -10.050781 0.601562 -6.898438 1.351562 -4.5 C 1.5 -4.199219 1.648438 -3.75 1.800781 -3.449219 C 2.25 -1.648438 2.699219 0.148438 4.050781 1.800781 C 4.800781 2.699219 5.398438 3.898438 6.148438 5.101562 C 6.601562 5.699219 6.898438 6.148438 7.351562 6.75 C 7.5 7.050781 7.800781 7.050781 7.949219 7.050781 C 8.25 7.050781 8.398438 7.050781 8.699219 6.898438 C 9.449219 6.601562 10.050781 6.148438 10.5 5.25 C 10.800781 4.5 11.25 3.898438 11.699219 3.300781 C 12.601562 2.398438 13.050781 1.5 13.351562 0.300781 C 13.648438 -0.75 14.101562 -1.800781 14.699219 -2.699219 C 15.300781 -3.601562 15.300781 -4.949219 15.601562 -6 C 15.75 -6.300781 15.898438 -6.601562 16.050781 -6.75 C 16.800781 -7.351562 16.800781 -8.25 17.101562 -9.148438 C 17.398438 -9.898438 17.25 -10.800781 17.550781 -11.550781 C 17.699219 -12.449219 18.148438 -13.199219 18.449219 -13.949219 C 18.75 -14.550781 18.898438 -15 19.050781 -15.601562 C 19.949219 -19.5 21.148438 -23.398438 22.351562 -27.300781 C 22.648438 -28.351562 23.25 -29.25 23.101562 -30.300781 C 23.101562 -30.898438 23.25 -31.351562 23.550781 -31.648438 C 24.300781 -32.550781 24.601562 -33.601562 24.75 -34.5 C 24.898438 -35.398438 25.050781 -36 25.351562 -36.75 C 25.949219 -39 26.699219 -41.25 27.449219 -43.5 C 27.449219 -43.800781 27.601562 -44.101562 27.601562 -44.398438 C 27.449219 -45.898438 28.199219 -47.398438 28.648438 -48.75 C 29.25 -51.300781 29.851562 -54 30.449219 -56.550781 C 31.050781 -58.648438 31.351562 -60.898438 31.800781 -63 C 32.25 -65.101562 32.699219 -67.351562 33.75 -69.601562 C 34.199219 -70.648438 34.351562 -72.148438 34.5 -73.351562 C 34.648438 -73.800781 34.5 -74.101562 34.351562 -74.550781 C 34.050781 -75.601562 33.300781 -76.351562 32.550781 -76.949219 C 32.101562 -77.398438 31.5 -77.550781 30.898438 -77.550781 C 29.699219 -77.550781 28.5 -76.800781 28.199219 -75.449219 C 27.75 -73.5 27.601562 -71.398438 27 -69.300781 C 26.550781 -67.648438 26.398438 -65.851562 25.949219 -64.050781 C 25.5 -61.5 25.199219 -58.949219 24.601562 -56.550781 C 24.449219 -55.800781 24.300781 -55.199219 24.148438 -54.601562 C 24 -53.25 23.699219 -51.898438 23.398438 -50.699219 C 22.351562 -47.101562 21.300781 -43.5 20.25 -40.050781 C 19.050781 -35.851562 18 -31.800781 16.5 -27.75 C 14.851562 -23.101562 13.5 -18.300781 12.300781 -13.5 C 11.25 -9.75 9.75 -6.148438 8.25 -2.550781 C 8.101562 -2.25 7.949219 -1.800781 7.800781 -1.5 C 7.199219 -0.898438 6.75 -0.449219 6.300781 -0.449219 C 6 -0.449219 5.550781 -0.75 5.101562 -1.648438 C 4.800781 -2.550781 3.898438 -3.449219 4.648438 -4.5 C 4.5 -5.25 4.199219 -5.851562 4.199219 -6.449219 C 4.199219 -8.550781 3.148438 -10.351562 3.449219 -12.449219 C 2.699219 -13.800781 3 -15.449219 2.851562 -16.949219 C 2.851562 -19.648438 2.851562 -22.351562 3 -25.050781 C 3 -26.398438 2.699219 -27.898438 3.449219 -29.25 C 3.601562 -29.699219 3.449219 -30.300781 3.449219 -30.898438 C 3.449219 -31.5 3.300781 -32.101562 3.601562 -32.699219 C 4.199219 -33.898438 3.898438 -35.25 4.050781 -36.601562 C 4.050781 -37.199219 4.050781 -37.949219 4.199219 -38.550781 C 4.800781 -40.199219 4.648438 -42 5.101562 -43.648438 C 5.398438 -44.25 5.398438 -45 4.949219 -45.601562 C 4.5 -45.300781 4.648438 -44.851562 4.648438 -44.398438 C 4.648438 -43.949219 4.5 -43.648438 4.050781 -43.5 C 3.898438 -42.449219 4.199219 -41.25 3.601562 -40.199219 C 3.601562 -37.949219 2.550781 -35.851562 2.851562 -33.449219 C 2.851562 -33.148438 3 -32.550781 2.398438 -32.25 C 2.101562 -33.449219 2.550781 -34.648438 2.101562 -35.851562 C 1.648438 -35.101562 1.800781 -34.5 1.800781 -33.75 C 1.648438 -33.300781 1.800781 -32.851562 1.648438 -32.398438 C 0.898438 -30.898438 1.351562 -29.398438 1.199219 -27.898438 C 1.199219 -27.75 1.648438 -27.601562 1.800781 -27.449219 Z M 17.851562 -20.550781 C 17.851562 -20.101562 17.699219 -19.949219 17.25 -19.949219 C 17.398438 -18.75 16.648438 -18.300781 15.898438 -17.699219 C 15.75 -17.699219 15.449219 -17.550781 15.300781 -17.550781 C 15 -17.550781 14.851562 -17.699219 14.851562 -17.699219 C 14.550781 -18 14.851562 -18.300781 14.851562 -18.449219 C 15.148438 -18.898438 14.851562 -19.648438 15.601562 -19.949219 C 15.601562 -20.398438 15.75 -20.851562 15.75 -21.601562 C 16.351562 -20.851562 16.351562 -20.25 15.601562 -19.949219 C 15.75 -19.5 15.898438 -19.351562 16.199219 -19.351562 C 16.351562 -19.351562 16.5 -19.351562 16.648438 -19.5 C 16.800781 -19.648438 17.101562 -19.800781 17.398438 -19.949219 C 17.398438 -20.25 17.550781 -20.398438 17.851562 -20.398438 C 18 -20.550781 18 -20.699219 18.148438 -20.851562 C 18.449219 -20.550781 18 -20.550781 17.851562 -20.550781 Z M 12.148438 -2.550781 C 12.148438 -2.851562 12.148438 -3.148438 12.148438 -3.300781 C 12.300781 -3.449219 12.300781 -3.449219 12.449219 -3.601562 C 12.449219 -3.449219 12.601562 -3.300781 12.601562 -3.148438 C 12.449219 -3 12.300781 -2.851562 12.148438 -2.699219 C 12.148438 -2.101562 12.148438 -1.648438 11.550781 -1.5 C 11.550781 -1.199219 11.398438 -1.050781 11.25 -0.601562 C 11.25 -0.75 10.949219 -0.898438 11.101562 -0.898438 C 11.25 -1.199219 11.398438 -1.351562 11.550781 -1.5 C 11.550781 -1.800781 11.550781 -2.25 11.550781 -2.699219 C 11.398438 -2.550781 11.101562 -2.398438 10.800781 -2.25 C 10.648438 -2.101562 10.351562 -2.101562 10.050781 -2.25 C 10.050781 -2.398438 9.898438 -2.699219 9.898438 -2.851562 C 10.050781 -3.300781 10.351562 -3.898438 10.5 -4.351562 C 10.648438 -4.949219 11.101562 -4.949219 11.550781 -4.949219 C 11.398438 -5.25 11.398438 -5.550781 11.25 -6 C 11.699219 -6.148438 12 -6.148438 12.449219 -6.148438 C 12.898438 -6.148438 13.351562 -6.148438 13.648438 -5.851562 C 13.351562 -5.101562 12.75 -4.949219 12 -4.949219 C 11.851562 -4.949219 11.699219 -4.949219 11.550781 -4.949219 C 11.25 -4.351562 11.25 -3.75 11.550781 -3.148438 C 11.550781 -3 11.550781 -2.851562 11.550781 -2.550781 C 11.699219 -2.550781 12 -2.550781 12.148438 -2.550781 Z M 24.300781 -47.550781 C 24.300781 -48 24.300781 -48.601562 24.449219 -49.351562 C 24.898438 -48.449219 25.050781 -47.851562 24.148438 -47.550781 C 24.148438 -46.648438 24.449219 -45.75 23.851562 -44.851562 C 23.550781 -44.851562 23.550781 -44.851562 23.398438 -44.851562 C 23.699219 -45.75 23.25 -46.800781 24.300781 -47.550781 Z M 19.648438 -31.949219 C 19.648438 -32.101562 19.800781 -32.25 19.800781 -32.398438 C 20.25 -31.949219 19.800781 -32.101562 19.648438 -32.101562 C 19.648438 -30.75 19.648438 -30.75 20.398438 -29.851562 C 20.25 -29.699219 19.949219 -29.699219 19.648438 -29.699219 C 19.351562 -29.699219 19.050781 -29.699219 18.75 -29.851562 C 18.898438 -30.601562 19.199219 -31.199219 19.351562 -31.949219 C 19.351562 -31.949219 19.5 -31.949219 19.648438 -31.949219 Z M 21.300781 -36 C 21.148438 -36.148438 21 -36.300781 20.851562 -36.300781 C 20.699219 -37.351562 20.550781 -38.25 21.300781 -39 C 21.75 -39.601562 21.898438 -40.199219 22.050781 -40.800781 C 22.199219 -41.101562 22.648438 -41.25 22.800781 -40.949219 C 22.800781 -40.800781 22.949219 -40.648438 22.949219 -40.5 C 22.351562 -39 21.601562 -37.648438 21.300781 -36 C 21.449219 -36 21.601562 -35.851562 21.75 -35.851562 C 21.300781 -35.398438 21.449219 -35.851562 21.300781 -36 Z M 15.75 -11.699219 C 15.148438 -10.351562 13.949219 -9.898438 12.601562 -9.601562 C 12.449219 -9.898438 12.449219 -9.898438 12.449219 -10.050781 C 12.75 -10.800781 13.800781 -10.800781 14.25 -11.699219 C 14.398438 -11.851562 14.550781 -12 14.851562 -12 C 15.148438 -12 15.601562 -11.851562 15.75 -11.699219 Z M 18.898438 -23.25 C 18.75 -22.800781 18.601562 -22.5 18.449219 -22.199219 C 18.300781 -21.898438 18 -21.601562 17.699219 -21.75 C 17.25 -21.898438 16.800781 -22.199219 16.5 -22.5 C 16.351562 -22.5 16.351562 -22.800781 16.351562 -22.949219 C 16.351562 -23.101562 16.648438 -23.25 16.648438 -23.25 C 16.949219 -23.25 17.101562 -23.25 17.398438 -23.25 C 17.851562 -23.25 18.300781 -23.25 18.898438 -23.25 Z M 20.398438 -35.550781 C 20.851562 -34.800781 21 -34.351562 21.148438 -33.898438 C 20.699219 -33.75 20.25 -33.601562 19.949219 -33.300781 C 19.5 -34.199219 20.25 -34.5 20.398438 -35.550781 Z M 17.851562 -26.699219 C 17.851562 -26.550781 17.851562 -26.398438 17.851562 -26.398438 C 17.851562 -26.25 17.699219 -26.101562 17.699219 -25.949219 C 17.550781 -26.101562 17.398438 -26.101562 17.398438 -26.25 C 17.25 -26.398438 17.398438 -26.398438 17.398438 -26.550781 C 17.398438 -26.699219 17.398438 -27 17.699219 -27 C 17.699219 -27 17.851562 -26.851562 17.851562 -26.699219 Z M 18.601562 -28.199219 C 18.898438 -28.199219 19.199219 -28.050781 19.351562 -27.898438 C 19.5 -27.75 19.351562 -27.601562 19.199219 -27.449219 C 19.050781 -27.449219 18.898438 -27.449219 18.898438 -27.449219 C 18.601562 -27.601562 18.449219 -27.898438 18.601562 -28.199219 Z M 25.351562 -51.148438 C 25.199219 -51 25.199219 -50.851562 25.199219 -50.699219 C 25.050781 -50.851562 24.898438 -51 24.898438 -51.148438 C 24.898438 -51.601562 25.050781 -51.75 25.050781 -51.898438 C 25.199219 -51.75 25.199219 -51.601562 25.351562 -51.449219 C 25.351562 -51.449219 25.351562 -51.300781 25.351562 -51.148438 Z M 10.648438 0.449219 C 10.800781 0.601562 10.949219 0.75 10.949219 0.75 C 10.800781 0.898438 10.800781 1.050781 10.648438 1.199219 C 10.648438 0.898438 10.648438 0.75 10.648438 0.449219 Z M 11.851562 -6.898438 C 11.851562 -7.050781 12 -7.199219 12.148438 -7.199219 C 12.300781 -7.199219 12.300781 -7.050781 12.300781 -6.75 C 12.148438 -6.75 12 -6.898438 11.851562 -6.898438 Z M 14.25 -12.75 C 14.101562 -12.601562 13.949219 -12.601562 13.800781 -12.449219 C 13.800781 -12.449219 13.648438 -12.75 13.5 -12.75 C 13.800781 -12.75 13.949219 -12.75 14.25 -12.75 Z M 15.601562 -15.148438 C 15.75 -15.148438 15.75 -15 15.898438 -15 C 15.75 -14.851562 15.601562 -14.851562 15.449219 -14.851562 C 15.449219 -14.851562 15.300781 -14.851562 15.300781 -15 C 15.300781 -15 15.449219 -15.148438 15.601562 -15.148438 Z M 23.25 -42.75 C 23.398438 -42.601562 23.550781 -42.449219 23.550781 -42.449219 C 23.550781 -42.300781 23.398438 -42.148438 23.25 -42 C 23.25 -42.148438 23.101562 -42.148438 23.101562 -42.300781 C 23.25 -42.449219 23.25 -42.601562 23.25 -42.75 Z M 17.101562 -24.300781 L 17.101562 -24.148438 L 16.949219 -24.300781 Z M 8.25 0.449219 L 8.550781 0.449219 Z M 14.101562 -13.949219 L 14.25 -13.949219 L 14.101562 -13.800781 Z M 14.25 -15 L 14.101562 -15 L 14.101562 -15.148438 Z M 24 -39.75 L 23.851562 -39.75 L 24 -39.898438 Z M 52.5 -53.851562 C 52.351562 -53.851562 52.199219 -53.851562 52.050781 -53.851562 C 51.75 -53.851562 51.601562 -53.851562 51.449219 -53.550781 C 51.449219 -53.398438 51.449219 -53.25 51.449219 -53.101562 C 51.449219 -52.949219 51.75 -52.949219 51.898438 -53.101562 C 52.199219 -53.25 52.351562 -53.550781 52.5 -53.851562 Z M 7.5 -58.5 C 7.5 -58.949219 7.648438 -59.550781 7.199219 -60 C 7.050781 -59.101562 7.050781 -59.101562 7.5 -58.5 Z M 6.898438 -57.300781 C 6.75 -57.449219 6.75 -57.601562 6.601562 -57.75 C 6.601562 -57.449219 6.601562 -57.300781 6.601562 -57 C 6.75 -57.148438 6.75 -57.148438 6.898438 -57.300781 Z M 3.449219 -42.300781 C 3.300781 -42.449219 3.300781 -42.601562 3.148438 -42.75 C 3.148438 -42.449219 3.148438 -42.300781 3.148438 -42 C 3.300781 -42.148438 3.300781 -42.300781 3.449219 -42.300781 Z M 50.101562 -52.199219 C 50.101562 -52.050781 49.5 -52.199219 49.949219 -51.75 C 49.949219 -51.898438 50.101562 -52.050781 50.101562 -52.199219 Z M 50.101562 -52.199219 C 50.25 -52.351562 50.699219 -52.199219 50.398438 -52.5 C 50.25 -52.5 50.25 -52.351562 50.101562 -52.199219 Z M 4.050781 -43.5 C 3.898438 -43.648438 4.050781 -44.101562 3.601562 -43.800781 C 3.75 -43.648438 3.898438 -43.648438 4.050781 -43.5 Z M 4.050781 -43.5 "/></g></g></g><g fill="rgb(0%, 0%, 0%)" fill-opacity="1"><g transform="translate(232.494138, 594.976862)"><g><path d="M 18.148438 -38.851562 C 18.449219 -38.851562 18.601562 -39.148438 18.75 -39.300781 C 19.648438 -39.601562 19.648438 -40.5 20.25 -40.949219 C 21.898438 -42 23.101562 -43.5 24.449219 -44.851562 C 26.550781 -46.949219 28.800781 -48.601562 31.199219 -50.101562 C 31.199219 -49.199219 31.199219 -49.199219 31.050781 -49.050781 C 30.148438 -48.601562 29.25 -48 28.800781 -46.949219 C 27.75 -46.800781 27.601562 -45.601562 26.699219 -45.148438 C 25.800781 -44.550781 24.898438 -43.800781 24.449219 -42.601562 C 24.300781 -42.449219 24.148438 -42 23.851562 -42 C 22.800781 -41.699219 22.5 -40.5 21.601562 -39.898438 C 20.550781 -39.449219 20.25 -38.25 19.648438 -37.5 L 16.5 -33.898438 C 15.601562 -32.851562 14.699219 -31.648438 14.25 -30.148438 C 14.101562 -29.398438 13.800781 -28.800781 13.199219 -28.351562 C 12.75 -27.898438 12.449219 -27.449219 12 -27 C 12.601562 -26.851562 13.050781 -26.699219 13.351562 -26.699219 C 13.949219 -26.699219 14.398438 -27 14.550781 -27.601562 C 15 -29.550781 16.648438 -30.75 17.851562 -32.398438 C 18.449219 -33 18.898438 -33.601562 19.5 -34.351562 C 20.550781 -35.851562 21.601562 -37.351562 22.949219 -38.550781 C 23.851562 -39.148438 24.449219 -40.050781 25.050781 -40.800781 C 25.5 -41.851562 26.25 -42.601562 27 -43.199219 C 27.898438 -43.648438 28.199219 -44.398438 28.5 -45.148438 C 29.101562 -45.300781 29.550781 -45.75 30 -45.75 C 30.148438 -45.75 30.449219 -45.601562 30.601562 -45.449219 C 30.449219 -45.148438 30.449219 -44.699219 30.300781 -44.398438 C 30 -43.351562 29.851562 -42.148438 29.398438 -41.101562 C 29.25 -40.5 29.851562 -40.648438 30 -40.351562 C 30.148438 -40.199219 30.148438 -40.050781 30.300781 -39.898438 C 30.148438 -39.898438 29.699219 -39.898438 30 -39.601562 L 30.300781 -39.898438 C 30.601562 -40.050781 30.898438 -40.351562 30.75 -40.5 C 30.300781 -41.398438 30.148438 -42 31.351562 -42.449219 C 31.949219 -42.75 32.25 -43.351562 32.699219 -43.949219 C 33.148438 -45 33.75 -45.898438 34.351562 -46.949219 C 34.949219 -47.851562 35.398438 -48.898438 36 -49.800781 C 35.550781 -51.449219 34.351562 -52.351562 33.148438 -53.398438 C 32.851562 -53.699219 32.550781 -53.851562 32.101562 -53.851562 C 31.648438 -53.851562 31.050781 -53.699219 31.050781 -53.25 C 31.199219 -52.800781 31.050781 -52.648438 30.898438 -52.648438 C 30.601562 -52.648438 30.449219 -52.648438 30.300781 -52.648438 C 30.300781 -52.949219 30 -53.101562 29.851562 -53.101562 C 28.800781 -52.800781 27.75 -52.5 27.449219 -51.449219 C 27.148438 -51.449219 26.851562 -51.449219 26.550781 -51.300781 C 25.199219 -50.25 23.699219 -49.050781 22.800781 -47.398438 L 24 -47.398438 C 22.648438 -45.601562 21.148438 -44.101562 19.351562 -42.898438 L 19.351562 -43.949219 C 18 -43.199219 17.101562 -41.851562 16.050781 -40.800781 C 15.898438 -40.5 15.898438 -40.199219 15.898438 -39.898438 C 15.601562 -39.898438 15.300781 -39.75 15.300781 -39.300781 L 15.300781 -39.449219 C 15.601562 -39.449219 15.898438 -39.601562 15.898438 -39.898438 C 16.199219 -40.199219 16.648438 -40.351562 17.101562 -40.5 C 16.949219 -40.199219 16.949219 -39.75 16.800781 -39.449219 C 15.75 -38.398438 14.851562 -37.050781 13.949219 -35.699219 C 13.648438 -35.101562 13.199219 -34.351562 12.449219 -34.199219 L 12.449219 -35.25 C 12.449219 -35.25 12.601562 -35.398438 12.601562 -35.398438 C 12.449219 -35.398438 12.449219 -35.398438 12.449219 -35.398438 L 11.550781 -34.800781 C 11.25 -34.5 11.101562 -34.351562 10.800781 -34.199219 C 10.648438 -34.800781 10.800781 -35.25 10.949219 -35.851562 C 12.300781 -38.851562 13.351562 -42 14.398438 -45.148438 C 14.851562 -46.050781 15.148438 -46.949219 15.601562 -47.851562 C 16.050781 -48.601562 16.050781 -49.5 15.898438 -50.25 C 15.75 -51 15 -51.300781 14.398438 -51.601562 C 13.351562 -52.351562 12.300781 -53.25 11.25 -54 C 10.949219 -54.148438 10.5 -54 10.351562 -53.699219 C 10.199219 -53.550781 10.199219 -53.398438 10.199219 -53.398438 C 9.300781 -50.398438 8.101562 -47.398438 7.050781 -44.550781 C 6.449219 -43.199219 5.851562 -41.699219 5.699219 -40.199219 C 5.398438 -38.851562 5.101562 -37.648438 4.5 -36.449219 C 3.449219 -34.050781 3.148438 -31.5 2.25 -29.101562 C 1.949219 -28.5 1.949219 -27.75 2.101562 -27.449219 C 2.699219 -26.398438 2.25 -25.648438 1.949219 -24.898438 C 1.351562 -23.699219 0.898438 -22.351562 0.601562 -20.851562 L -0.75 -15.449219 C -0.898438 -14.398438 -0.75 -13.5 -1.199219 -12.601562 C -1.648438 -11.699219 -1.199219 -10.5 -1.800781 -9.601562 C -1.949219 -7.800781 -2.851562 -6 -2.550781 -4.199219 C -2.398438 -3.148438 -2.550781 -2.25 -3 -1.351562 L -2.699219 -1.050781 C -2.25 -1.351562 -2.25 -1.648438 -1.800781 -1.648438 C -1.800781 -1.648438 -1.648438 -1.5 -1.5 -1.5 C -1.5 -0.898438 -1.5 0 -1.351562 0.75 C -1.199219 1.800781 -0.449219 2.398438 0.449219 2.699219 C 0.898438 2.699219 1.199219 2.550781 1.5 2.25 C 2.101562 0.898438 2.398438 -0.449219 2.550781 -1.949219 C 2.699219 -3.300781 3 -4.5 3.449219 -5.851562 C 4.199219 -7.648438 4.648438 -9.601562 5.699219 -11.25 C 6.601562 -12.75 6.898438 -14.398438 7.949219 -15.601562 C 9.601562 -17.550781 10.351562 -20.101562 11.25 -22.5 C 11.699219 -23.398438 12 -24.300781 12.300781 -25.199219 C 12.300781 -25.351562 12 -25.648438 11.699219 -25.800781 C 11.699219 -25.949219 11.398438 -25.800781 11.25 -25.800781 C 10.949219 -25.199219 10.5 -24.601562 10.199219 -24 C 9.898438 -23.25 9.601562 -22.351562 9 -21.75 C 8.25 -21.148438 7.648438 -20.101562 7.199219 -19.199219 C 7.050781 -18.601562 6.75 -18.148438 6.148438 -18 C 6.300781 -19.199219 6.75 -20.398438 7.199219 -21.449219 C 7.800781 -23.25 8.398438 -24.898438 9.898438 -26.101562 C 10.050781 -26.398438 10.5 -26.699219 10.5 -27 C 10.949219 -28.949219 12.148438 -30.300781 13.351562 -31.949219 C 13.648438 -32.25 12.898438 -33 13.5 -33.148438 C 14.550781 -33.449219 14.25 -34.351562 14.699219 -34.949219 C 15.300781 -35.851562 15.898438 -36.601562 16.5 -37.648438 C 16.800781 -38.25 17.398438 -38.699219 18.148438 -38.851562 Z M 27.449219 -49.199219 C 27.300781 -48.898438 27.148438 -48.601562 26.851562 -48.601562 L 26.851562 -49.199219 L 25.648438 -49.199219 C 25.800781 -49.648438 26.25 -49.949219 26.699219 -50.398438 C 27 -50.699219 27.300781 -51 27.449219 -51.449219 L 28.5 -51.449219 C 28.199219 -50.851562 27.75 -50.25 27.449219 -49.648438 C 27.601562 -49.648438 27.75 -49.5 27.898438 -49.5 C 27.75 -49.351562 27.601562 -49.199219 27.449219 -49.199219 Z M 9.300781 -29.398438 C 9.300781 -29.398438 9.449219 -29.25 9.449219 -29.101562 C 9.449219 -28.648438 9.148438 -28.351562 8.851562 -28.050781 C 8.699219 -28.050781 8.699219 -28.050781 8.550781 -28.199219 L 8.550781 -28.351562 C 8.550781 -28.800781 8.699219 -28.949219 9 -29.25 C 9.148438 -29.25 9.148438 -29.398438 9.300781 -29.398438 Z M 27.449219 -49.800781 C 27.148438 -49.648438 26.851562 -49.5 26.851562 -49.199219 L 27.449219 -49.199219 Z M 5.851562 -17.699219 C 5.550781 -18 6 -18 6.148438 -18 C 6 -18 6 -17.851562 5.851562 -17.699219 Z M 13.949219 -37.5 L 13.800781 -37.351562 L 13.949219 -37.351562 Z M 17.101562 -40.5 C 17.101562 -40.5 16.949219 -40.5 16.949219 -40.5 Z M 17.101562 -40.5 "/></g></g></g><g fill="rgb(0%, 0%, 0%)" fill-opacity="1"><g transform="translate(263.544143, 594.976862)"><g><path d="M 11.398438 -39.75 C 10.949219 -38.398438 9.449219 -37.949219 9 -36.601562 C 9 -36.449219 8.699219 -36.449219 8.550781 -36.300781 C 8.550781 -36.300781 8.398438 -36.300781 8.25 -36.148438 C 7.5 -36.148438 7.351562 -35.699219 7.351562 -35.101562 C 7.351562 -34.199219 7.050781 -33.601562 6.300781 -33.300781 C 5.550781 -33.148438 5.101562 -32.550781 4.800781 -32.101562 C 4.648438 -31.800781 4.648438 -31.351562 4.5 -31.050781 C 4.351562 -30.898438 4.199219 -30.75 4.050781 -30.75 C 4.199219 -30.601562 4.351562 -30.601562 4.5 -30.449219 C 4.050781 -29.398438 3.75 -28.351562 3.300781 -27.300781 C 1.949219 -24.898438 1.5 -22.050781 0 -19.648438 L 0 -19.5 C -0.300781 -18.449219 -0.449219 -17.550781 -0.75 -16.648438 C -0.898438 -15.75 -1.050781 -14.699219 -1.351562 -13.949219 C -1.800781 -12.898438 -1.5 -12 -1.648438 -11.101562 C -1.949219 -9.898438 -2.101562 -8.398438 -1.648438 -7.199219 C -1.199219 -5.398438 -1.050781 -3.449219 0.300781 -1.949219 C 1.050781 0.300781 4.800781 4.050781 7.351562 4.050781 C 8.25 4.050781 9.148438 4.199219 10.050781 4.199219 C 11.398438 4.199219 12.75 4.050781 14.101562 3.148438 C 14.550781 2.851562 15.148438 2.699219 15.75 2.550781 C 17.550781 1.949219 19.351562 1.050781 21 -0.148438 C 22.800781 -1.5 24.75 -2.699219 26.550781 -4.050781 C 28.050781 -5.25 29.851562 -6.148438 30.898438 -7.648438 C 31.648438 -8.550781 32.398438 -9.148438 33.148438 -9.898438 L 34.949219 -11.699219 C 35.550781 -12.300781 36 -12.898438 35.851562 -13.648438 C 35.851562 -14.699219 37.351562 -14.550781 37.351562 -15.449219 L 37.351562 -15.601562 C 37.949219 -16.050781 38.398438 -16.648438 39 -17.101562 C 40.5 -18.449219 41.699219 -20.25 43.351562 -21.449219 C 43.648438 -21.75 43.648438 -22.199219 43.949219 -22.5 C 46.800781 -26.101562 49.050781 -31.800781 48.449219 -31.949219 C 48.449219 -32.101562 48.449219 -32.101562 48.300781 -32.101562 L 48.300781 -31.949219 C 48.148438 -31.800781 48 -31.648438 47.851562 -31.5 L 47.699219 -31.5 L 47.699219 -31.351562 C 47.398438 -30.898438 47.101562 -30.449219 46.648438 -29.851562 C 46.5 -29.550781 46.351562 -29.398438 46.199219 -29.101562 L 46.199219 -28.648438 C 45.75 -28.199219 45.148438 -27.449219 44.699219 -26.851562 C 43.199219 -24.898438 41.851562 -23.25 40.351562 -21.300781 C 39.300781 -20.699219 37.949219 -19.351562 37.351562 -18.300781 C 36.898438 -17.550781 36.300781 -16.949219 35.550781 -16.5 C 33.898438 -15.300781 32.550781 -13.648438 30.898438 -12.300781 C 29.101562 -9.898438 23.25 -6.601562 20.699219 -5.25 C 20.699219 -5.101562 20.550781 -5.25 20.398438 -5.25 C 20.25 -5.398438 20.25 -5.550781 20.398438 -5.699219 C 20.699219 -6 20.851562 -6.300781 21 -6.75 C 21.148438 -6.75 21.148438 -6.75 21.300781 -6.898438 C 21.449219 -6.898438 21.75 -6.75 22.050781 -6.898438 C 22.800781 -7.351562 23.550781 -7.949219 24.300781 -8.398438 C 24.449219 -8.550781 24.449219 -8.851562 24.601562 -9.148438 C 25.648438 -9 26.101562 -9.75 26.699219 -10.351562 L 26.699219 -10.648438 C 26.550781 -10.648438 26.25 -10.800781 26.25 -10.648438 C 25.648438 -10.199219 24.898438 -9.898438 24.601562 -9.148438 C 23.101562 -8.851562 22.050781 -8.25 21.300781 -6.898438 C 20.699219 -6.75 20.398438 -6.75 20.101562 -6.601562 C 18.300781 -5.699219 16.351562 -4.648438 14.550781 -3.75 C 13.5 -3.300781 12.449219 -2.699219 11.25 -2.550781 C 9.601562 -2.101562 8.101562 -1.648438 6.300781 -1.648438 C 3.601562 -2.25 2.101562 -5.101562 2.101562 -7.800781 C 2.25 -8.550781 2.25 -9.148438 2.101562 -9.898438 C 1.949219 -13.351562 3.300781 -16.199219 4.800781 -19.351562 C 5.550781 -17.699219 6.898438 -16.648438 8.699219 -16.648438 C 11.398438 -17.550781 14.25 -18.300781 16.800781 -19.800781 C 18.898438 -21.148438 21 -22.199219 23.101562 -23.25 C 24 -23.851562 24.75 -24.300781 25.199219 -25.199219 C 25.648438 -25.949219 26.25 -26.550781 27 -27 C 28.949219 -28.351562 32.699219 -32.699219 32.699219 -35.25 C 33 -37.050781 33 -39 33.300781 -40.800781 C 33.449219 -42.898438 33.449219 -45.148438 32.699219 -47.25 L 32.25 -48.601562 C 30.601562 -50.550781 29.101562 -51.449219 26.550781 -51.449219 C 25.949219 -51.449219 25.199219 -51.449219 24.300781 -51.148438 C 22.199219 -50.550781 20.550781 -49.050781 18.75 -47.851562 C 17.699219 -47.101562 16.800781 -46.199219 15.898438 -45.449219 C 15.449219 -44.101562 14.101562 -43.800781 13.199219 -42.898438 C 12.898438 -42.449219 12.601562 -42 12.449219 -41.398438 C 12.300781 -40.800781 12 -40.351562 11.398438 -40.199219 Z M 30.601562 -47.25 C 31.050781 -46.351562 31.648438 -45.449219 31.5 -44.398438 L 31.5 -42.898438 C 31.5 -31.648438 18.449219 -24 8.699219 -21 C 7.800781 -20.851562 6.898438 -20.699219 6 -20.699219 C 5.25 -20.699219 4.949219 -21 5.550781 -22.199219 C 6.300781 -23.398438 6.449219 -24.898438 7.5 -25.800781 C 7.949219 -26.25 7.949219 -27 8.25 -27.449219 C 8.851562 -28.050781 9 -29.101562 9.449219 -29.851562 C 10.648438 -31.5 12 -33.148438 13.199219 -34.648438 C 13.5 -35.101562 13.800781 -35.398438 14.25 -35.699219 C 15.898438 -36.898438 17.398438 -38.398438 18.898438 -39.898438 C 20.101562 -41.101562 21.449219 -42.449219 22.949219 -43.5 C 24.898438 -44.699219 26.699219 -46.5 28.648438 -47.699219 C 28.949219 -47.851562 29.25 -48 29.550781 -48 C 30 -48 30.300781 -47.851562 30.601562 -47.25 Z M 5.101562 -31.050781 C 5.101562 -30.601562 4.800781 -30.449219 4.5 -30.449219 L 4.5 -31.050781 Z M 5.851562 -31.648438 C 5.851562 -31.800781 6 -31.949219 6.148438 -32.101562 C 6.148438 -32.101562 6.449219 -31.949219 6.601562 -31.949219 C 6.449219 -31.800781 6.449219 -31.800781 6.449219 -31.648438 Z M 46.050781 -28.050781 C 45.898438 -28.050781 45.898438 -28.199219 45.898438 -28.199219 C 46.050781 -28.199219 46.050781 -28.050781 46.050781 -28.050781 Z M 8.101562 -37.050781 L 8.25 -36.898438 L 8.25 -37.050781 Z M 8.101562 -34.800781 L 8.25 -34.800781 L 8.25 -34.648438 Z M 46.199219 -28.5 C 46.351562 -28.5 46.5 -28.351562 46.5 -28.351562 C 46.351562 -28.351562 46.351562 -28.5 46.199219 -28.5 Z M 5.851562 -31.648438 C 5.699219 -31.648438 5.699219 -31.5 5.699219 -31.5 C 5.699219 -31.5 5.699219 -31.5 5.699219 -31.648438 Z M 5.851562 -31.648438 "/></g></g></g><g fill="rgb(0%, 0%, 0%)" fill-opacity="1"><g transform="translate(307.344148, 594.976862)"><g><path d="M 9.898438 -31.5 C 11.851562 -30.148438 14.101562 -29.101562 16.351562 -27.898438 C 15.75 -27.300781 15.449219 -27 15.300781 -26.550781 C 15.148438 -25.800781 14.851562 -25.050781 13.648438 -24.898438 C 12.898438 -24.898438 12.601562 -24.449219 12.148438 -24.148438 C 12.148438 -23.851562 11.851562 -23.398438 11.699219 -23.398438 C 11.398438 -23.398438 11.101562 -23.550781 10.949219 -23.550781 C 10.050781 -23.550781 9.75 -22.949219 9.449219 -22.351562 C 9.601562 -22.050781 9.449219 -21.898438 9.148438 -21.898438 C 7.800781 -21.449219 7.050781 -20.550781 6.300781 -19.800781 C 5.699219 -19.5 5.25 -19.199219 4.949219 -18.898438 C 2.398438 -17.851562 0.449219 -16.5 -0.449219 -14.25 C -1.5 -12.898438 -1.800781 -11.398438 -3 -9.75 C -3.449219 -8.851562 -3.300781 -7.949219 -3.148438 -7.050781 C -2.398438 -3.898438 -1.050781 -1.199219 1.351562 1.050781 C 2.699219 3.148438 5.398438 3.898438 7.648438 4.199219 C 9.148438 4.199219 10.800781 3.898438 11.851562 3.449219 C 14.101562 2.699219 16.351562 1.800781 17.699219 0 C 18 -0.300781 18.449219 -0.601562 19.050781 -1.050781 C 22.199219 -3.300781 23.25 -3.75 24.75 -6.449219 C 25.199219 -7.5 25.949219 -8.398438 26.550781 -9.148438 C 26.851562 -9.601562 26.851562 -10.050781 27.148438 -10.648438 C 28.648438 -12.898438 28.949219 -15.449219 29.550781 -18.148438 L 29.550781 -18.898438 C 29.398438 -20.851562 27.75 -22.949219 27 -24.75 C 26.699219 -25.949219 25.648438 -26.851562 24.75 -27.601562 C 24.148438 -28.199219 24.300781 -28.5 24.75 -28.800781 C 25.050781 -29.101562 25.050781 -29.25 25.5 -29.398438 C 28.351562 -30.75 42.148438 -33.898438 45.148438 -34.648438 C 45.898438 -34.800781 46.648438 -35.101562 47.25 -35.398438 C 47.699219 -35.550781 47.699219 -35.699219 47.699219 -35.851562 C 47.398438 -36.148438 46.949219 -36.449219 46.5 -36.449219 L 45.898438 -36.449219 C 44.398438 -35.550781 42.601562 -35.550781 41.101562 -34.949219 C 39.75 -34.351562 27.601562 -31.800781 25.949219 -31.199219 C 25.199219 -31.050781 24.601562 -30.75 23.851562 -30.300781 C 23.25 -30 22.648438 -29.851562 22.050781 -29.851562 C 21.300781 -29.851562 20.550781 -30.148438 19.800781 -30.601562 C 18.148438 -31.199219 15.898438 -32.550781 14.550781 -33.601562 C 12.898438 -34.648438 12.601562 -36 13.199219 -37.199219 C 13.949219 -38.25 14.851562 -39.300781 15.601562 -40.648438 C 16.050781 -42 17.101562 -42.898438 18.898438 -43.5 C 19.800781 -43.800781 20.851562 -44.398438 21.449219 -45 C 23.25 -46.199219 24.75 -46.949219 26.851562 -47.25 C 29.398438 -47.398438 31.050781 -48.300781 32.851562 -49.050781 C 33.601562 -49.199219 36 -49.648438 36.449219 -49.648438 C 36.898438 -49.648438 37.648438 -49.648438 37.949219 -49.800781 C 39 -50.101562 39.449219 -50.398438 39.449219 -51 C 39.449219 -51.75 38.550781 -52.199219 37.949219 -52.5 C 36.601562 -52.949219 35.550781 -53.398438 34.199219 -53.398438 C 33 -53.398438 31.949219 -53.550781 30.75 -53.699219 C 28.050781 -54.148438 26.699219 -54.449219 25.648438 -54.449219 C 24.75 -54.449219 24 -54.148438 22.5 -53.851562 C 21.300781 -53.550781 19.800781 -52.800781 18.601562 -52.351562 C 13.949219 -50.25 10.5 -47.101562 8.25 -43.050781 C 7.199219 -41.699219 6.75 -39.601562 6.300781 -37.949219 C 6.148438 -37.5 6.300781 -37.050781 6.75 -36.601562 C 7.5 -35.699219 8.398438 -34.800781 8.398438 -33.449219 C 8.398438 -32.699219 9.300781 -32.101562 9.898438 -31.5 Z M 21.300781 -24.449219 C 21.75 -24 21.75 -23.550781 21.898438 -23.101562 C 22.351562 -20.101562 21.898438 -17.398438 20.398438 -14.851562 C 17.398438 -9.601562 12.601562 -4.199219 6.898438 -1.949219 C 6.300781 -1.800781 5.699219 -1.5 4.949219 -1.5 C 4.648438 -1.5 4.351562 -1.5 4.050781 -1.5 C 3.449219 -1.5 2.851562 -1.5 1.949219 -1.949219 C 1.199219 -2.550781 1.199219 -3.601562 0.449219 -4.5 C 0.449219 -4.5 0.449219 -4.648438 0.300781 -4.800781 C 1.199219 -6.601562 0.449219 -8.550781 1.199219 -10.648438 C 2.398438 -14.25 5.699219 -18.601562 9.300781 -20.101562 C 9.601562 -20.398438 10.050781 -20.699219 10.800781 -21 C 12.449219 -21.601562 13.800781 -22.648438 15.300781 -23.699219 C 16.199219 -24.449219 17.851562 -24.898438 18.898438 -25.648438 C 19.050781 -25.648438 19.199219 -25.800781 19.351562 -25.800781 C 20.101562 -25.800781 21 -25.199219 21.300781 -24.449219 Z M 14.699219 -3.449219 C 14.550781 -3.449219 14.25 -3.449219 14.550781 -3.75 C 14.550781 -3.75 13.949219 -3.898438 14.101562 -4.050781 C 14.699219 -5.851562 16.199219 -7.050781 17.699219 -8.101562 C 18 -8.25 17.398438 -8.101562 18 -7.949219 C 18 -7.949219 18.449219 -7.5 18.148438 -7.5 C 17.101562 -6.300781 16.050781 -4.949219 14.699219 -3.449219 Z M 19.949219 -10.199219 C 19.648438 -9.75 19.5 -9.300781 18.898438 -9 L 18.449219 -9 L 18.300781 -9.148438 C 18.449219 -9.601562 18.601562 -10.199219 18.898438 -10.949219 C 19.050781 -11.25 19.949219 -11.550781 19.949219 -11.25 C 20.25 -10.949219 20.25 -10.800781 19.949219 -10.199219 Z M 9.75 -0.300781 C 9.601562 -0.300781 9.449219 -0.300781 9.300781 -0.449219 C 9.300781 -1.199219 9.898438 -1.5 11.101562 -1.5 C 11.25 -0.449219 11.25 -0.449219 9.75 -0.300781 Z M 21.300781 -12.449219 C 21.148438 -12.300781 21 -12.148438 20.851562 -12.148438 C 20.699219 -12.148438 20.699219 -12.300781 20.398438 -12.300781 C 20.699219 -12.449219 20.851562 -12.75 20.851562 -12.898438 L 21.148438 -12.898438 C 21.300781 -12.75 21.300781 -12.449219 21.300781 -12.449219 Z M 7.949219 0 C 8.101562 -0.148438 8.101562 -0.300781 8.101562 -0.300781 L 9.148438 -0.300781 C 9.148438 -0.148438 9.148438 0 8.851562 0 Z M 13.351562 -3.601562 L 13.5 -3.449219 L 13.351562 -3.449219 Z M 10.050781 1.648438 L 9.898438 1.648438 L 9.898438 1.5 Z M 10.050781 1.648438 "/></g></g></g><g fill="rgb(0%, 0%, 0%)" fill-opacity="1"><g transform="translate(345.444159, 594.976862)"><g><path d="M 9.898438 -31.5 C 11.851562 -30.148438 14.101562 -29.101562 16.351562 -27.898438 C 15.75 -27.300781 15.449219 -27 15.300781 -26.550781 C 15.148438 -25.800781 14.851562 -25.050781 13.648438 -24.898438 C 12.898438 -24.898438 12.601562 -24.449219 12.148438 -24.148438 C 12.148438 -23.851562 11.851562 -23.398438 11.699219 -23.398438 C 11.398438 -23.398438 11.101562 -23.550781 10.949219 -23.550781 C 10.050781 -23.550781 9.75 -22.949219 9.449219 -22.351562 C 9.601562 -22.050781 9.449219 -21.898438 9.148438 -21.898438 C 7.800781 -21.449219 7.050781 -20.550781 6.300781 -19.800781 C 5.699219 -19.5 5.25 -19.199219 4.949219 -18.898438 C 2.398438 -17.851562 0.449219 -16.5 -0.449219 -14.25 C -1.5 -12.898438 -1.800781 -11.398438 -3 -9.75 C -3.449219 -8.851562 -3.300781 -7.949219 -3.148438 -7.050781 C -2.398438 -3.898438 -1.050781 -1.199219 1.351562 1.050781 C 2.699219 3.148438 5.398438 3.898438 7.648438 4.199219 C 9.148438 4.199219 10.800781 3.898438 11.851562 3.449219 C 14.101562 2.699219 16.351562 1.800781 17.699219 0 C 18 -0.300781 18.449219 -0.601562 19.050781 -1.050781 C 22.199219 -3.300781 23.25 -3.75 24.75 -6.449219 C 25.199219 -7.5 25.949219 -8.398438 26.550781 -9.148438 C 26.851562 -9.601562 26.851562 -10.050781 27.148438 -10.648438 C 28.648438 -12.898438 28.949219 -15.449219 29.550781 -18.148438 L 29.550781 -18.898438 C 29.398438 -20.851562 27.75 -22.949219 27 -24.75 C 26.699219 -25.949219 25.648438 -26.851562 24.75 -27.601562 C 24.148438 -28.199219 24.300781 -28.5 24.75 -28.800781 C 25.050781 -29.101562 25.050781 -29.25 25.5 -29.398438 C 28.351562 -30.75 42.148438 -33.898438 45.148438 -34.648438 C 45.898438 -34.800781 46.648438 -35.101562 47.25 -35.398438 C 47.699219 -35.550781 47.699219 -35.699219 47.699219 -35.851562 C 47.398438 -36.148438 46.949219 -36.449219 46.5 -36.449219 L 45.898438 -36.449219 C 44.398438 -35.550781 42.601562 -35.550781 41.101562 -34.949219 C 39.75 -34.351562 27.601562 -31.800781 25.949219 -31.199219 C 25.199219 -31.050781 24.601562 -30.75 23.851562 -30.300781 C 23.25 -30 22.648438 -29.851562 22.050781 -29.851562 C 21.300781 -29.851562 20.550781 -30.148438 19.800781 -30.601562 C 18.148438 -31.199219 15.898438 -32.550781 14.550781 -33.601562 C 12.898438 -34.648438 12.601562 -36 13.199219 -37.199219 C 13.949219 -38.25 14.851562 -39.300781 15.601562 -40.648438 C 16.050781 -42 17.101562 -42.898438 18.898438 -43.5 C 19.800781 -43.800781 20.851562 -44.398438 21.449219 -45 C 23.25 -46.199219 24.75 -46.949219 26.851562 -47.25 C 29.398438 -47.398438 31.050781 -48.300781 32.851562 -49.050781 C 33.601562 -49.199219 36 -49.648438 36.449219 -49.648438 C 36.898438 -49.648438 37.648438 -49.648438 37.949219 -49.800781 C 39 -50.101562 39.449219 -50.398438 39.449219 -51 C 39.449219 -51.75 38.550781 -52.199219 37.949219 -52.5 C 36.601562 -52.949219 35.550781 -53.398438 34.199219 -53.398438 C 33 -53.398438 31.949219 -53.550781 30.75 -53.699219 C 28.050781 -54.148438 26.699219 -54.449219 25.648438 -54.449219 C 24.75 -54.449219 24 -54.148438 22.5 -53.851562 C 21.300781 -53.550781 19.800781 -52.800781 18.601562 -52.351562 C 13.949219 -50.25 10.5 -47.101562 8.25 -43.050781 C 7.199219 -41.699219 6.75 -39.601562 6.300781 -37.949219 C 6.148438 -37.5 6.300781 -37.050781 6.75 -36.601562 C 7.5 -35.699219 8.398438 -34.800781 8.398438 -33.449219 C 8.398438 -32.699219 9.300781 -32.101562 9.898438 -31.5 Z M 21.300781 -24.449219 C 21.75 -24 21.75 -23.550781 21.898438 -23.101562 C 22.351562 -20.101562 21.898438 -17.398438 20.398438 -14.851562 C 17.398438 -9.601562 12.601562 -4.199219 6.898438 -1.949219 C 6.300781 -1.800781 5.699219 -1.5 4.949219 -1.5 C 4.648438 -1.5 4.351562 -1.5 4.050781 -1.5 C 3.449219 -1.5 2.851562 -1.5 1.949219 -1.949219 C 1.199219 -2.550781 1.199219 -3.601562 0.449219 -4.5 C 0.449219 -4.5 0.449219 -4.648438 0.300781 -4.800781 C 1.199219 -6.601562 0.449219 -8.550781 1.199219 -10.648438 C 2.398438 -14.25 5.699219 -18.601562 9.300781 -20.101562 C 9.601562 -20.398438 10.050781 -20.699219 10.800781 -21 C 12.449219 -21.601562 13.800781 -22.648438 15.300781 -23.699219 C 16.199219 -24.449219 17.851562 -24.898438 18.898438 -25.648438 C 19.050781 -25.648438 19.199219 -25.800781 19.351562 -25.800781 C 20.101562 -25.800781 21 -25.199219 21.300781 -24.449219 Z M 14.699219 -3.449219 C 14.550781 -3.449219 14.25 -3.449219 14.550781 -3.75 C 14.550781 -3.75 13.949219 -3.898438 14.101562 -4.050781 C 14.699219 -5.851562 16.199219 -7.050781 17.699219 -8.101562 C 18 -8.25 17.398438 -8.101562 18 -7.949219 C 18 -7.949219 18.449219 -7.5 18.148438 -7.5 C 17.101562 -6.300781 16.050781 -4.949219 14.699219 -3.449219 Z M 19.949219 -10.199219 C 19.648438 -9.75 19.5 -9.300781 18.898438 -9 L 18.449219 -9 L 18.300781 -9.148438 C 18.449219 -9.601562 18.601562 -10.199219 18.898438 -10.949219 C 19.050781 -11.25 19.949219 -11.550781 19.949219 -11.25 C 20.25 -10.949219 20.25 -10.800781 19.949219 -10.199219 Z M 9.75 -0.300781 C 9.601562 -0.300781 9.449219 -0.300781 9.300781 -0.449219 C 9.300781 -1.199219 9.898438 -1.5 11.101562 -1.5 C 11.25 -0.449219 11.25 -0.449219 9.75 -0.300781 Z M 21.300781 -12.449219 C 21.148438 -12.300781 21 -12.148438 20.851562 -12.148438 C 20.699219 -12.148438 20.699219 -12.300781 20.398438 -12.300781 C 20.699219 -12.449219 20.851562 -12.75 20.851562 -12.898438 L 21.148438 -12.898438 C 21.300781 -12.75 21.300781 -12.449219 21.300781 -12.449219 Z M 7.949219 0 C 8.101562 -0.148438 8.101562 -0.300781 8.101562 -0.300781 L 9.148438 -0.300781 C 9.148438 -0.148438 9.148438 0 8.851562 0 Z M 13.351562 -3.601562 L 13.5 -3.449219 L 13.351562 -3.449219 Z M 10.050781 1.648438 L 9.898438 1.648438 L 9.898438 1.5 Z M 10.050781 1.648438 "/></g></g></g><g fill="rgb(0%, 0%, 0%)" fill-opacity="1"><g transform="translate(383.54416, 594.976862)"><g/></g></g><g fill="rgb(0%, 0%, 0%)" fill-opacity="1"><g transform="translate(427.344176, 594.976862)"><g><path d="M -6 32.101562 C -6.300781 32.101562 -6.449219 32.101562 -6.75 32.101562 C -6.898438 32.101562 -6.898438 31.949219 -7.050781 31.800781 C -6.898438 31.800781 -6.601562 31.648438 -6.601562 31.648438 C -6.449219 31.800781 -6.148438 31.949219 -6 32.25 C -5.25 31.199219 -4.648438 30 -4.648438 28.800781 C -4.800781 28.050781 -4.5 27.449219 -4.351562 26.851562 C -4.050781 26.101562 -3.75 25.351562 -3.601562 24.449219 C -2.699219 21.75 -2.101562 18.75 -1.648438 15.898438 C -1.648438 15.449219 -1.648438 15 -1.351562 14.550781 C -0.75 13.800781 -0.601562 12.75 -0.300781 11.851562 C 0 10.351562 0.601562 8.851562 1.050781 7.351562 C 1.199219 6.75 1.648438 6.300781 1.5 5.851562 C 1.351562 4.351562 2.25 3.449219 3 2.25 C 3.75 2.851562 4.5 2.851562 5.25 2.851562 C 5.25 2.851562 5.398438 2.851562 5.550781 2.851562 C 6.148438 2.851562 6.75 2.851562 7.351562 3.148438 C 9.75 2.398438 12.148438 2.25 14.398438 1.351562 C 14.851562 0.601562 15.75 0.449219 16.5 0.300781 C 18 -0.300781 19.5 -1.199219 20.550781 -2.398438 C 21 -2.851562 21.601562 -3.300781 22.199219 -3.75 C 23.101562 -4.648438 24.601562 -4.949219 25.199219 -6.300781 C 27 -7.351562 28.050781 -9 29.398438 -10.5 C 29.699219 -10.800781 30 -11.25 30 -11.699219 C 30 -12.601562 30.601562 -13.199219 31.050781 -13.800781 C 32.699219 -15.601562 33.75 -17.699219 34.648438 -19.800781 C 35.398438 -21.898438 36.601562 -24 36.449219 -26.398438 C 37.648438 -28.351562 37.050781 -30.601562 37.199219 -32.699219 C 37.351562 -33.898438 37.199219 -35.101562 37.351562 -36.300781 C 37.5 -37.648438 36.449219 -39 36.300781 -40.351562 C 36.300781 -40.5 36.300781 -40.648438 36.300781 -40.800781 C 36.148438 -42.449219 35.550781 -43.800781 34.648438 -45.300781 C 32.550781 -49.5 29.101562 -53.851562 24 -53.851562 C 21.449219 -53.851562 17.25 -52.050781 15.300781 -50.699219 C 15 -50.550781 14.699219 -50.25 14.398438 -49.949219 C 14.25 -49.648438 14.101562 -49.351562 13.949219 -49.050781 C 13.949219 -48.898438 13.800781 -48.75 13.648438 -48.75 C 13.351562 -48.75 12.898438 -48.898438 12.75 -48.75 C 12.148438 -47.851562 11.25 -47.25 10.800781 -46.199219 C 10.949219 -46.050781 11.101562 -46.050781 11.25 -45.898438 C 10.800781 -45.601562 10.949219 -46.050781 10.800781 -46.199219 C 10.351562 -46.050781 9.898438 -45.601562 9.300781 -45.601562 C 9.148438 -45.601562 8.851562 -45.75 8.550781 -45.898438 C 8.101562 -46.199219 7.648438 -46.199219 7.351562 -46.199219 C 7.050781 -46.199219 6.75 -46.199219 6.449219 -46.199219 C 4.949219 -46.199219 4.050781 -45.300781 4.199219 -43.800781 C 4.199219 -42.148438 3.75 -40.648438 4.199219 -39 C 3.75 -36.449219 3.75 -33.75 2.398438 -31.5 C 1.800781 -30.300781 1.648438 -28.949219 1.050781 -27.75 C 0.898438 -27.449219 1.050781 -27 1.199219 -26.550781 C 1.351562 -26.851562 1.648438 -27 1.949219 -27.148438 C 2.101562 -27.300781 2.25 -27.75 2.550781 -27.449219 C 2.699219 -27.300781 2.699219 -27 2.699219 -26.851562 C 2.25 -26.25 1.800781 -25.5 1.5 -24.601562 C 1.351562 -25.351562 1.199219 -25.949219 1.199219 -26.550781 C 0.449219 -26.398438 0.300781 -25.800781 0.148438 -25.199219 C -0.148438 -23.851562 -0.300781 -22.5 -0.898438 -21.449219 C -1.351562 -20.25 -1.351562 -18.898438 -1.648438 -17.699219 C -2.699219 -14.398438 -3.148438 -10.800781 -4.050781 -7.5 C -5.398438 -3.75 -5.699219 1.199219 -6.300781 5.550781 C -6.449219 6.300781 -6.449219 7.199219 -6.601562 7.949219 C -5.699219 9 -6.898438 9.449219 -6.898438 10.199219 C -6.898438 11.101562 -7.351562 11.851562 -7.648438 12.601562 C -7.648438 12.898438 -7.648438 13.199219 -7.648438 13.5 C -9 22.800781 -10.648438 32.101562 -12.75 41.25 C -12.898438 42.75 -12.898438 44.25 -13.800781 45.449219 C -14.101562 45.898438 -13.949219 46.351562 -13.648438 46.800781 C -13.351562 47.25 -13.199219 47.699219 -12.601562 47.699219 C -12 47.699219 -11.699219 48 -11.550781 48.601562 C -11.398438 49.050781 -11.25 49.5 -10.949219 49.949219 C -10.800781 50.398438 -10.351562 50.550781 -9.75 50.550781 C -9.601562 50.550781 -9.300781 50.550781 -9.148438 50.398438 C -8.550781 49.949219 -8.101562 49.5 -8.101562 48.601562 C -7.949219 47.25 -7.800781 45.898438 -7.5 44.550781 C -6.898438 40.949219 -5.851562 37.351562 -5.398438 33.75 C -5.398438 33 -5.851562 32.699219 -6 32.101562 Z M 2.550781 -5.851562 C 2.398438 -5.699219 2.398438 -5.550781 2.398438 -5.398438 C 1.949219 -5.851562 2.398438 -5.699219 2.550781 -5.851562 C 2.699219 -6 2.699219 -6.148438 2.699219 -6.300781 C 3.148438 -5.851562 2.699219 -6 2.550781 -5.851562 Z M -4.050781 1.050781 C -4.050781 0.898438 -4.050781 0.75 -4.050781 0.449219 C -4.050781 0.449219 -3.898438 0.300781 -3.898438 0.148438 C -3.75 0.449219 -3.75 0.601562 -3.75 0.75 C -3.75 0.898438 -4.050781 0.898438 -4.050781 1.050781 C -4.050781 1.351562 -4.050781 1.5 -4.050781 1.800781 C -4.351562 1.800781 -4.5 1.648438 -4.5 1.5 C -4.351562 1.351562 -4.199219 1.199219 -4.050781 1.050781 Z M -3.148438 13.648438 C -3.148438 13.800781 -3.300781 13.949219 -3.300781 14.101562 C -3.601562 13.800781 -3.148438 13.800781 -3.148438 13.800781 C -3.148438 13.5 -3.148438 13.199219 -3.148438 12.898438 C -2.851562 12.898438 -2.699219 13.050781 -2.699219 13.199219 C -2.699219 13.5 -2.851562 13.648438 -3.148438 13.648438 Z M 32.101562 -18.601562 C 32.101562 -18.300781 31.949219 -18 31.5 -18 C 31.648438 -17.550781 31.800781 -16.949219 31.199219 -16.800781 C 31.050781 -16.5 31.199219 -16.050781 31.050781 -15.75 C 30.75 -15.148438 30.148438 -14.851562 30 -14.101562 C 29.398438 -15.300781 29.851562 -16.050781 30.601562 -16.800781 C 30.75 -16.800781 31.050781 -16.800781 31.199219 -16.800781 C 31.050781 -17.25 30.898438 -17.851562 31.648438 -18 C 31.648438 -18.300781 31.800781 -18.449219 32.101562 -18.449219 C 32.101562 -19.050781 31.949219 -19.5 32.550781 -19.648438 C 32.550781 -19.800781 32.550781 -19.800781 32.550781 -19.949219 C 31.949219 -21.601562 32.699219 -22.800781 33.75 -23.699219 C 33.898438 -23.851562 33.898438 -24 33.898438 -24.148438 C 34.351562 -23.699219 33.898438 -23.851562 33.75 -23.699219 C 33.75 -22.949219 34.050781 -22.199219 33.449219 -21.75 C 32.699219 -21.300781 33.449219 -20.101562 32.550781 -19.648438 C 32.550781 -19.199219 32.699219 -18.75 32.101562 -18.601562 Z M 3.898438 -8.699219 C 4.050781 -8.851562 4.050781 -9 4.050781 -9.148438 C 4.5 -8.699219 4.050781 -8.851562 3.898438 -8.699219 C 3.898438 -8.398438 4.050781 -7.949219 3.75 -7.800781 C 3.601562 -7.648438 3.449219 -7.648438 3.300781 -7.648438 C 3 -7.800781 3 -7.949219 3.148438 -8.101562 C 3.449219 -8.398438 3.75 -8.550781 3.898438 -8.699219 Z M -0.300781 3.898438 C -0.300781 4.050781 -0.449219 4.199219 -0.449219 4.351562 C -0.898438 3.898438 -0.449219 4.050781 -0.300781 3.898438 C -0.449219 3.300781 0 2.699219 0.148438 2.101562 C 0.148438 1.949219 0.300781 1.800781 0.449219 1.949219 C 0.601562 2.101562 0.601562 2.398438 0.601562 2.550781 C 0.75 3.300781 0.449219 3.75 -0.300781 3.898438 Z M -3.898438 16.648438 C -3.75 16.5 -3.75 16.351562 -3.75 16.199219 C -3.300781 16.648438 -3.75 16.5 -3.898438 16.648438 C -3.898438 17.550781 -3.300781 18.449219 -4.199219 19.199219 C -4.351562 19.199219 -4.351562 19.199219 -4.5 19.199219 C -4.351562 18.300781 -4.648438 17.25 -3.898438 16.648438 Z M -2.398438 5.101562 C -2.550781 5.25 -2.550781 5.398438 -2.550781 5.550781 C -3 5.101562 -2.550781 5.25 -2.398438 5.101562 C -2.699219 3.75 -2.550781 2.550781 -1.800781 1.5 C -1.800781 1.351562 -1.648438 1.351562 -1.5 1.351562 C -1.5 1.351562 -1.199219 1.648438 -1.199219 1.648438 C -1.648438 2.699219 -1.351562 4.199219 -2.398438 5.101562 Z M 2.25 -12.75 C 2.101562 -13.199219 1.5 -13.648438 2.101562 -14.25 C 2.25 -14.398438 2.398438 -14.699219 2.398438 -14.851562 C 2.398438 -15.148438 2.101562 -15.601562 2.398438 -15.601562 C 2.398438 -15.601562 2.550781 -15.449219 2.699219 -15.449219 C 3.148438 -15.449219 3.148438 -14.851562 3.148438 -14.550781 C 3 -13.949219 3 -13.199219 2.25 -12.75 C 2.25 -12.449219 2.398438 -12.148438 2.550781 -12 C 2.699219 -11.550781 3 -11.25 2.699219 -10.949219 C 2.101562 -10.5 2.25 -9.601562 1.351562 -9.148438 C 1.050781 -9 1.050781 -8.699219 1.351562 -8.25 C 1.5 -7.949219 1.5 -7.800781 1.199219 -7.5 C 1.050781 -7.351562 0.75 -7.199219 0.75 -6.898438 C 0.898438 -5.550781 0.300781 -4.5 -0.148438 -3.300781 C -0.300781 -3.148438 -0.449219 -3.148438 -0.601562 -3.148438 C -0.898438 -3.148438 -1.199219 -3.601562 -1.050781 -3.75 C 0 -5.25 0 -7.199219 0.449219 -9 C 0.75 -10.351562 1.351562 -11.699219 2.25 -12.75 Z M 23.25 -10.5 C 23.101562 -9.300781 21.75 -9.300781 21.148438 -8.550781 C 21 -9.601562 21 -9.601562 22.648438 -11.101562 C 22.800781 -11.25 22.800781 -11.550781 22.949219 -11.699219 C 26.25 -15.449219 28.199219 -19.5 30.148438 -24 C 30.300781 -24.449219 30.148438 -25.050781 30.148438 -25.5 C 29.101562 -24.449219 28.800781 -22.949219 28.199219 -21.601562 C 27.300781 -20.101562 26.550781 -18.75 25.5 -17.25 C 21.601562 -10.949219 16.050781 -6.148438 9.300781 -3 C 7.800781 -2.550781 6.601562 -2.398438 5.101562 -2.398438 C 4.800781 -2.398438 4.5 -2.550781 4.351562 -2.699219 C 4.050781 -3 4.199219 -3.300781 4.351562 -3.75 C 4.5 -3.898438 4.800781 -4.050781 4.800781 -4.351562 C 4.949219 -6.898438 6.449219 -9 6.601562 -11.550781 C 6.898438 -13.5 7.648438 -15.449219 7.949219 -17.398438 C 8.851562 -21.601562 9.300781 -25.949219 9.898438 -30.300781 C 10.050781 -32.101562 10.351562 -33.898438 10.351562 -35.550781 C 10.351562 -37.5 11.25 -39.148438 11.550781 -40.949219 C 11.550781 -41.25 11.851562 -41.398438 12 -41.550781 C 12.898438 -42.601562 13.949219 -43.5 14.851562 -44.550781 C 17.101562 -47.398438 20.25 -50.101562 23.851562 -50.699219 C 24.601562 -50.699219 25.050781 -50.699219 25.648438 -50.101562 C 27.300781 -48.898438 28.5 -47.25 29.398438 -45.449219 C 29.851562 -44.398438 30 -43.050781 31.050781 -42.300781 C 31.199219 -42 31.199219 -41.851562 31.199219 -41.550781 C 30.898438 -40.199219 31.351562 -38.851562 31.5 -37.5 C 31.648438 -36.300781 31.648438 -35.25 31.351562 -34.199219 C 31.199219 -33 31.351562 -31.648438 31.199219 -30.449219 C 31.050781 -29.398438 30.75 -28.199219 30.449219 -27 C 30.300781 -26.550781 29.851562 -26.101562 30 -25.351562 C 30.601562 -25.5 30.898438 -25.949219 31.050781 -26.550781 C 31.351562 -27.601562 31.648438 -28.648438 31.800781 -29.699219 C 31.949219 -30.148438 32.101562 -30.449219 32.25 -30.75 C 32.25 -30.898438 32.550781 -30.898438 32.699219 -30.898438 C 32.699219 -30.898438 32.699219 -30.75 32.699219 -30.601562 C 32.398438 -28.800781 32.398438 -26.699219 31.648438 -24.898438 C 31.5 -24.601562 31.5 -24 31.5 -23.550781 C 31.5 -23.398438 31.5 -23.101562 31.351562 -22.800781 C 31.351562 -22.5 31.199219 -22.199219 31.050781 -22.050781 C 29.699219 -20.699219 29.851562 -18.449219 28.648438 -16.949219 C 28.050781 -16.199219 27.449219 -15.449219 27 -14.550781 C 26.851562 -14.25 26.699219 -13.800781 26.25 -13.800781 C 25.351562 -13.199219 24.898438 -12.449219 24.449219 -11.550781 C 24.300781 -11.101562 23.851562 -10.648438 23.25 -10.5 Z M 4.050781 -19.949219 C 4.199219 -19.648438 4.199219 -19.648438 4.199219 -19.5 C 3.75 -18.75 3.300781 -18 3.300781 -17.101562 C 3.300781 -16.949219 3 -16.949219 2.851562 -16.949219 C 2.699219 -16.949219 2.550781 -17.101562 2.550781 -17.101562 C 2.851562 -18.148438 2.699219 -19.199219 3.449219 -20.101562 C 3.601562 -20.101562 3.75 -20.101562 4.050781 -19.949219 Z M -4.800781 20.398438 C -4.800781 20.398438 -4.648438 20.550781 -4.648438 20.550781 C -4.351562 21.449219 -4.800781 21.898438 -5.101562 22.648438 C -5.398438 22.5 -5.398438 22.5 -5.398438 22.351562 C -5.550781 21.75 -5.699219 21 -5.25 20.550781 C -5.101562 20.398438 -4.949219 20.398438 -4.800781 20.398438 Z M -1.800781 8.851562 C -2.398438 7.800781 -1.648438 7.199219 -1.5 6.449219 C -1.050781 6.601562 -0.449219 6.898438 -0.75 7.5 C -1.050781 7.949219 -1.5 8.398438 -1.800781 8.851562 Z M 4.5 -10.050781 C 4.199219 -10.050781 4.050781 -10.199219 4.050781 -10.351562 C 4.050781 -10.648438 4.050781 -10.800781 4.199219 -11.101562 C 4.351562 -11.25 4.5 -11.25 4.5 -11.25 C 4.648438 -11.101562 4.800781 -10.949219 4.800781 -10.800781 C 4.800781 -10.5 4.648438 -10.351562 4.5 -10.050781 Z M -5.699219 27.75 C -5.550781 28.050781 -6 28.5 -6.148438 28.5 C -6.300781 28.5 -6.300781 28.351562 -6.300781 28.351562 C -6.449219 27.898438 -6.300781 27.601562 -5.851562 27.601562 C -5.851562 27.601562 -5.699219 27.75 -5.699219 27.75 Z M 5.101562 -12.75 C 5.101562 -12.449219 4.949219 -12.300781 4.648438 -12.300781 C 4.5 -12.300781 4.351562 -12.449219 4.199219 -12.601562 C 4.351562 -12.75 4.5 -12.898438 4.648438 -13.050781 C 4.800781 -13.050781 4.949219 -12.898438 5.101562 -12.75 Z M -0.75 -15.300781 C -0.601562 -15.300781 -0.449219 -15.148438 -0.449219 -14.851562 C -0.75 -14.699219 -0.898438 -15 -0.75 -15.300781 Z M -2.550781 -4.648438 C -2.699219 -4.5 -2.699219 -4.5 -2.851562 -4.5 C -2.851562 -4.648438 -3 -4.800781 -3 -4.949219 C -2.699219 -4.949219 -2.699219 -4.800781 -2.550781 -4.648438 Z M 3.300781 -30.898438 C 3.300781 -30.75 3.300781 -30.601562 3.300781 -30.300781 C 3.148438 -30.300781 3 -30.601562 3 -30.898438 C 3.148438 -30.898438 3.148438 -30.898438 3.300781 -30.898438 Z M -1.050781 5.25 L -0.898438 5.398438 L -0.898438 5.550781 Z M -2.550781 11.25 L -2.550781 11.101562 L -2.398438 11.101562 Z M -2.101562 -8.550781 L -2.101562 -8.398438 L -2.25 -8.398438 Z M -2.398438 -6.148438 L -2.25 -6.148438 L -2.398438 -6 Z M -5.851562 25.5 L -5.851562 25.648438 L -6 25.5 Z M -8.101562 26.101562 L -8.25 26.101562 L -8.25 25.949219 Z M -8.699219 30.601562 L -8.699219 30.75 L -8.851562 30.75 Z M -9.148438 31.949219 L -9.300781 31.949219 L -9.148438 31.800781 Z M -6.148438 14.699219 L -6.148438 14.550781 L -6 14.550781 Z M -6.601562 19.199219 L -6.898438 19.199219 Z M 0.601562 -20.101562 L 0.601562 -19.949219 L 0.449219 -19.949219 Z M 0 -18.75 L 0 -18.898438 L 0.148438 -18.75 Z M 2.851562 -28.5 L 2.851562 -28.648438 L 3 -28.648438 Z M -1.648438 -10.050781 L -1.648438 -10.351562 Z M -0.898438 -13.5 L -1.050781 -13.648438 L -1.050781 -13.800781 Z M 23.25 -10.5 C 23.25 -10.800781 22.949219 -10.949219 22.648438 -11.101562 C 22.800781 -10.800781 22.949219 -10.5 23.25 -10.5 Z M 23.25 -10.5 "/></g></g></g><g fill="rgb(0%, 0%, 0%)" fill-opacity="1"><g transform="translate(469.494182, 594.976862)"><g><path d="M 20.851562 -86.851562 L 20.851562 -86.550781 C 20.699219 -86.398438 20.550781 -86.398438 20.398438 -86.25 C 19.800781 -84.449219 19.050781 -82.648438 18.75 -80.851562 C 18.449219 -79.648438 12.148438 -63.898438 12.449219 -62.550781 C 12.300781 -62.398438 12.148438 -62.398438 12 -62.25 C 11.25 -59.699219 10.351562 -57 9.601562 -54.449219 C 9.449219 -54 9.601562 -53.398438 9.601562 -52.800781 C 8.851562 -52.050781 8.699219 -51 8.550781 -49.949219 C 8.398438 -49.949219 8.699219 -49.800781 8.699219 -49.648438 C 9.601562 -50.550781 9.601562 -51.601562 9.601562 -52.800781 C 9.898438 -52.800781 10.050781 -53.101562 10.050781 -53.398438 C 10.800781 -55.5 11.25 -57.75 12 -59.851562 C 12.300781 -60.75 12.449219 -61.648438 12.449219 -62.550781 C 13.199219 -62.851562 18.898438 -78.449219 19.050781 -78.898438 C 19.351562 -80.851562 20.101562 -82.5 20.699219 -84.300781 C 20.851562 -85.050781 20.851562 -85.800781 20.851562 -86.550781 C 21.148438 -86.550781 21.449219 -86.851562 21.449219 -87.148438 C 21.449219 -87.75 21.75 -88.351562 22.199219 -88.949219 C 22.351562 -89.25 22.648438 -89.398438 22.800781 -89.398438 C 23.101562 -89.398438 23.398438 -89.25 23.699219 -88.949219 C 22.648438 -86.398438 22.5 -83.699219 21.148438 -81.148438 C 21 -81 21 -80.851562 21 -80.699219 C 21 -79.050781 14.699219 -62.851562 14.25 -61.199219 C 13.5 -58.800781 13.050781 -56.398438 12.148438 -54.148438 C 11.398438 -51.75 8.101562 -39.601562 6.75 -37.351562 C 6.601562 -37.050781 6.601562 -36.449219 6.449219 -36 C 6.148438 -34.050781 5.25 -32.25 5.101562 -30.300781 C 5.101562 -30 4.949219 -29.851562 4.800781 -29.699219 C 4.648438 -28.949219 4.351562 -28.351562 4.199219 -27.601562 C 3.75 -25.648438 2.851562 -24 3 -22.050781 C 3 -21.898438 3 -21.898438 2.851562 -21.75 C 1.949219 -20.101562 1.800781 -18.300781 1.5 -16.5 C 1.199219 -14.851562 0.601562 -13.199219 0.75 -11.550781 C 0.75 -11.25 0.601562 -10.949219 0.449219 -10.648438 C 0.449219 -10.800781 0.300781 -10.949219 0.300781 -10.949219 C -0.148438 -13.949219 0.898438 -16.800781 0.898438 -19.800781 L 0.898438 -19.949219 C 1.800781 -21.300781 1.949219 -22.800781 2.101562 -24.449219 C 2.101562 -26.25 4.648438 -35.25 5.25 -37.050781 C 5.398438 -37.5 8.398438 -47.550781 7.949219 -48.601562 C 7.5 -46.5 4.050781 -35.101562 3.449219 -33.300781 C 2.101562 -28.648438 -1.050781 -18.601562 -1.050781 -13.800781 L -1.050781 -12.75 C -1.949219 -10.351562 -1.5 -7.800781 -1.5 -5.25 C -1.5 -3.75 -0.601562 -0.449219 0.898438 0.300781 C 2.25 1.050781 3.300781 2.25 4.5 3.300781 C 4.949219 3.75 5.398438 3.898438 5.851562 3.898438 C 6.300781 3.898438 6.601562 3.75 7.050781 3.601562 C 8.398438 3 9.898438 2.398438 11.25 1.800781 C 13.050781 0.898438 14.851562 0.148438 16.199219 -1.199219 C 16.050781 -1.351562 15.898438 -1.351562 15.898438 -1.648438 C 16.050781 -1.800781 16.199219 -1.800781 16.351562 -1.949219 C 16.351562 -2.25 16.648438 -2.398438 16.949219 -2.398438 L 16.949219 -1.949219 C 16.949219 -1.949219 16.800781 -1.949219 16.800781 -1.800781 L 16.351562 -1.800781 L 16.351562 -1.351562 C 16.648438 -1.351562 16.800781 -1.5 16.800781 -1.800781 L 16.949219 -1.800781 L 16.949219 -1.949219 C 17.101562 -2.101562 17.101562 -2.101562 17.25 -2.101562 C 17.101562 -2.25 17.101562 -2.25 16.949219 -2.398438 L 16.949219 -2.550781 C 17.398438 -3.449219 18.300781 -4.199219 19.199219 -4.949219 C 19.5 -5.25 19.648438 -5.25 19.949219 -5.25 C 20.25 -5.25 20.398438 -5.25 20.699219 -5.101562 C 20.851562 -5.101562 21 -4.949219 21.300781 -4.949219 C 21.449219 -4.949219 21.601562 -5.101562 21.75 -5.25 C 21.898438 -5.550781 21.75 -5.699219 21.449219 -5.851562 C 21.300781 -6 21.148438 -6.148438 21.148438 -6.300781 C 21.148438 -6.75 21.898438 -6.898438 22.199219 -6.898438 C 22.199219 -6.898438 22.351562 -6.898438 22.5 -6.898438 C 22.648438 -6.75 22.800781 -6.75 22.949219 -6.75 C 23.101562 -6.75 23.25 -7.050781 23.101562 -7.199219 C 22.800781 -7.949219 22.949219 -8.25 23.550781 -8.699219 C 24.75 -9.601562 25.949219 -10.648438 26.699219 -12 C 27 -12.300781 27 -12.601562 27 -13.050781 C 26.851562 -13.5 27.148438 -13.648438 27.601562 -13.800781 C 27.898438 -13.949219 28.351562 -13.949219 28.648438 -13.949219 C 29.699219 -14.101562 30.148438 -14.699219 30.148438 -15.75 C 30.601562 -15.898438 30.75 -16.199219 30.75 -16.648438 L 30.75 -18.601562 C 31.648438 -18.75 31.648438 -18.75 31.800781 -19.648438 L 31.949219 -19.648438 L 31.949219 -19.800781 C 32.25 -19.800781 32.398438 -19.949219 32.398438 -20.25 L 31.949219 -20.25 L 31.949219 -20.398438 L 31.800781 -20.25 L 31.949219 -20.25 L 31.949219 -19.800781 C 31.949219 -19.800781 31.800781 -19.800781 31.800781 -19.648438 L 31.199219 -19.648438 C 31.351562 -20.101562 31.5 -20.25 31.800781 -20.398438 C 31.949219 -20.699219 31.949219 -21 32.101562 -21.300781 C 32.699219 -22.050781 33.300781 -22.800781 34.199219 -23.25 L 34.199219 -23.101562 C 34.199219 -23.550781 34.5 -23.699219 34.800781 -23.851562 L 34.800781 -23.699219 C 35.101562 -24.449219 35.699219 -25.199219 36.449219 -25.5 C 36.449219 -26.101562 36.75 -26.550781 37.199219 -27 C 38.101562 -27.898438 39.148438 -28.949219 40.050781 -30 C 41.699219 -32.25 43.351562 -34.351562 45.300781 -36.300781 C 45.601562 -36.75 45.75 -37.050781 45.601562 -37.5 C 45.148438 -37.5 44.851562 -37.050781 44.550781 -36.75 C 42.75 -34.648438 40.800781 -32.699219 39 -30.601562 C 36.601562 -27.601562 34.351562 -24.75 31.648438 -22.199219 C 30.898438 -21.300781 30 -20.550781 29.25 -19.648438 C 28.5 -18.449219 27.601562 -17.550781 26.699219 -16.648438 L 22.351562 -12.300781 C 21.898438 -11.851562 21.449219 -11.25 21 -10.949219 C 19.648438 -10.199219 18.75 -9.148438 17.699219 -8.101562 C 15.148438 -5.699219 12.300781 -3.601562 9.300781 -1.648438 C 8.550781 -1.050781 7.5 -0.601562 6.601562 -0.148438 C 6.449219 -0.148438 6.300781 0 6 0 C 5.398438 0 5.101562 -0.449219 4.800781 -1.050781 C 4.351562 -2.101562 4.199219 -3.148438 4.199219 -4.199219 L 4.199219 -7.648438 C 4.199219 -8.398438 4.199219 -9.449219 4.351562 -10.199219 C 4.800781 -11.25 4.800781 -12.449219 4.800781 -13.5 C 4.800781 -14.550781 4.949219 -15.449219 5.25 -16.351562 C 5.550781 -17.101562 5.851562 -17.851562 5.851562 -18.601562 C 6.148438 -21 6.75 -23.101562 7.648438 -25.351562 C 7.949219 -26.25 7.949219 -27 8.25 -27.898438 C 8.398438 -28.648438 8.550781 -29.398438 8.851562 -30 C 9 -30.449219 10.050781 -34.199219 10.050781 -34.648438 C 10.050781 -35.25 10.199219 -35.699219 10.5 -36.300781 C 10.800781 -36.898438 14.101562 -47.101562 14.25 -47.851562 C 14.699219 -49.800781 15.300781 -51.75 15.898438 -53.550781 C 16.949219 -57.148438 23.851562 -75.300781 24.898438 -78.898438 C 25.050781 -79.648438 25.199219 -80.25 25.5 -80.851562 C 26.398438 -83.101562 28.050781 -87.300781 28.5 -89.398438 L 31.800781 -97.351562 C 33 -100.351562 34.199219 -103.351562 36.148438 -106.050781 C 36.75 -106.800781 37.050781 -107.398438 37.199219 -108.300781 C 37.5 -109.351562 37.949219 -110.25 38.101562 -111.300781 C 38.25 -111.898438 38.25 -112.5 38.101562 -112.949219 C 37.800781 -114 37.199219 -114.898438 36.75 -115.800781 C 36.449219 -116.398438 34.351562 -117 33.898438 -116.851562 C 33.75 -116.851562 33.75 -116.851562 33.601562 -116.699219 C 31.351562 -115.199219 30.601562 -112.800781 29.699219 -110.25 C 28.199219 -105.898438 25.949219 -102 24.601562 -97.5 C 24.449219 -96.898438 24 -96.300781 23.851562 -95.699219 Z M 26.699219 -15.148438 C 27.300781 -16.050781 28.050781 -16.800781 28.949219 -17.398438 L 28.949219 -16.199219 C 28.648438 -16.050781 28.199219 -15.75 27.898438 -15.449219 C 27.601562 -15.148438 27.148438 -15.148438 26.699219 -15.148438 Z M 27.148438 -100.199219 C 27.449219 -100.351562 27.75 -100.050781 27.601562 -99.75 C 27.601562 -99.300781 27.449219 -99.148438 27 -98.851562 L 26.851562 -98.851562 C 26.851562 -99.148438 26.699219 -99.449219 26.699219 -99.601562 C 26.699219 -100.050781 26.851562 -100.199219 27.148438 -100.199219 Z M 25.050781 -96.148438 C 24.898438 -96.449219 25.050781 -96.601562 25.351562 -96.75 C 25.648438 -96.898438 25.949219 -96.75 25.949219 -96.449219 C 25.949219 -96.300781 25.800781 -96 25.800781 -96 C 25.5 -95.851562 25.199219 -95.851562 25.050781 -96.148438 Z M 30.148438 -18.601562 C 30.148438 -18.898438 30.449219 -19.050781 30.75 -19.199219 L 30.75 -18.601562 Z M -0.148438 -7.800781 C -0.148438 -7.949219 -0.300781 -8.101562 -0.300781 -8.25 L 0.148438 -8.699219 L 0.148438 -8.101562 Z M 38.699219 -27.300781 C 38.699219 -27.300781 38.699219 -27.148438 38.851562 -27.148438 Z M 21.75 -10.050781 L 21.75 -10.199219 L 21.898438 -10.199219 Z M 26.25 -97.800781 L 26.398438 -97.800781 L 26.398438 -97.648438 Z M 26.25 -97.800781 "/></g></g></g><g fill="rgb(0%, 0%, 0%)" fill-opacity="1"><g transform="translate(505.194185, 594.976862)"><g><path d="M 23.398438 -18.75 C 23.550781 -19.050781 23.25 -19.351562 22.949219 -19.5 L 22.949219 -19.800781 C 22.949219 -20.101562 22.949219 -20.398438 23.25 -20.398438 C 23.25 -20.398438 23.398438 -20.25 23.550781 -20.25 C 24 -20.101562 24.601562 -19.949219 24.601562 -19.050781 L 24.601562 -16.199219 C 24.601562 -15.300781 25.050781 -14.398438 25.199219 -13.5 C 25.351562 -9.148438 28.050781 -6.148438 31.199219 -3.449219 C 31.351562 -3.300781 31.800781 -3.300781 31.949219 -3.148438 C 32.25 -3 32.550781 -2.851562 32.851562 -2.851562 C 34.800781 -2.851562 40.800781 -7.800781 42.148438 -9.148438 C 42.75 -9.601562 42.449219 -10.351562 42.898438 -10.800781 C 43.351562 -11.101562 43.949219 -11.550781 44.398438 -12 C 44.550781 -12.148438 44.550781 -12.449219 44.398438 -12.449219 L 43.949219 -12.449219 C 41.25 -10.648438 38.699219 -8.851562 35.851562 -7.5 C 34.949219 -7.050781 34.050781 -6.898438 33.148438 -6.898438 C 32.699219 -6.898438 32.25 -6.898438 31.800781 -7.050781 C 30.449219 -8.851562 29.851562 -11.101562 29.851562 -13.351562 C 29.851562 -21.148438 33.75 -37.800781 36.898438 -44.101562 C 37.949219 -45.898438 38.101562 -47.851562 37.800781 -49.800781 C 37.050781 -50.25 36.300781 -50.699219 35.550781 -50.699219 C 35.101562 -50.699219 34.648438 -50.550781 34.199219 -50.25 C 34.050781 -50.101562 33.75 -50.101562 33.601562 -50.101562 C 33.300781 -50.101562 33.148438 -50.101562 32.851562 -50.25 C 30.75 -51.300781 28.648438 -51.300781 26.398438 -51.300781 C 22.800781 -51.148438 19.648438 -50.25 16.800781 -47.851562 C 15.601562 -46.800781 14.398438 -45.449219 12.898438 -44.851562 C 12.75 -44.699219 12.601562 -44.550781 12.601562 -44.398438 C 12.148438 -43.5 11.398438 -42.601562 10.648438 -42.300781 C 9.449219 -41.699219 9.75 -40.351562 8.699219 -39.601562 C 5.550781 -36.75 3.300781 -32.101562 1.5 -28.199219 C 1.199219 -27.898438 1.050781 -27.601562 0.898438 -27.300781 C -1.800781 -19.050781 -3.148438 -13.949219 -3.148438 -4.949219 C -3.148438 -2.101562 -2.101562 0.449219 0.148438 2.398438 L 1.199219 3.449219 C 1.648438 3.898438 2.25 4.199219 3 4.199219 C 3.75 4.050781 4.648438 4.050781 5.398438 3.601562 C 7.648438 2.550781 12.898438 -0.898438 14.101562 -2.851562 C 14.398438 -3.300781 15.300781 -3.449219 15.601562 -4.050781 C 16.050781 -4.949219 16.800781 -5.699219 17.398438 -6.449219 C 16.949219 -7.648438 18.449219 -8.25 18.601562 -9.148438 C 18.75 -10.050781 19.351562 -10.949219 19.800781 -11.699219 C 20.101562 -12.601562 20.550781 -13.351562 21.148438 -14.25 C 21.449219 -14.851562 21.898438 -15.300781 21.75 -16.050781 C 22.800781 -16.5 23.101562 -17.699219 23.398438 -18.75 Z M 3.300781 0.300781 C 3.148438 0.449219 2.851562 0.449219 2.550781 0.601562 C 2.25 0.300781 1.949219 0.148438 1.949219 0 C 1.648438 -0.300781 1.648438 -0.75 1.648438 -1.050781 C 1.648438 -2.101562 1.648438 -3.148438 1.199219 -4.199219 C 1.050781 -4.5 1.050781 -4.949219 1.199219 -5.398438 C 1.800781 -7.5 1.800781 -9.601562 2.101562 -11.851562 C 2.398438 -12.601562 2.550781 -13.5 2.699219 -14.25 C 3.601562 -16.949219 4.050781 -19.800781 5.25 -22.351562 C 6 -24 6.449219 -25.648438 7.199219 -27.148438 C 7.5 -27.75 7.949219 -28.199219 8.25 -28.800781 C 8.851562 -30.148438 9.898438 -31.199219 10.199219 -32.550781 C 10.351562 -32.699219 10.351562 -33 10.5 -33.148438 C 12 -34.199219 12.75 -35.851562 14.25 -37.050781 C 15.449219 -38.101562 16.5 -39.601562 17.851562 -40.648438 C 20.101562 -42.300781 22.199219 -43.949219 24.898438 -45 C 26.398438 -45.601562 27.75 -46.5 28.949219 -47.699219 C 29.398438 -48 29.550781 -48.148438 29.851562 -48.148438 C 30.148438 -48.148438 30.300781 -48 30.601562 -47.699219 C 31.5 -46.949219 31.648438 -46.5 31.199219 -45.449219 C 30.449219 -43.648438 29.550781 -41.851562 29.101562 -39.898438 C 28.800781 -37.800781 27.148438 -32.699219 26.101562 -30.75 C 24.75 -27.75 23.25 -24.75 21.75 -21.601562 C 21 -19.648438 19.648438 -17.851562 18.449219 -16.050781 C 17.550781 -14.25 16.351562 -12.601562 15.449219 -10.800781 C 12.449219 -6 7.949219 -2.699219 3.300781 0.300781 Z M 21.75 -17.699219 C 21.898438 -17.851562 21.898438 -18 21.898438 -18.148438 L 22.199219 -17.851562 C 22.199219 -17.699219 22.050781 -17.550781 21.898438 -17.398438 C 21.898438 -17.550781 21.75 -17.550781 21.75 -17.699219 Z M 4.648438 -31.949219 L 4.800781 -31.949219 L 4.800781 -31.800781 Z M 24.449219 -22.648438 L 24.300781 -22.648438 L 24.300781 -22.800781 Z M 4.199219 -30.898438 L 4.199219 -30.75 L 4.050781 -30.75 Z M 19.050781 -12.75 L 19.050781 -13.050781 Z M 19.050781 -12.75 "/></g></g></g><g fill="rgb(0%, 0%, 0%)" fill-opacity="1"><g transform="translate(547.944206, 594.976862)"><g><path d="M 30.898438 -24.300781 C 31.050781 -23.699219 31.199219 -23.398438 31.050781 -23.25 C 28.800781 -15.300781 25.949219 -7.648438 23.101562 0.148438 C 22.648438 1.351562 22.199219 2.550781 21.75 3.75 C 20.25 7.648438 15.898438 18.898438 14.699219 22.949219 C 14.550781 23.398438 14.25 23.851562 13.949219 24.300781 C 13.351562 25.351562 12.898438 26.398438 12.601562 27.601562 C 12.300781 28.648438 11.699219 29.550781 11.101562 30.601562 C 10.050781 32.101562 9.148438 33.601562 8.25 35.25 C 8.101562 35.398438 7.949219 35.550781 7.949219 35.699219 C 7.949219 37.351562 6.75 38.398438 6.148438 39.75 C 5.398438 41.398438 4.351562 42.75 3.449219 44.101562 C 3.148438 44.550781 2.699219 44.851562 2.699219 45.148438 C 2.699219 46.351562 1.949219 47.101562 1.050781 47.550781 C -0.148438 48.300781 -0.898438 49.5 -1.800781 50.398438 C -2.851562 51.300781 -4.050781 52.199219 -4.648438 53.550781 C -4.949219 54.148438 -5.699219 54.601562 -6.148438 55.050781 C -7.648438 55.949219 -9 56.851562 -10.351562 57.75 C -11.25 58.351562 -12.148438 58.5 -13.199219 58.5 C -13.5 58.5 -13.800781 58.5 -14.101562 58.5 C -14.25 58.351562 -14.398438 58.199219 -14.699219 58.199219 C -14.851562 58.199219 -15 58.199219 -15.148438 58.5 C -14.851562 59.851562 -13.351562 61.199219 -12 61.5 C -11.398438 61.5 -10.648438 61.648438 -9.898438 61.648438 C -9 61.648438 -8.101562 61.5 -7.5 60.75 C -7.351562 60.601562 -7.050781 60.449219 -6.898438 60.449219 C -6.601562 60.601562 -6.449219 60.75 -6.148438 60.75 C -5.398438 60.75 -4.800781 59.851562 -4.050781 59.699219 C -3.601562 59.550781 -3.148438 58.800781 -2.550781 58.648438 C 0.449219 57.449219 2.25 54.75 4.5 52.648438 C 6.75 50.550781 7.648438 47.398438 9.75 45.148438 C 11.101562 42.300781 13.351562 39.898438 14.398438 36.75 C 21 25.050781 25.5 12 29.699219 -0.75 C 30.148438 -2.398438 30.75 -4.050781 31.351562 -5.851562 C 32.101562 -8.101562 32.851562 -10.199219 33.601562 -12.449219 C 34.351562 -13.800781 35.398438 -16.800781 35.398438 -18.449219 C 36 -20.25 37.199219 -21.898438 37.050781 -23.851562 C 37.050781 -24 37.199219 -24.300781 37.351562 -24.449219 C 38.101562 -25.800781 38.25 -27.300781 38.851562 -28.648438 C 39.148438 -29.550781 39.148438 -30.601562 39.601562 -31.351562 C 40.648438 -33.449219 40.648438 -36 42 -38.101562 C 42.449219 -41.101562 43.5 -43.949219 44.398438 -46.800781 C 44.699219 -48.148438 44.25 -49.648438 45.148438 -51 C 45.601562 -53.25 44.398438 -55.5 42.449219 -56.550781 C 42.148438 -56.699219 42 -56.699219 41.699219 -56.699219 C 41.25 -56.699219 40.949219 -56.550781 40.949219 -56.101562 C 40.949219 -53.25 39 -51 38.550781 -48.300781 C 38.550781 -47.851562 38.25 -47.550781 38.101562 -47.25 C 37.199219 -45.75 36.300781 -44.398438 35.550781 -43.050781 C 34.800781 -41.398438 33.449219 -40.199219 32.550781 -38.699219 C 31.351562 -36.601562 29.851562 -34.351562 28.648438 -32.25 C 28.050781 -31.199219 27.601562 -30.300781 26.699219 -29.398438 C 25.648438 -28.199219 24.601562 -27 23.550781 -25.648438 C 22.050781 -23.851562 20.699219 -21.898438 19.050781 -20.25 C 18.300781 -19.648438 17.699219 -18.75 16.949219 -18 C 15.75 -16.648438 14.398438 -15.300781 12.898438 -14.25 C 12.148438 -13.5 11.25 -12.898438 10.5 -12.300781 C 8.101562 -10.050781 5.398438 -8.398438 2.398438 -7.050781 C 2.101562 -6.898438 1.800781 -6.898438 1.5 -7.050781 C 1.199219 -7.050781 1.199219 -7.5 1.351562 -7.800781 C 1.949219 -11.699219 2.851562 -16.5 4.5 -19.949219 C 5.101562 -21.75 5.398438 -23.699219 6.300781 -25.351562 C 7.050781 -26.699219 7.949219 -27.898438 8.101562 -29.25 C 8.398438 -31.648438 12.449219 -37.949219 13.800781 -39.898438 C 14.851562 -40.648438 14.851562 -41.851562 15.148438 -42.75 C 15.300781 -43.199219 14.699219 -44.101562 14.101562 -44.25 C 13.351562 -44.398438 10.949219 -43.648438 10.5 -42.898438 C 3.449219 -34.199219 -0.601562 -20.398438 -3 -9.75 C -3.300781 -8.25 -3.449219 -6.75 -3.300781 -5.25 C -3 -3.75 -2.398438 -2.101562 -0.898438 -1.199219 C -0.601562 -0.898438 -0.148438 -0.75 0.148438 -0.601562 C 0.601562 -0.601562 0.898438 -0.601562 1.351562 -0.601562 C 2.25 -0.601562 3.300781 -0.601562 4.199219 -1.199219 C 4.800781 -1.5 5.398438 -1.648438 6 -1.800781 C 6.898438 -1.949219 7.5 -2.398438 8.25 -2.699219 C 10.199219 -3.75 11.851562 -5.25 13.648438 -6.449219 C 19.949219 -10.949219 26.851562 -17.699219 30.898438 -24.300781 Z M 14.550781 -13.949219 C 14.550781 -13.648438 14.25 -13.5 13.949219 -13.351562 C 13.351562 -11.101562 11.25 -10.199219 9.449219 -9.148438 C 9.300781 -9.148438 9 -9.148438 8.851562 -9.148438 C 8.699219 -9 8.699219 -8.851562 8.550781 -8.699219 C 8.25 -9.148438 8.699219 -9 8.851562 -9.148438 C 9.898438 -10.800781 11.550781 -12 13.050781 -13.199219 C 13.199219 -13.351562 13.648438 -13.351562 13.949219 -13.351562 C 13.949219 -13.800781 14.25 -13.949219 14.550781 -13.949219 C 14.699219 -14.101562 14.699219 -14.25 14.851562 -14.398438 C 15.148438 -13.949219 14.699219 -14.101562 14.550781 -13.949219 Z M 22.5 -21.75 C 23.101562 -21.148438 22.5 -20.699219 22.351562 -20.398438 C 22.199219 -19.949219 22.5 -19.648438 22.949219 -19.800781 C 23.25 -19.949219 23.699219 -20.101562 23.851562 -19.800781 C 23.851562 -19.648438 23.699219 -19.351562 23.398438 -19.199219 C 22.648438 -18.449219 22.050781 -17.699219 20.851562 -17.550781 C 19.949219 -17.398438 19.199219 -16.5 18.300781 -16.050781 C 18 -15.898438 17.699219 -15.898438 17.398438 -15.898438 C 17.101562 -15.898438 16.949219 -16.050781 16.800781 -16.050781 C 17.550781 -17.699219 18.75 -19.050781 20.398438 -19.949219 C 21.300781 -20.398438 21.898438 -21.148438 22.5 -21.75 Z M 26.101562 -23.101562 C 25.800781 -21.75 25.050781 -21.148438 24.148438 -20.699219 C 24.148438 -20.699219 24 -20.699219 23.851562 -20.851562 C 24.300781 -21.75 24.898438 -22.5 26.101562 -23.101562 Z M -6.449219 57.148438 L -6.601562 57 L -6.601562 56.851562 Z M 19.351562 -14.851562 L 19.351562 -15 L 19.5 -14.851562 Z M 28.800781 -28.351562 L 29.101562 -28.199219 L 28.949219 -28.050781 Z M 28.800781 -28.351562 "/></g></g></g><g fill="rgb(0%, 0%, 0%)" fill-opacity="1"><g transform="translate(593.244222, 594.976862)"><g><path d="M 15.898438 -71.550781 C 15.75 -71.25 15.601562 -71.101562 15.449219 -70.949219 C 15.300781 -70.351562 15.300781 -69.75 15.300781 -69.148438 C 15.300781 -69 15 -68.851562 15 -68.851562 C 14.101562 -69 14.25 -68.398438 14.25 -67.949219 C 14.398438 -67.5 14.851562 -66.898438 14.699219 -66.300781 L 14.398438 -66 C 14.25 -66.148438 14.25 -66.300781 14.101562 -66.449219 C 13.949219 -66.449219 13.949219 -66.449219 13.800781 -66.601562 C 13.648438 -65.699219 13.351562 -64.800781 13.199219 -63.75 C 13.199219 -63.601562 13.351562 -63.601562 13.648438 -63.601562 C 14.101562 -63.898438 14.101562 -63.300781 14.101562 -63.300781 C 13.351562 -62.699219 12.75 -61.949219 12.601562 -61.199219 C 12.148438 -58.800781 11.25 -56.398438 10.800781 -54 C 10.648438 -53.398438 10.648438 -52.648438 11.398438 -52.351562 C 11.550781 -52.199219 11.699219 -51.601562 11.699219 -51.601562 C 10.949219 -51.300781 11.851562 -49.949219 10.800781 -49.949219 C 10.800781 -49.949219 10.648438 -49.949219 10.5 -49.949219 C 10.199219 -49.351562 10.050781 -48.75 9.75 -48.300781 C 9.449219 -47.550781 10.050781 -47.398438 10.5 -46.949219 C 9.449219 -45.75 9 -44.398438 8.851562 -42.898438 C 8.398438 -40.648438 7.648438 -38.398438 7.351562 -36.148438 C 7.050781 -33.75 6 -31.5 6.148438 -28.949219 C 5.550781 -27.898438 5.550781 -26.699219 5.398438 -25.5 C 5.398438 -25.199219 5.25 -24.898438 5.101562 -24.601562 C 4.800781 -24.148438 4.351562 -23.851562 4.648438 -23.25 C 4.800781 -22.800781 4.949219 -22.351562 5.398438 -22.050781 C 6.148438 -21.449219 7.050781 -21 7.949219 -20.398438 C 8.101562 -20.25 8.25 -20.25 8.398438 -20.25 C 8.851562 -20.25 9.148438 -20.398438 9.300781 -20.699219 C 10.050781 -21.75 10.351562 -22.949219 10.648438 -24.148438 C 11.398438 -27 11.851562 -30 12.449219 -33 C 12.898438 -35.101562 13.5 -37.050781 13.949219 -39.148438 C 13.949219 -39.601562 14.25 -40.050781 14.25 -40.5 C 14.101562 -42.300781 14.699219 -43.949219 15.148438 -45.601562 C 15.148438 -45.898438 15.300781 -46.351562 15.300781 -46.648438 C 15.148438 -48.300781 15.75 -49.648438 16.050781 -51.148438 C 16.351562 -52.5 16.800781 -54.601562 16.800781 -55.949219 C 17.101562 -58.050781 18.300781 -60 18.300781 -62.25 C 19.199219 -64.050781 19.199219 -66.148438 19.648438 -68.101562 C 20.398438 -70.800781 20.851562 -73.5 22.199219 -75.898438 C 22.351562 -76.199219 22.199219 -76.5 22.351562 -76.800781 C 22.949219 -78.300781 22.800781 -79.949219 23.398438 -81.449219 C 24.300781 -83.550781 24.898438 -85.648438 25.800781 -87.601562 C 26.25 -88.800781 26.550781 -90 27 -91.199219 C 27.601562 -93 28.050781 -94.949219 28.949219 -96.75 C 29.25 -97.5 29.550781 -98.398438 30 -99 C 31.199219 -100.648438 30.898438 -102.300781 30.898438 -104.101562 C 30.898438 -104.398438 30.601562 -104.851562 30.449219 -105.148438 C 30 -105.601562 29.398438 -106.050781 28.949219 -106.5 C 28.5 -107.101562 27.898438 -107.101562 27.148438 -107.25 C 24 -107.25 21.75 -98.851562 21.601562 -96.300781 C 20.699219 -94.199219 20.550781 -91.648438 19.800781 -89.398438 L 19.351562 -88.050781 C 18.601562 -86.699219 19.050781 -85.050781 18.300781 -83.699219 C 17.699219 -82.351562 17.699219 -80.699219 16.800781 -79.5 C 16.800781 -78 15.449219 -76.648438 16.351562 -75.148438 C 16.5 -74.851562 16.5 -74.25 16.351562 -73.949219 C 15.898438 -73.199219 16.050781 -72.300781 15.898438 -71.550781 Z M 1.648438 -6.148438 C 1.199219 -5.101562 0.601562 -4.199219 0 -3.148438 C 0.898438 -1.949219 2.101562 -0.898438 2.699219 0.601562 C 2.851562 1.050781 3.300781 1.199219 3.898438 1.199219 C 4.050781 1.199219 5.101562 1.050781 5.101562 0.75 C 5.550781 -0.300781 6.300781 -0.601562 7.351562 -0.75 C 7.648438 -0.75 8.101562 -1.050781 8.25 -1.351562 C 9.148438 -3 8.851562 -4.949219 7.648438 -6.300781 C 7.199219 -6.898438 6.75 -7.351562 6.148438 -7.800781 C 5.550781 -8.398438 4.949219 -8.699219 4.351562 -8.699219 C 3.601562 -8.699219 3 -8.25 2.398438 -7.351562 C 2.101562 -7.050781 1.949219 -6.601562 1.648438 -6.148438 Z M 1.648438 -6.148438 "/></g></g></g></svg>